<svg width="52" height="52" viewBox="0 0 52 52" fill="none" xmlns="http://www.w3.org/2000/svg">
<path d="M10.7141 23.2565C11.1085 20.8835 12.0607 18.6373 13.493 16.7015C14.9252 14.7658 16.7967 13.1956 18.9544 12.1192C21.4047 10.8876 24.1518 10.3643 26.885 10.6085C32.7915 11.1158 37.7135 14.8098 39.8483 20.3564C40.2686 21.4481 40.6225 23.069 40.7442 24.4695C40.8548 25.7927 40.8438 25.8809 40.6225 26.3441C40.4861 26.6675 40.228 26.9248 39.9036 27.0608C37.9246 28.0003 37.4149 24.4861 37.4149 23.852C37.4149 23.5653 37.0278 22.0876 36.7844 21.4591C36.1794 19.8845 35.2481 18.4548 34.0511 17.2634C32.8542 16.0721 31.4187 15.1458 29.8382 14.5452C27.6051 13.7362 25.1844 13.5907 22.8699 14.1262C18.7 15.1296 15.3486 18.3826 14.1982 22.5287C14.0269 23.2544 13.9087 23.9914 13.8443 24.7341C13.6894 26.3882 13.5125 26.7631 12.7714 27.0829C11.975 27.4357 11.0791 27.127 10.7251 26.3661C10.4929 25.8953 10.4929 24.5467 10.7141 23.2565Z" fill="#2C365A"/>
<path d="M22.8163 3.30508L20.3274 6.06118L16.6384 4.88333C14.1943 4.10691 12.9281 3.79492 12.8833 3.95041C12.8386 4.10589 12.4829 5.7502 12.0835 7.59472C11.6831 9.46159 11.3051 11.0612 11.239 11.172C11.172 11.2614 9.55 11.6801 7.66077 12.0866C5.77155 12.4931 4.10386 12.8417 3.95041 12.8864C3.79695 12.9311 4.10589 14.1974 4.88333 16.6465L6.06118 20.3356L3.30508 22.8163C1.79492 24.1943 0.55 25.4169 0.55 25.55C0.55 25.6831 1.79492 26.9057 3.30508 28.2837L6.06118 30.7726L4.88333 34.4616C4.10691 36.9057 3.79492 38.172 3.95041 38.2167C4.10589 38.2614 5.77256 38.6171 7.66077 39.0165C9.54898 39.4159 11.172 39.8386 11.239 39.9311C11.3051 40.0419 11.6831 41.6415 12.0835 43.5083C12.4829 45.3528 12.8386 46.9972 12.8833 47.1526C12.9281 47.3081 14.1943 46.9972 16.6435 46.2197L20.3325 45.0419L22.8213 47.798C24.1943 49.3051 25.4169 50.55 25.55 50.55C25.6831 50.55 26.9057 49.3051 28.2837 47.7949L30.7726 45.0388L33.9281 46.0388C35.6608 46.5947 37.3274 47.1283 37.6171 47.239C38.2167 47.4829 38.1059 47.7949 39.0165 43.5053C39.4169 41.6384 39.7949 40.0388 39.861 39.9281C39.9281 39.8386 41.55 39.4199 43.4392 39.0134C47.7949 38.0988 47.4829 38.2136 47.239 37.614C47.1283 37.3244 46.5947 35.6577 46.0388 33.925L45.0388 30.7695L47.7949 28.2807C49.3051 26.9057 50.55 25.6831 50.55 25.55C50.55 25.4169 49.3051 24.1943 47.7949 22.8163L45.0388 20.3274L46.0388 17.1719C46.5947 15.4392 47.1283 13.7726 47.239 13.4829C47.4829 12.8833 47.7949 12.9941 43.4392 12.0835C41.55 11.6831 39.9281 11.2614 39.861 11.1689C39.7949 11.0581 39.4169 9.45854 39.0165 7.59167C38.1018 3.30203 38.2167 3.61402 37.6171 3.85793C37.3274 3.9687 35.6608 4.50224 33.9281 5.05813L30.7726 6.05813L28.2837 3.30508C26.9057 1.79492 25.6831 0.55 25.55 0.55C25.4169 0.55 24.1943 1.79492 22.8163 3.30508ZM28.6608 6.37215L30.2167 8.08354L33.3274 7.10589C35.0388 6.55 36.55 6.10589 36.6608 6.10589C36.7949 6.10589 37.1943 7.52866 37.55 9.26138C37.928 10.989 38.3274 12.5053 38.4646 12.6384C38.6018 12.7715 40.1089 13.172 41.8417 13.553C43.5754 13.9087 44.9972 14.2868 44.9972 14.3976C44.9972 14.553 43.3528 19.9311 43.0663 20.6638C43.0165 20.7949 44.1476 21.928 45.5703 23.2126L48.1476 25.5236L47.2817 26.3234C46.8142 26.7461 45.6557 27.7908 44.7258 28.6608L42.9921 30.2167L43.9921 33.3274C44.548 35.0388 44.9921 36.55 44.9921 36.6608C44.9921 36.7949 43.5693 37.1943 41.8366 37.55C40.1089 37.928 38.5927 38.3274 38.4596 38.4646C38.3264 38.6018 37.926 40.1089 37.5449 41.8417C37.1892 43.5754 36.8112 44.9972 36.7004 44.9972C36.5226 44.9972 31.1445 43.3528 30.4565 43.0866C30.3051 43.0165 29.172 44.1476 27.8874 45.5703L25.5764 48.1476L24.7766 47.2817C24.3539 46.8142 23.3091 45.6557 22.4392 44.7258L20.8833 42.9921L17.7726 43.9921C16.0612 44.548 14.55 44.9921 14.4392 44.9921C14.3051 44.9921 13.9057 43.5693 13.55 41.8366C13.172 40.1089 12.7726 38.5927 12.6354 38.4596C12.4982 38.3264 10.9911 37.926 9.25833 37.5449C7.52459 37.1892 6.10793 36.7898 6.10793 36.6557C6.10793 36.5449 6.55203 35.0297 7.10793 33.3224L8.10793 30.2116L6.37215 28.6608C5.43923 27.7949 4.28374 26.7502 3.81626 26.3234L2.95041 25.5236L5.52968 23.2126C6.95244 21.924 8.08557 20.7909 8.04085 20.6567C7.75224 19.924 6.10996 14.5459 6.10996 14.3904C6.10996 14.2797 7.53272 13.9016 9.26545 13.5459C10.9931 13.1679 12.5093 12.7685 12.6425 12.6313C12.7756 12.4941 13.176 10.987 13.5571 9.25427C13.9128 7.52053 14.2909 6.10386 14.4016 6.10386C14.5571 6.10386 19.9352 7.74817 20.6679 8.03476C20.7949 8.08354 21.928 6.95244 23.2126 5.52968L25.5236 2.95244L26.3234 3.81829C26.7502 4.28374 27.8163 5.43923 28.6608 6.37215Z" fill="#2C365A"/>
<path fill-rule="evenodd" clip-rule="evenodd" d="M25.3373 0.0401137C25.3719 0.0268698 25.4493 0 25.55 0C25.6507 0 25.7281 0.0268698 25.7627 0.0401137C25.8037 0.0558763 25.8374 0.0736824 25.8604 0.0868019C25.9062 0.113024 25.9481 0.142937 25.9811 0.167928C26.0491 0.219368 26.127 0.286438 26.2088 0.360517C26.3747 0.510824 26.5913 0.721896 26.8411 0.974463C27.3424 1.48136 27.9979 2.17586 28.69 2.93435L28.6917 2.93624L30.9435 5.42702L33.76 4.53442L33.7619 4.53383L34.01 4.45422C35.6511 3.92778 37.1424 3.44938 37.4152 3.34627C37.4405 3.33587 37.4656 3.32467 37.4947 3.31152L37.5071 3.30588C37.5335 3.2939 37.5672 3.27857 37.5991 3.26518C37.6611 3.23918 37.807 3.17871 37.9818 3.18563C38.203 3.19438 38.379 3.30175 38.5004 3.44382C38.6019 3.56264 38.6665 3.70606 38.7135 3.83142C38.8097 4.08749 38.9074 4.48135 39.0331 5.0445C39.1256 5.45938 39.2378 5.98753 39.379 6.65254C39.433 6.9067 39.4912 7.18086 39.5542 7.47633C39.7538 8.40701 39.9476 9.26982 40.0994 9.91241C40.1754 10.2342 40.2402 10.4979 40.2895 10.6864C40.2962 10.7118 40.3025 10.7356 40.3084 10.7576C40.3199 10.7612 40.3319 10.765 40.3445 10.7689C40.5236 10.824 40.7822 10.8954 41.1037 10.9781C41.7447 11.1428 42.6146 11.3466 43.5529 11.5454C43.8371 11.6048 44.1019 11.66 44.3484 11.7113C45.043 11.856 45.5925 11.9705 46.0226 12.0648C46.5953 12.1903 46.9948 12.288 47.2546 12.3839C47.3818 12.4309 47.5258 12.4949 47.6453 12.5949C47.7873 12.7137 47.8986 12.8882 47.91 13.1113C47.9191 13.2885 47.8584 13.4364 47.8322 13.4994C47.8165 13.5371 47.7982 13.577 47.7856 13.6049C47.7723 13.6343 47.7611 13.6595 47.7507 13.6849C47.6475 13.958 47.169 15.4494 46.6426 17.0905L46.5631 17.3381L46.5625 17.34L45.67 20.1563L48.1657 22.41C48.9241 23.1021 49.6186 23.7576 50.1255 24.2589C50.3781 24.5087 50.5892 24.7253 50.7395 24.8912C50.8136 24.973 50.8806 25.0509 50.9321 25.1189C50.9571 25.1519 50.987 25.1938 51.0132 25.2396C51.0263 25.2626 51.0441 25.2963 51.0599 25.3373C51.0731 25.3719 51.1 25.4493 51.1 25.55C51.1 25.6507 51.0731 25.7281 51.0599 25.7627C51.0441 25.8037 51.0263 25.8374 51.0132 25.8604C50.987 25.9063 50.957 25.9481 50.9321 25.9812C50.8806 26.0491 50.8135 26.1271 50.7394 26.2088C50.5891 26.3747 50.378 26.5912 50.1254 26.8408C49.6184 27.3419 48.9238 27.9966 48.1652 28.6874L45.67 30.9406L46.5625 33.757L46.5631 33.7588L46.6425 34.0061C47.169 35.6474 47.6475 37.139 47.7507 37.4121C47.7611 37.4374 47.7723 37.4626 47.7855 37.4918C47.7981 37.5196 47.8164 37.5595 47.8321 37.5971C47.8582 37.6597 47.9191 37.8077 47.91 37.9852C47.8985 38.209 47.7865 38.3834 47.6444 38.5017C47.5249 38.6013 47.381 38.6649 47.2541 38.7117C46.9946 38.8072 46.5953 38.9047 46.0227 39.0304C45.6045 39.1222 45.0732 39.2334 44.4052 39.373C44.1428 39.4279 43.8594 39.4872 43.5534 39.5514C42.6149 39.7534 41.7448 39.9579 41.1034 40.1224C40.7816 40.2049 40.5226 40.276 40.343 40.3307C40.3307 40.3344 40.319 40.338 40.3078 40.3415C40.3021 40.363 40.296 40.386 40.2895 40.4105C40.2402 40.599 40.1754 40.8628 40.0994 41.1845C39.9477 41.8269 39.754 42.6892 39.5545 43.6195C39.4963 43.8937 39.4422 44.1495 39.3917 44.3881C39.2454 45.0795 39.1299 45.6257 39.0348 46.0523C38.9093 46.6156 38.8114 47.0097 38.7149 47.2661C38.6676 47.3917 38.6026 47.5352 38.5007 47.654C38.3788 47.796 38.2028 47.9026 37.9823 47.9113C37.8077 47.9182 37.662 47.858 37.5996 47.8319C37.5623 47.8163 37.5226 47.7981 37.4949 47.7855C37.4657 47.7723 37.4405 47.7611 37.4151 47.7507C37.142 47.6475 35.6502 47.1689 34.0089 46.6424L33.7619 46.5631L33.76 46.5625L30.9437 45.67L28.6919 48.1635L28.69 48.1656C27.9979 48.9241 27.3424 49.6186 26.8411 50.1255C26.5913 50.3781 26.3747 50.5892 26.2088 50.7395C26.127 50.8136 26.0491 50.8806 25.9811 50.9321C25.9481 50.9571 25.9062 50.987 25.8604 51.0132C25.8374 51.0263 25.8037 51.0441 25.7627 51.0599C25.7281 51.0731 25.6507 51.1 25.55 51.1C25.4493 51.1 25.3719 51.0731 25.3373 51.0599C25.2963 51.0441 25.2626 51.0263 25.2396 51.0132C25.1938 50.987 25.1519 50.9571 25.1189 50.9321C25.0509 50.8806 24.973 50.8136 24.8912 50.7395C24.7254 50.5892 24.509 50.3782 24.2595 50.1258C23.7587 49.6192 23.1045 48.9254 22.4148 48.1684L22.4131 48.1666L20.162 45.6737L16.8108 46.7437C15.5833 47.1333 14.6399 47.41 13.9939 47.5699C13.6743 47.649 13.4085 47.7043 13.2103 47.7279C13.1163 47.7391 13.0037 47.7476 12.8965 47.7357C12.8446 47.7299 12.7564 47.7157 12.663 47.6697C12.5638 47.6208 12.4142 47.5113 12.3548 47.3047C12.3061 47.1354 11.9791 45.6252 11.6098 43.9194L11.5458 43.6237C11.3462 42.693 11.1524 41.8302 11.0006 41.1876C10.9246 40.8658 10.8598 40.6021 10.8105 40.4136C10.8038 40.3881 10.7975 40.3644 10.7916 40.3423C10.78 40.3386 10.7679 40.3349 10.7552 40.331C10.5761 40.2758 10.3174 40.2042 9.99586 40.1215C9.35466 39.9567 8.48471 39.7529 7.54696 39.5546C5.6799 39.1596 3.97902 38.7972 3.7984 38.7452C3.59171 38.6858 3.48211 38.5361 3.43325 38.4368C3.38725 38.3434 3.37308 38.2551 3.36734 38.2032C3.35548 38.096 3.36405 37.9834 3.37529 37.8895C3.39897 37.6914 3.45442 37.4258 3.53357 37.1065C3.69356 36.4612 3.97001 35.52 4.35915 34.2951L5.42938 30.9431L2.93647 28.6919L2.93435 28.69C2.17586 27.9979 1.48136 27.3424 0.974463 26.8411C0.721896 26.5913 0.510824 26.3747 0.360517 26.2088C0.286438 26.127 0.219368 26.0491 0.167928 25.9811C0.142937 25.9481 0.113024 25.9062 0.0868019 25.8604C0.0736824 25.8374 0.0558763 25.8037 0.0401137 25.7627C0.0268698 25.7281 0 25.6507 0 25.55C0 25.4493 0.0268698 25.3719 0.0401137 25.3373C0.0558763 25.2963 0.0736825 25.2626 0.086802 25.2396C0.113024 25.1938 0.142937 25.1519 0.167928 25.1189C0.219368 25.0509 0.286438 24.973 0.360517 24.8912C0.510824 24.7253 0.721896 24.5087 0.974463 24.2589C1.48136 23.7576 2.17586 23.1021 2.93435 22.41L2.93713 22.4075L5.42918 20.1644L4.35939 16.8138C3.96968 15.5861 3.69345 14.6427 3.53384 13.9967C3.45487 13.6771 3.39967 13.4115 3.376 13.2137C3.36477 13.1198 3.35622 13.0078 3.36773 12.9013C3.37329 12.8498 3.38706 12.7621 3.43215 12.6691C3.47972 12.571 3.58829 12.419 3.79654 12.3583C3.89882 12.3285 4.38727 12.2236 5.03982 12.0843C5.22508 12.0447 5.42662 12.0018 5.64113 11.9561C6.20601 11.8357 6.86084 11.6961 7.54508 11.5489C8.4842 11.3468 9.35487 11.1421 9.9966 10.9776C10.3184 10.8951 10.5774 10.824 10.757 10.7693C10.7693 10.7656 10.781 10.762 10.7922 10.7585C10.798 10.737 10.8041 10.714 10.8105 10.6895C10.8598 10.501 10.9246 10.2372 11.0006 9.91546C11.1524 9.27287 11.3462 8.41006 11.5458 7.47937L11.546 7.47832C11.5673 7.37985 11.5885 7.28179 11.6096 7.18438C11.979 5.47825 12.3061 3.96772 12.3548 3.7984C12.4142 3.59171 12.5639 3.48211 12.6632 3.43325C12.7566 3.38725 12.8449 3.37308 12.8968 3.36734C13.004 3.35548 13.1166 3.36405 13.2105 3.37529C13.4086 3.39897 13.6742 3.45442 13.9935 3.53357C14.6388 3.69356 15.58 3.97001 16.8049 4.35915L20.1569 5.42938L22.4081 2.93647L22.41 2.93435C23.1021 2.17586 23.7576 1.48136 24.2589 0.974463C24.5087 0.721896 24.7253 0.510824 24.8912 0.360517C24.973 0.286438 25.0509 0.219368 25.1189 0.167928C25.1519 0.142937 25.1938 0.113024 25.2396 0.086802C25.2626 0.0736825 25.2963 0.0558763 25.3373 0.0401137ZM10.7368 10.9497C10.7339 10.957 10.734 10.9576 10.7368 10.9497V10.9497ZM10.7348 40.148C10.7348 40.148 10.7356 40.15 10.7368 40.1534L10.7348 40.148ZM23.2236 3.67468L23.2225 3.67581L20.7356 6.42979C20.5909 6.59004 20.3658 6.65079 20.1602 6.58512L16.4719 5.40752C15.2528 5.02025 14.3387 4.75247 13.7288 4.60124C13.5657 4.56083 13.4297 4.53006 13.3186 4.50777C13.2748 4.70407 13.2189 4.95846 13.1538 5.25658C13.0181 5.87765 12.8432 6.68544 12.6567 7.54671L12.6213 7.71006C12.4205 8.64608 12.225 9.51676 12.0712 10.1683C11.9943 10.4936 11.9272 10.7672 11.8746 10.9681C11.8484 11.0681 11.8248 11.1542 11.8045 11.2214C11.7945 11.2547 11.784 11.2881 11.7732 11.3184L11.7727 11.3199C11.7659 11.3389 11.7454 11.3967 11.7114 11.4536C11.7015 11.4703 11.6907 11.4864 11.679 11.502C11.6218 11.5782 11.5581 11.6222 11.5353 11.6376C11.5044 11.6584 11.476 11.6736 11.4561 11.6836C11.4161 11.7038 11.3747 11.7207 11.3398 11.734C11.2678 11.7615 11.1775 11.7911 11.0776 11.8216C10.8752 11.8832 10.5981 11.959 10.2698 12.0431C9.61149 12.2119 8.72657 12.4198 7.77647 12.6243C7.09107 12.7718 6.43448 12.9117 5.86931 13.0321C5.65512 13.0778 5.45405 13.1206 5.26953 13.16C4.96602 13.2248 4.70769 13.2802 4.50873 13.3235C4.53096 13.4345 4.56158 13.5703 4.60173 13.7329C4.75257 14.3434 5.01978 15.2585 5.40745 16.4798L6.58512 20.1683C6.65089 20.3743 6.58985 20.5997 6.42913 20.7444L3.67581 23.2225L3.6744 23.2238C2.92328 23.9093 2.24079 24.5536 1.748 25.041C1.54342 25.2434 1.375 25.4152 1.24915 25.55C1.375 25.6848 1.54342 25.8566 1.748 26.059C2.24086 26.5465 2.92346 27.1909 3.67468 27.8764L3.67581 27.8775L6.42979 30.3644C6.59004 30.5091 6.65079 30.7342 6.58512 30.9398L5.40752 34.6281C5.02025 35.8472 4.75247 36.7613 4.60124 37.3713C4.56096 37.5337 4.53026 37.6695 4.50799 37.7803C4.70736 37.8242 4.96671 37.8804 5.27137 37.9458C5.94261 38.0901 6.83062 38.2787 7.77459 38.4784C8.72505 38.6794 9.61069 38.8867 10.2698 39.0562C10.5984 39.1407 10.8761 39.2172 11.0791 39.2797C11.1794 39.3106 11.2702 39.3408 11.3428 39.369C11.3781 39.3828 11.4201 39.4002 11.4608 39.4212C11.4809 39.4316 11.5099 39.4475 11.5411 39.4691C11.5647 39.4855 11.628 39.5307 11.6843 39.6082C11.6939 39.6215 11.703 39.6353 11.7114 39.6494C11.7454 39.7063 11.7659 39.7642 11.7727 39.7832L11.7732 39.7847C11.784 39.815 11.7945 39.8484 11.8045 39.8816C11.8248 39.9488 11.8484 40.035 11.8746 40.1349C11.9272 40.3358 11.9943 40.6094 12.0712 40.9348C12.225 41.5863 12.4204 42.4565 12.6212 43.3925L12.6569 43.5575C12.8433 44.4183 13.0181 45.2257 13.1538 45.8465C13.2189 46.1447 13.2749 46.3992 13.3187 46.5956C13.4299 46.5733 13.5662 46.5426 13.7296 46.5021C14.3402 46.351 15.2554 46.0833 16.4771 45.6955L20.1652 44.5179C20.3709 44.4523 20.596 44.513 20.7407 44.6733L23.2279 47.4276L23.2287 47.4284C23.9117 48.1781 24.5549 48.86 25.0417 49.3525C25.2437 49.5568 25.4154 49.7251 25.55 49.8508C25.6848 49.725 25.8567 49.5566 26.059 49.352C26.5465 48.8591 27.191 48.1765 27.8766 47.4252L27.8775 47.4242L30.3644 44.6702C30.5088 44.5103 30.7333 44.4494 30.9387 44.5145L34.0961 45.5151L34.4367 45.6244C35.9295 46.1032 37.3343 46.5538 37.7439 46.6998C37.7993 46.5112 37.8682 46.2301 37.9611 45.8131C38.0548 45.3927 38.1686 44.855 38.3143 44.1661C38.365 43.9265 38.4195 43.6687 38.4785 43.3911L38.4787 43.3899C38.6795 42.4538 38.8749 41.5833 39.0288 40.9317C39.1057 40.6064 39.1728 40.3328 39.2254 40.1319C39.2516 40.0319 39.2752 39.9458 39.2955 39.8786C39.3055 39.8453 39.316 39.8119 39.3268 39.7816L39.3273 39.7802C39.3341 39.7612 39.3546 39.7033 39.3886 39.6464C39.3985 39.6297 39.4093 39.6136 39.421 39.598C39.4782 39.5218 39.5419 39.4778 39.5647 39.4624C39.5956 39.4416 39.6241 39.4264 39.6439 39.4164C39.6839 39.3962 39.7253 39.3793 39.7602 39.366C39.8322 39.3385 39.9225 39.3089 40.0224 39.2784C40.2248 39.2168 40.5019 39.141 40.8302 39.0569C41.4885 38.8881 42.3734 38.6802 43.3235 38.4757L43.3262 38.4752C43.6369 38.4099 43.9232 38.35 44.1872 38.2948C44.8517 38.1559 45.3745 38.0465 45.7869 37.956C46.2162 37.8618 46.5049 37.7921 46.6981 37.7361C46.5504 37.3205 46.1015 35.9212 45.6246 34.4344L45.5151 34.093L45.5145 34.0912L44.5145 30.9357C44.4494 30.7302 44.5103 30.5057 44.6702 30.3613L47.4246 27.874C48.1761 27.1898 48.8592 26.5457 49.3522 26.0585C49.5566 25.8564 49.725 25.6846 49.8508 25.55C49.725 25.4152 49.5566 25.2433 49.352 25.041C48.8591 24.5535 48.1764 23.909 47.4252 23.2234L47.4242 23.2225L44.6702 20.7356C44.5103 20.5912 44.4494 20.3667 44.5145 20.1613L45.5145 17.0058L45.5151 17.0039L45.6245 16.6629C46.1021 15.1741 46.5515 13.773 46.6986 13.3593C46.5057 13.3032 46.2169 13.2335 45.787 13.1393C45.363 13.0463 44.8219 12.9336 44.1302 12.7895C43.8822 12.7378 43.6149 12.6821 43.3267 12.6219L43.3252 12.6216C42.3744 12.4201 41.4888 12.2128 40.8299 12.0434C40.5014 11.959 40.2238 11.8827 40.0209 11.8202C39.9207 11.7893 39.8299 11.7592 39.7573 11.731C39.722 11.7173 39.68 11.6998 39.6393 11.6788C39.6191 11.6684 39.5902 11.6525 39.559 11.6309C39.5353 11.6145 39.472 11.5693 39.4157 11.4918C39.4061 11.4785 39.397 11.4647 39.3886 11.4506C39.3546 11.3937 39.3341 11.3358 39.3274 11.3168L39.3268 11.3153C39.316 11.285 39.3055 11.2516 39.2955 11.2184C39.2752 11.1512 39.2516 11.065 39.2254 10.9651C39.1728 10.7642 39.1057 10.4906 39.0288 10.1652C38.8749 9.51361 38.6795 8.6432 38.4787 7.70701C38.4148 7.4073 38.3559 7.12995 38.3016 6.87444C38.1611 6.21262 38.0507 5.69297 37.9595 5.28406C37.8665 4.86758 37.7977 4.58646 37.7424 4.39772C37.3309 4.5442 35.9283 4.99413 34.4377 5.47226C34.3242 5.50866 34.2102 5.54523 34.0961 5.58184L34.0942 5.58243L30.9387 6.58243C30.7334 6.6475 30.509 6.58674 30.3646 6.42697L27.8775 3.67581L27.8764 3.6747C27.1909 2.92347 26.5465 2.24086 26.059 1.748C25.8566 1.54342 25.6848 1.375 25.55 1.24915C25.4152 1.375 25.2434 1.54342 25.041 1.748C24.5535 2.24086 23.9091 2.92346 23.2236 3.67468ZM25.5195 2.40245C25.6744 2.40131 25.8225 2.4655 25.9276 2.57925L26.7287 3.44656C26.823 3.54935 26.9489 3.68632 27.0971 3.84747C27.6167 4.41264 28.4095 5.2751 29.0678 6.0023L29.0685 6.00305L30.3871 7.45344L33.1575 6.5828L33.16 6.58198C34.0187 6.3031 34.8276 6.05207 35.4372 5.87035C35.742 5.77951 35.9991 5.70532 36.1888 5.65346C36.2831 5.62766 36.3643 5.60639 36.4279 5.59117C36.4593 5.58366 36.4908 5.57654 36.5197 5.57097C36.5335 5.56831 36.5943 5.55589 36.6608 5.55589C36.904 5.55589 37.0509 5.70502 37.0863 5.74196C37.1404 5.7985 37.1772 5.85741 37.199 5.89509C37.245 5.97461 37.2851 6.0684 37.3195 6.15742C37.3905 6.34167 37.4695 6.59285 37.5517 6.88485C37.7171 7.4724 37.9085 8.27325 38.088 9.14706C38.2756 10.0042 38.4677 10.8051 38.6288 11.4052C38.7098 11.7067 38.7811 11.9507 38.8388 12.1236C38.8519 12.1629 38.8637 12.1967 38.8742 12.2254C38.9039 12.2362 38.9389 12.2483 38.9796 12.2618C39.1529 12.3193 39.3969 12.3906 39.6978 12.4717C40.297 12.633 41.0968 12.826 41.9561 13.0151C42.8285 13.1941 43.6269 13.3796 44.2115 13.5358C44.5023 13.6135 44.7504 13.6865 44.9309 13.7502C45.0182 13.781 45.108 13.8159 45.1833 13.8545C45.2183 13.8724 45.275 13.9034 45.3308 13.9495C45.3588 13.9726 45.404 14.0135 45.4457 14.074C45.4867 14.1334 45.5472 14.2452 45.5472 14.3976C45.5472 14.4704 45.5311 14.5384 45.5305 14.5409C45.5253 14.5656 45.5187 14.5929 45.512 14.6198C45.4982 14.6746 45.4789 14.7458 45.4558 14.829C45.4091 14.9964 45.3428 15.2252 45.2633 15.4949C45.1039 16.0349 44.8888 16.7467 44.665 17.4757C44.2909 18.6941 43.8831 19.9914 43.6731 20.6014C43.7805 20.7278 43.9441 20.9031 44.1575 21.1192C44.6019 21.5694 45.2321 22.1662 45.9387 22.8042L48.5147 25.1141C48.63 25.2175 48.6964 25.3647 48.6975 25.5195C48.6987 25.6744 48.6345 25.8225 48.5208 25.9276L47.6506 26.7313C47.6141 26.7644 47.5733 26.8012 47.5288 26.8415C47.003 27.3167 45.955 28.264 45.1016 29.0624L45.0932 29.0702L43.6248 30.3878L44.5152 33.1575C44.7944 34.0171 45.0457 34.827 45.2276 35.4372C45.3185 35.742 45.3926 35.9991 45.4445 36.1888C45.4703 36.2831 45.4916 36.3643 45.5068 36.4279C45.5143 36.4593 45.5214 36.4908 45.527 36.5197C45.5297 36.5335 45.5421 36.5943 45.5421 36.6608C45.5421 36.904 45.3929 37.0509 45.356 37.0863C45.2995 37.1404 45.2406 37.1772 45.2029 37.199C45.1234 37.245 45.0296 37.2851 44.9405 37.3195C44.7563 37.3905 44.5051 37.4695 44.2131 37.5517C43.6256 37.7171 42.8247 37.9085 41.951 38.088C41.0938 38.2756 40.2929 38.4676 39.6928 38.6288C39.3913 38.7098 39.1472 38.7811 38.9744 38.8388C38.9351 38.8519 38.9013 38.8637 38.8725 38.8742C38.8618 38.9039 38.8496 38.9389 38.8361 38.9796C38.7787 39.1529 38.7073 39.3969 38.6263 39.6978C38.465 40.297 38.2719 41.0968 38.0829 41.9561C37.9038 42.8285 37.7183 43.6269 37.5622 44.2115C37.4845 44.5023 37.4114 44.7504 37.3477 44.9309C37.3169 45.0182 37.282 45.108 37.2435 45.1833C37.2256 45.2183 37.1945 45.275 37.1485 45.3308C37.1254 45.3588 37.0844 45.404 37.0239 45.4457C36.9646 45.4867 36.8528 45.5472 36.7004 45.5472C36.631 45.5472 36.5671 45.533 36.5597 45.5315C36.5502 45.5296 36.5403 45.5275 36.5303 45.5252C36.513 45.5213 36.4951 45.5171 36.4774 45.5128C36.4208 45.4989 36.3479 45.4795 36.2635 45.4563C36.0936 45.4096 35.8628 45.3433 35.5918 45.2639C35.0491 45.1047 34.3364 44.8902 33.6089 44.6677C32.3858 44.2935 31.0897 43.8875 30.5009 43.6862C30.3752 43.7886 30.1996 43.9488 29.9811 44.1621C29.5299 44.6027 28.9341 45.2317 28.2958 45.9387L25.9859 48.5147C25.8825 48.63 25.7353 48.6964 25.5805 48.6975C25.4256 48.6987 25.2775 48.6345 25.1724 48.5208L24.3687 47.6506C24.3356 47.6141 24.2988 47.5733 24.2586 47.5288C23.7834 47.0031 22.8361 45.9551 22.0376 45.1016L22.0298 45.0932L20.7122 43.6248L17.9425 44.5152C17.0829 44.7944 16.273 45.0457 15.6628 45.2276C15.358 45.3185 15.1009 45.3926 14.9112 45.4445C14.8169 45.4703 14.7357 45.4916 14.6721 45.5068C14.6407 45.5143 14.6092 45.5214 14.5803 45.527L14.5782 45.5274C14.5612 45.5307 14.5028 45.5421 14.4392 45.5421C14.196 45.5421 14.0491 45.3929 14.0137 45.356C13.9596 45.2995 13.9228 45.2406 13.901 45.2029C13.855 45.1234 13.8149 45.0296 13.7805 44.9405C13.7095 44.7563 13.6305 44.5051 13.5483 44.2131C13.3829 43.6255 13.1914 42.8246 13.012 41.9508C12.8244 41.0937 12.6323 40.2929 12.4712 39.6928C12.3902 39.3913 12.3189 39.1472 12.2612 38.9744C12.2481 38.9351 12.2363 38.9013 12.2258 38.8725C12.1961 38.8618 12.1611 38.8496 12.1204 38.8361C11.9471 38.7787 11.7031 38.7073 11.4022 38.6263C10.803 38.465 10.0032 38.2719 9.14395 38.0829C8.26955 37.9034 7.46989 37.712 6.88362 37.5466C6.59226 37.4643 6.34172 37.3853 6.15792 37.3142C6.06912 37.2798 5.97549 37.2396 5.89605 37.1935C5.8584 37.1716 5.79956 37.1347 5.74311 37.0804C5.70595 37.0447 5.55793 36.898 5.55793 36.6557C5.55793 36.5922 5.56928 36.5337 5.57258 36.5168L5.57297 36.5148C5.57853 36.4859 5.58564 36.4543 5.59315 36.4229C5.60836 36.3592 5.62963 36.2778 5.65542 36.1834C5.70729 35.9934 5.78149 35.7358 5.87235 35.4307C6.0542 34.8202 6.30546 34.0105 6.58462 33.1531L6.58495 33.1521L7.47492 30.3836L5.99794 29.064C5.29504 28.4116 4.46664 27.6584 3.90034 27.1436C3.71673 26.9767 3.56068 26.8348 3.44541 26.7295L3.44307 26.7274L2.57721 25.9276C2.46344 25.8225 2.39925 25.6743 2.40042 25.5194C2.4016 25.3645 2.46803 25.2173 2.58339 25.1139L5.16046 22.8049L5.16154 22.804C5.86811 22.164 6.49862 21.5663 6.9443 21.1152C7.15959 20.8973 7.32474 20.7206 7.43322 20.5931C7.22213 19.9816 6.81471 18.6851 6.44137 17.4685C6.21768 16.7395 6.00275 16.0277 5.84353 15.4876C5.76401 15.218 5.69782 14.9891 5.65123 14.8218C5.62807 14.7385 5.60885 14.6673 5.59508 14.6125C5.58831 14.5856 5.58176 14.5583 5.57654 14.5336C5.57602 14.5312 5.55996 14.4632 5.55996 14.3904C5.55996 14.238 5.62054 14.1261 5.66152 14.0668C5.70328 14.0063 5.74845 13.9654 5.77648 13.9423C5.83229 13.8962 5.88901 13.8652 5.92399 13.8473C5.99932 13.8088 6.08909 13.7739 6.17645 13.7431C6.35704 13.6794 6.60516 13.6063 6.89603 13.5287C7.48081 13.3725 8.2793 13.187 9.15137 13.0079C10.0084 12.8203 10.8092 12.6283 11.4093 12.4671C11.7107 12.3862 11.9548 12.3148 12.1276 12.2572C12.1669 12.2441 12.2008 12.2323 12.2295 12.2218C12.2403 12.1921 12.2524 12.157 12.2659 12.1163C12.3234 11.9431 12.3947 11.6991 12.4757 11.3981C12.637 10.799 12.8301 9.99917 13.0191 9.13992C13.1982 8.26734 13.3837 7.47013 13.5399 6.88669C13.6176 6.59645 13.6907 6.34899 13.7545 6.16885C13.7853 6.08172 13.8202 5.9921 13.8589 5.91686C13.8768 5.88191 13.908 5.82522 13.9541 5.76945C13.9773 5.74144 14.0183 5.69639 14.0788 5.65479C14.1382 5.61393 14.2498 5.55386 14.4016 5.55386C14.4712 5.55386 14.5365 5.56857 14.5443 5.57032C14.569 5.57555 14.5969 5.58227 14.6239 5.58904C14.6786 5.60283 14.7499 5.62207 14.8331 5.64526C15.0005 5.6919 15.2293 5.75817 15.499 5.83776C16.039 5.99713 16.7508 6.21225 17.4797 6.43606C18.6966 6.8097 19.9923 7.21692 20.6032 7.42713C20.7295 7.3193 20.9042 7.15577 21.1195 6.94293C21.5693 6.49822 22.166 5.86812 22.8039 5.16164L25.1141 2.58526C25.2175 2.46997 25.3647 2.4036 25.5195 2.40245ZM25.5296 3.76955L23.6221 5.89686L23.6208 5.89825C22.9743 6.61432 22.3624 7.26094 21.8929 7.72516C21.6595 7.95591 21.4536 8.14919 21.2927 8.28468C21.2144 8.35069 21.1327 8.41486 21.0562 8.46354C21.0196 8.4868 20.9648 8.51919 20.8995 8.54412L20.8977 8.5448C20.8602 8.55916 20.6795 8.62838 20.4707 8.5482L20.4675 8.54697C20.1257 8.41327 18.6246 7.93825 17.1569 7.48762C16.4303 7.26453 15.7226 7.05066 15.1876 6.89277C15.0101 6.84038 14.8524 6.7944 14.7199 6.75643C14.6848 6.87207 14.6454 7.01092 14.6025 7.17113C14.4533 7.72862 14.2723 8.50513 14.0959 9.3648L14.0943 9.37242C13.9025 10.2445 13.7051 11.0631 13.5379 11.6841C13.4545 11.9937 13.377 12.2605 13.31 12.4625C13.2768 12.5627 13.2435 12.6552 13.2109 12.7323C13.1946 12.7706 13.1755 12.8124 13.1536 12.8527C13.136 12.885 13.0982 12.9514 13.0372 13.0143C12.9727 13.0808 12.9033 13.1214 12.8704 13.1399C12.829 13.163 12.7863 13.183 12.7475 13.1997C12.6695 13.2332 12.5761 13.2672 12.4756 13.3007C12.2727 13.3683 12.0047 13.4462 11.6945 13.5295C11.0721 13.6966 10.2523 13.893 9.38302 14.0832L9.37605 14.0847C8.51675 14.2611 7.73884 14.4421 7.17983 14.5914C7.01859 14.6345 6.87886 14.674 6.76254 14.7092C6.80045 14.8417 6.84633 14.9992 6.89862 15.1766C7.05635 15.7115 7.27003 16.4192 7.49298 17.1458C7.94351 18.614 8.41826 20.1141 8.55259 20.4551C8.55618 20.4643 8.55953 20.4735 8.56263 20.4828C8.62947 20.6833 8.56374 20.8528 8.549 20.8908L8.54853 20.892C8.52367 20.9562 8.49172 21.0104 8.46818 21.0474C8.41921 21.1244 8.35479 21.2065 8.2883 21.2855C8.15202 21.4475 7.95808 21.6542 7.72684 21.8883C7.26167 22.3591 6.61465 22.972 5.89889 23.6203L5.8967 23.6222L3.76769 25.5298L4.18711 25.9172L4.18816 25.9182C4.30097 26.0212 4.45466 26.1609 4.63609 26.3258C5.20125 26.8396 6.03565 27.5981 6.74244 28.2541L8.47437 29.8014C8.63647 29.9463 8.69806 30.173 8.63154 30.3799L7.63154 33.4907L7.6309 33.4926C7.3543 34.3422 7.10569 35.1434 6.92658 35.7447C6.85497 35.9852 6.7949 36.1922 6.74877 36.3568C6.86698 36.3958 7.01214 36.4399 7.18233 36.4879C7.73697 36.6444 8.51103 36.8301 9.36887 37.0061L9.37649 37.0077C10.2485 37.1995 11.0671 37.3969 11.6882 37.5641C11.9977 37.6475 12.2645 37.725 12.4666 37.792C12.5668 37.8252 12.6593 37.8585 12.7363 37.8912C12.7747 37.9074 12.8165 37.9265 12.8568 37.9484C12.8891 37.966 12.9555 38.0038 13.0184 38.0648C13.0849 38.1293 13.1255 38.1987 13.1439 38.2316C13.1671 38.273 13.187 38.3157 13.2037 38.3545C13.2373 38.4325 13.2712 38.5259 13.3048 38.6264C13.3724 38.8293 13.4502 39.0973 13.5335 39.4075C13.7007 40.0299 13.8971 40.8497 14.0873 41.719L14.0888 41.726C14.2648 42.5834 14.4506 43.3589 14.6071 43.9151C14.6553 44.0861 14.6994 44.2321 14.7385 44.3509C14.9027 44.3048 15.109 44.2449 15.3485 44.1735C15.9495 43.9943 16.7509 43.7457 17.6026 43.469L20.715 42.4685C20.9215 42.4021 21.1478 42.4633 21.2927 42.6247L22.8448 44.3543C23.6496 45.2146 24.6012 46.2674 25.0748 46.7914C25.1141 46.8349 25.1502 46.8748 25.1825 46.9106L25.1846 46.9128L25.5704 47.3304L27.4792 45.2017C28.1253 44.486 28.7383 43.8382 29.2126 43.3751C29.4481 43.1452 29.6591 42.9512 29.8277 42.816C29.9096 42.7503 29.9986 42.6844 30.0856 42.6355C30.1278 42.6118 30.1912 42.5795 30.2674 42.558C30.3241 42.542 30.4828 42.5037 30.6614 42.5761C30.9945 42.7037 32.4756 43.1707 33.9306 43.6158C34.6558 43.8376 35.3641 44.0508 35.9013 44.2083C36.0838 44.2618 36.2455 44.3086 36.381 44.347C36.4164 44.2303 36.4561 44.0898 36.4994 43.9276C36.6487 43.3688 36.8298 42.5909 37.0061 41.7311L37.0077 41.7235C37.1995 40.8515 37.3969 40.0329 37.5641 39.4118C37.6475 39.1023 37.725 38.8355 37.792 38.6334C37.8252 38.5332 37.8585 38.4407 37.8912 38.3637C37.9074 38.3253 37.9265 38.2835 37.9484 38.2432C37.966 38.2109 38.0038 38.1445 38.0648 38.0816C38.1293 38.0151 38.1987 37.9745 38.2316 37.9561C38.273 37.9329 38.3157 37.913 38.3545 37.8963C38.4325 37.8627 38.5259 37.8288 38.6264 37.7952C38.8293 37.7276 39.0973 37.6497 39.4075 37.5665C40.0299 37.3993 40.8497 37.2029 41.719 37.0127L41.726 37.0112C42.5834 36.8352 43.3589 36.6494 43.9151 36.4929C44.0861 36.4447 44.2321 36.4006 44.3509 36.3615C44.3048 36.1973 44.2449 35.991 44.1735 35.7514C43.9943 35.1505 43.7457 34.3491 43.469 33.4974L42.4685 30.385C42.4021 30.1785 42.4633 29.9522 42.6247 29.8073L44.3543 28.2552C45.2147 27.4503 46.2677 26.4986 46.7916 26.025C46.835 25.9858 46.8748 25.9498 46.9106 25.9175L46.9128 25.9154L47.3304 25.5296L45.2017 23.6208C44.4857 22.9744 43.839 22.3623 43.3747 21.8921C43.144 21.6584 42.9505 21.4518 42.8148 21.29C42.7488 21.2111 42.6844 21.1286 42.6356 21.051C42.6122 21.0138 42.5799 20.9582 42.5552 20.8921L42.5548 20.891C42.5403 20.8521 42.4739 20.6743 42.5521 20.4685L42.554 20.4635C42.6877 20.1216 43.1628 18.6205 43.6134 17.1528C43.8365 16.4262 44.0504 15.7185 44.2082 15.1835C44.2606 15.0062 44.3065 14.8487 44.3445 14.7162C44.2283 14.681 44.0887 14.6415 43.9276 14.5985C43.3688 14.4493 42.5909 14.2682 41.7311 14.0918L41.7235 14.0903C40.8515 13.8985 40.0329 13.701 39.4118 13.5338C39.1023 13.4505 38.8355 13.3729 38.6334 13.306C38.5332 13.2727 38.4407 13.2394 38.3637 13.2068C38.3253 13.1906 38.2835 13.1715 38.2432 13.1495C38.2109 13.132 38.1445 13.0942 38.0816 13.0331C38.0151 12.9686 37.9745 12.8992 37.9561 12.8663C37.9329 12.825 37.913 12.7822 37.8963 12.7434C37.8627 12.6655 37.8288 12.5721 37.7952 12.4715C37.7276 12.2686 37.6497 12.0007 37.5665 11.6905C37.3993 11.0681 37.2029 10.2483 37.0127 9.37895L37.0112 9.37199C36.8352 8.51452 36.6494 7.73906 36.4929 7.18288C36.4447 7.01182 36.4006 6.8659 36.3615 6.74707C36.1973 6.79316 35.991 6.8531 35.7514 6.92451C35.1505 7.10365 34.3491 7.35231 33.4974 7.62899L33.4923 7.63059L30.3816 8.60823C30.1771 8.6725 29.9539 8.61211 29.8097 8.45352L28.2538 6.74214L28.253 6.74126C27.598 6.01762 26.8098 5.16028 26.2898 4.59466C26.141 4.43281 26.0141 4.29484 25.9187 4.19073L25.5296 3.76955ZM44.4543 14.3134L44.4539 14.3155C44.4558 14.304 44.4568 14.3017 44.4543 14.3134ZM36.7779 44.4534L36.7761 44.453C36.7859 44.4546 36.7878 44.4554 36.7779 44.4534ZM6.65281 14.3064C6.65036 14.2948 6.65134 14.2971 6.65326 14.3085L6.65281 14.3064ZM6.42596 14.8261C6.42338 14.8275 6.42288 14.8277 6.42497 14.8266L6.42596 14.8261ZM14.8369 6.42039L14.838 6.41815L14.8374 6.41938M14.3195 6.64714C14.3081 6.64522 14.3058 6.64423 14.3174 6.64669L14.3195 6.64714Z" fill="#2C365A"/>
<path d="M25.2415 19.1063L23.9791 21.6018L22.4134 21.8321C21.5581 21.9579 20.3378 22.1258 19.6733 22.1892C19.0098 22.2727 18.4745 22.3811 18.4745 22.4618C18.4745 22.5251 19.3553 23.4485 20.4219 24.4975L22.3938 26.4315L21.9231 28.9923C21.6657 30.4196 21.516 31.6155 21.5591 31.6798C21.6227 31.7211 22.7569 31.1999 24.0838 30.504L26.5039 29.2649L28.922 30.5031C30.249 31.196 31.3832 31.7201 31.4468 31.6788C31.4899 31.6155 31.3401 30.4196 31.0828 28.9914L30.614 26.4315L32.626 24.4582C33.7172 23.388 34.5734 22.4647 34.5088 22.4224C34.4658 22.3811 33.2249 22.1709 31.7482 21.9819C30.2725 21.7726 29.0737 21.6047 29.0522 21.5835C29.0307 21.5624 28.4533 20.4318 27.7467 19.065L26.5039 16.5877L25.2415 19.1063ZM28.4709 23.1989C28.7919 23.2623 29.4974 23.3669 30.0112 23.4513L30.9311 23.5771L29.84 24.6684L28.7547 25.7386L29.0541 27.2743C29.2039 28.092 29.3115 28.785 29.2499 28.785C29.1882 28.785 28.5433 28.4491 27.8162 28.0507L26.5039 27.3338L25.22 28.0488C24.5134 28.4471 23.8715 28.7831 23.8079 28.7831C23.7218 28.7831 23.8079 28.0901 23.9576 27.2723L24.2571 25.7366L23.1659 24.6665L22.0748 23.5752L22.9947 23.4494C25.1554 23.1135 25.0918 23.1557 25.8189 21.7285L26.5039 20.3847L27.1889 21.7285C27.7448 22.8006 28.0021 23.0943 28.4729 23.1989H28.4709Z" fill="#2C365A"/>
<path fill-rule="evenodd" clip-rule="evenodd" d="M26.5038 16.0877C26.693 16.0877 26.866 16.1944 26.9508 16.3635L28.1923 18.8381C28.4206 19.2797 28.6357 19.6972 28.8226 20.0601C28.9245 20.2578 29.018 20.4393 29.1007 20.5996C29.2165 20.8242 29.311 21.0068 29.3783 21.1354C29.512 21.1564 29.6982 21.1841 29.9268 21.2174C30.3222 21.2748 30.8378 21.3479 31.4143 21.4296C31.545 21.4481 31.6788 21.467 31.8151 21.4863C32.5573 21.5814 33.241 21.6819 33.7464 21.7641C33.999 21.8051 34.2101 21.8422 34.363 21.8721C34.4386 21.8869 34.5054 21.901 34.5578 21.9139C34.5831 21.9201 34.613 21.9279 34.642 21.9374C34.656 21.9419 34.6782 21.9496 34.7033 21.9607L34.7046 21.9612C34.7143 21.9654 34.7519 21.9819 34.7967 22.0136C34.9512 22.1219 35.002 22.281 35.0106 22.3892C35.0183 22.4855 34.9968 22.5608 34.9865 22.5929C34.9645 22.6616 34.932 22.7159 34.9167 22.7407C34.8802 22.7999 34.8315 22.8636 34.7843 22.922C34.6854 23.0445 34.5413 23.207 34.3678 23.3945C34.0183 23.772 33.5255 24.2763 32.9761 24.8151L31.1537 26.6026L31.5748 28.9027C31.7047 29.6233 31.8078 30.2871 31.8731 30.7813C31.9057 31.0276 31.9296 31.2366 31.9425 31.3913C31.9489 31.4674 31.9534 31.5387 31.9541 31.598C31.9544 31.6265 31.954 31.6634 31.9504 31.7016C31.9486 31.7204 31.9451 31.7496 31.9372 31.7832C31.9317 31.807 31.9136 31.8815 31.8603 31.9599C31.8229 32.015 31.7748 32.062 31.719 32.0983C31.6067 32.1711 31.498 32.1787 31.4621 32.1805C31.4142 32.1828 31.3745 32.1783 31.3515 32.175C31.3044 32.1682 31.2618 32.1566 31.2327 32.1481C31.1711 32.1299 31.0998 32.1035 31.0271 32.0745C30.8784 32.0153 30.6794 31.9275 30.4475 31.8197C29.982 31.6035 29.3603 31.296 28.6924 30.9472L26.5039 29.8266L24.3138 30.948C23.6456 31.2984 23.0238 31.6059 22.5581 31.8219C22.326 31.9295 22.127 32.0171 21.9781 32.0761C21.9053 32.105 21.834 32.1313 21.7723 32.1494C21.7433 32.1579 21.7006 32.1694 21.6535 32.1761C21.6305 32.1793 21.5909 32.1838 21.5431 32.1814C21.5073 32.1796 21.3989 32.1719 21.2869 32.0992C21.2301 32.0623 21.1813 32.0143 21.1436 31.958C21.0917 31.8804 21.074 31.8072 21.0685 31.7834C21.0608 31.75 21.0573 31.721 21.0555 31.7022C21.0519 31.6641 21.0515 31.6272 21.0518 31.5987C21.0525 31.5393 21.057 31.468 21.0633 31.3918C21.0763 31.2369 21.1002 31.0279 21.1327 30.7816C21.1981 30.2874 21.3012 29.6238 21.431 28.9036L21.4313 28.9019L21.854 26.6025L20.0718 24.8545C19.5357 24.3272 19.0446 23.8299 18.6868 23.4555C18.5084 23.2688 18.36 23.1095 18.2548 22.9909C18.2029 22.9324 18.1565 22.8782 18.121 22.833C18.1041 22.8114 18.0828 22.7832 18.0634 22.7528C18.0541 22.7382 18.0388 22.7132 18.0241 22.6818C18.0239 22.6814 18.0237 22.6809 18.0234 22.6804C18.0148 22.6621 17.9745 22.5766 17.9745 22.4618C17.9745 22.3121 18.0375 22.2017 18.0862 22.1392C18.1337 22.0782 18.1852 22.039 18.2175 22.017C18.2818 21.9732 18.3482 21.9456 18.3923 21.929C18.4867 21.8934 18.6021 21.8636 18.7178 21.8382C18.9555 21.786 19.2719 21.7358 19.6109 21.6931L19.6259 21.6914C20.276 21.6295 21.4846 21.4633 22.3406 21.3375C22.3406 21.3375 22.3406 21.3375 22.3406 21.3375L23.65 21.1448L24.7945 18.8822L24.7954 18.8806L26.0569 16.3637C26.1417 16.1946 26.3146 16.0878 26.5038 16.0877ZM26.5041 17.7032L25.6877 19.332L24.4253 21.8275C24.3519 21.9725 24.2127 22.0728 24.0519 22.0965L22.4862 22.3268C21.6348 22.452 20.4087 22.6209 19.7284 22.6862C19.6057 22.7017 19.4891 22.7179 19.3809 22.7344C19.3904 22.7443 19.4 22.7544 19.4097 22.7645C19.7588 23.1299 20.2419 23.6192 20.7724 24.1409C20.7724 24.1409 20.7725 24.141 20.7724 24.1409L22.7439 26.0746C22.8625 26.1909 22.9156 26.3585 22.8856 26.5219L22.4152 29.081C22.4151 29.0813 22.4152 29.0808 22.4152 29.081C22.2877 29.7878 22.1871 30.4363 22.1241 30.9127C22.1237 30.9156 22.1233 30.9185 22.123 30.9214C22.1277 30.9192 22.1325 30.917 22.1373 30.9147C22.5858 30.7067 23.1937 30.4062 23.8516 30.0612L23.856 30.0589L26.276 28.8198C26.4191 28.7466 26.5887 28.7466 26.7318 28.8199L29.1499 30.058L29.1535 30.0599C29.8118 30.4037 30.42 30.7043 30.8688 30.9128C30.8735 30.915 30.8781 30.9171 30.8827 30.9192C30.8824 30.917 30.8821 30.9147 30.8818 30.9125C30.8187 30.4359 30.7182 29.7878 30.5908 29.0804C30.5907 29.0803 30.5908 29.0806 30.5908 29.0804L30.1222 26.5216C30.0923 26.3583 30.1454 26.1908 30.2639 26.0746L32.2759 24.1012C32.799 23.5882 33.2653 23.1115 33.5986 22.7532C33.5944 22.7525 33.5901 22.7518 33.5859 22.7511C33.0917 22.6707 32.4179 22.5717 31.6847 22.4778L31.678 22.477C31.5411 22.4575 31.4065 22.4384 31.2749 22.4198C30.6983 22.3381 30.1803 22.2647 29.7829 22.207C29.5392 22.1715 29.3385 22.1416 29.1966 22.1191C29.1263 22.1079 29.0666 22.098 29.0222 22.0897C29.0009 22.0857 28.9769 22.081 28.9547 22.0758C28.9447 22.0734 28.9261 22.0689 28.9051 22.0621C28.895 22.0589 28.8754 22.0523 28.8519 22.042C28.8516 22.0418 28.8512 22.0416 28.8507 22.0414C28.8381 22.036 28.7685 22.0057 28.7021 21.9405C28.6673 21.9064 28.6446 21.8736 28.6411 21.8685C28.6336 21.8577 28.6274 21.848 28.6242 21.8428C28.6175 21.8321 28.6116 21.8219 28.6076 21.8148C28.599 21.7998 28.5891 21.7818 28.5789 21.7629C28.5581 21.7243 28.5298 21.6707 28.4955 21.6051C28.4265 21.4734 28.3297 21.2862 28.212 21.0582C28.1288 20.8968 28.035 20.7149 27.9331 20.5169C27.746 20.1538 27.5312 19.7369 27.3026 19.2946L27.2998 19.2892L26.5041 17.7032ZM26.5039 19.8847C26.6919 19.8847 26.864 19.9902 26.9494 20.1577L27.6328 21.4983C27.6331 21.4988 27.6333 21.4993 27.6336 21.4998C27.9117 22.0362 28.0909 22.3276 28.2394 22.4975C28.3627 22.6387 28.4512 22.6819 28.5813 22.7108C28.5834 22.7113 28.5855 22.7118 28.5876 22.7122C28.7927 22.7519 29.1398 22.8066 29.4998 22.8633C29.6984 22.8946 29.9009 22.9265 30.0856 22.9569L30.9988 23.0817C31.187 23.1074 31.3443 23.2375 31.4049 23.4175C31.4655 23.5975 31.419 23.7963 31.2847 23.9306L30.191 25.0244L29.2968 25.9062L29.546 27.1842C29.6212 27.5948 29.6871 27.9813 29.7266 28.2681C29.746 28.409 29.7609 28.5391 29.7658 28.6398C29.768 28.6854 29.7697 28.7518 29.7611 28.8179C29.7575 28.8456 29.7473 28.9171 29.7092 28.9954C29.6749 29.0662 29.5405 29.285 29.2499 29.285C29.1674 29.285 29.1001 29.2639 29.0857 29.2594C29.0851 29.2592 29.0846 29.259 29.0841 29.2589C29.0578 29.2508 29.0336 29.2416 29.015 29.2341C28.9768 29.2189 28.9336 29.1995 28.8899 29.179C28.8011 29.1374 28.6856 29.0797 28.5537 29.0118C28.2887 28.8753 27.9417 28.6896 27.5762 28.4894C27.5761 28.4893 27.5763 28.4894 27.5762 28.4894L26.5062 27.9048L25.4655 28.4844C25.4651 28.4846 25.4647 28.4848 25.4643 28.4851C25.1081 28.6859 24.7664 28.8719 24.5039 29.0087C24.3731 29.0769 24.2579 29.1349 24.1689 29.1768C24.1251 29.1974 24.0816 29.217 24.0428 29.2324C24.0239 29.2399 23.9993 29.2492 23.9726 29.2574L23.971 29.2579C23.9559 29.2625 23.8895 29.2831 23.8079 29.2831C23.6067 29.2831 23.4684 29.1721 23.3976 29.0802C23.3363 29.0005 23.3114 28.9211 23.301 28.8831C23.279 28.8022 23.2751 28.7226 23.274 28.6729C23.2716 28.5622 23.2818 28.4242 23.2971 28.2812C23.3285 27.9879 23.3899 27.5965 23.4658 27.1823L23.4668 27.1766L23.7148 25.9051L22.8123 25.02L21.7212 23.9287C21.5869 23.7944 21.5403 23.5956 21.6009 23.4156C21.6615 23.2356 21.8189 23.1055 22.0071 23.0798L22.9224 22.9546C22.9714 22.947 23.0192 22.9396 23.0656 22.9324C23.5363 22.8594 23.8764 22.8066 24.1415 22.7504C24.4331 22.6886 24.5846 22.6318 24.6846 22.571C24.7729 22.5173 24.8507 22.4425 24.9543 22.2816C25.0591 22.1188 25.1686 21.9037 25.3347 21.5774C25.3473 21.5527 25.3602 21.5275 25.3734 21.5015L26.0585 20.1577C26.1438 19.9902 26.3159 19.8847 26.5039 19.8847ZM28.3381 23.681C28.0096 23.6031 27.7415 23.4476 27.4863 23.1555C27.2496 22.8845 27.0223 22.4934 26.745 21.9586L26.7435 21.9556L26.5039 21.4856L26.2644 21.9554C26.2644 21.9555 26.2644 21.9554 26.2644 21.9554C26.2484 21.9869 26.2325 22.0181 26.2169 22.0488C26.0622 22.353 25.929 22.615 25.7951 22.8229C25.6386 23.066 25.461 23.2692 25.2042 23.4254C24.9591 23.5744 24.676 23.6593 24.349 23.7286C24.0551 23.791 23.6857 23.8482 23.2267 23.9194C23.198 23.9238 23.1689 23.9283 23.1395 23.9329L23.5178 24.3112L24.6072 25.3797C24.7271 25.4973 24.78 25.6674 24.7478 25.8323L24.4489 27.3652C24.4101 27.5773 24.3761 27.7785 24.3486 27.9589C24.5394 27.856 24.7534 27.7379 24.9744 27.6133L24.9767 27.612L26.2606 26.8969C26.4106 26.8134 26.593 26.8127 26.7436 26.895L28.0559 27.612C28.2707 27.7296 28.478 27.8416 28.6639 27.9405C28.6344 27.7645 28.6001 27.5706 28.5628 27.3671L28.2639 25.8343C28.2319 25.6698 28.2843 25.5002 28.4036 25.3825L29.4864 24.3148L29.4889 24.3124L29.8668 23.9344C29.7164 23.9099 29.5483 23.8834 29.3783 23.8566C28.9913 23.7955 28.5943 23.7329 28.3741 23.6894C28.3619 23.687 28.3499 23.6842 28.3381 23.681ZM24.2744 28.6645C24.2744 28.6646 24.2743 28.6637 24.2742 28.6616L24.2744 28.6645Z" fill="#2C365A"/>
</svg>
