<svg width="50" height="52" viewBox="0 0 50 52" fill="none" xmlns="http://www.w3.org/2000/svg">
<path d="M39.0374 17.4143C38.6831 15.2826 37.8277 13.2648 36.5411 11.526C35.2546 9.7871 33.5734 8.37653 31.6351 7.40966C29.434 6.30325 26.9662 5.83316 24.511 6.05259C19.2052 6.50825 14.7837 9.82662 12.866 14.8091C12.4884 15.7898 12.1705 17.2459 12.0612 18.5039C11.9618 19.6926 11.9718 19.7718 12.1705 20.1879C12.2931 20.4784 12.5249 20.7096 12.8163 20.8317C14.594 21.6757 15.0519 18.5189 15.0519 17.9492C15.0519 17.6917 15.3997 16.3643 15.6183 15.7997C16.1618 14.3852 16.9984 13.1009 18.0736 12.0307C19.1488 10.9605 20.4384 10.1284 21.8581 9.58889C23.8642 8.86221 26.0386 8.73145 28.1178 9.21248C31.8636 10.1139 34.8742 13.036 35.9076 16.7605C36.0614 17.4124 36.1677 18.0745 36.2255 18.7417C36.3646 20.2275 36.5236 20.5643 37.1893 20.8516C37.9047 21.1685 38.7095 20.8912 39.0275 20.2077C39.2361 19.7847 39.2361 18.5733 39.0374 17.4143Z" fill="#2C365A"/>
<path d="M23.3915 0.0527335C17.4185 0.678701 12.4062 3.70918 9.11757 8.66724C6.79273 12.1945 5.71004 16.4769 6.06664 20.7991C6.50249 26.095 9.26615 31.1226 13.5355 34.3717C14.6944 35.2659 16.4378 36.2694 17.6661 36.7762L18.0326 36.9351C19.4887 37.2881 21.0142 38.2238 21.0142 36.963C21.0142 36.3767 20.9746 35.7408 20.9151 35.562C20.7666 35.0354 20.3604 34.6876 19.4887 34.3498C14.0605 32.2533 10.3459 27.8715 9.20672 22.2179C9.00861 21.2542 8.97889 20.7971 8.97889 19.0583C8.97889 17.3195 9.01851 16.8624 9.20672 15.9781C10.6926 9.07263 16.0416 4.02514 22.8864 3.06135C23.9661 2.91231 26.1948 2.91231 27.2646 3.06135C34.0797 4.02514 39.4683 9.10244 40.9245 15.9285C41.2315 17.3394 41.3009 19.8134 41.083 21.3436C40.5382 25.0795 38.8938 28.259 36.0311 31.0809C35.2783 31.8161 35.1099 32.2235 35.2783 32.8594C35.407 33.3363 35.9221 33.8133 36.4075 33.9027C36.9721 34.012 37.5268 33.694 38.5174 32.7004C41.3603 29.8587 43.1829 26.3314 43.9061 22.2378C44.1933 20.658 44.2131 17.866 43.9556 16.3259C43.2523 12.0534 41.499 8.5957 38.557 5.64471C35.417 2.50494 31.7123 0.68665 27.3736 0.14017C26.2642 0.00106631 24.3029 -0.0466264 23.3915 0.0527335Z" fill="#2C365A"/>
<path fill-rule="evenodd" clip-rule="evenodd" d="M15.3345 33.2392C15.75 32.9607 16.2771 32.9077 16.7398 33.0979L21.3877 35.0082L25.446 35.9682H29.2898C29.4211 35.9682 29.5517 35.9854 29.6785 36.0194L34.3548 37.2738C35.0104 37.4496 35.4662 38.0438 35.4662 38.7226V50C35.4662 50.5269 35.1897 51.0152 34.7378 51.2863C34.2859 51.5574 33.7249 51.5714 33.26 51.3234L25.2552 47.0523L16.8508 51.3364C16.3858 51.5734 15.831 51.5517 15.3859 51.279C14.9409 51.0063 14.6695 50.5219 14.6695 50V34.4853C14.6695 33.985 14.9189 33.5177 15.3345 33.2392ZM17.6695 36.7235V47.5517L24.5898 44.0242C25.0266 43.8015 25.5446 43.8064 25.9771 44.0372L32.4662 47.4995V39.8732L29.0922 38.9682H25.271C25.1547 38.9682 25.0389 38.9547 24.9257 38.9279L20.5818 37.9004C20.5051 37.8822 20.4299 37.858 20.3569 37.8281L17.6695 36.7235Z" fill="#2C365A"/>
<path d="M20.6818 19.8856C20.5806 19.7906 20.4626 19.7152 20.3338 19.6634C20.193 19.5998 20.0402 19.5669 19.8857 19.5669C19.7312 19.5669 19.5785 19.5998 19.4377 19.6634C19.2942 19.7216 19.1634 19.8071 19.0526 19.9152C18.9453 20.0267 18.8599 20.1573 18.8008 20.3003C18.7416 20.4409 18.7113 20.5921 18.7119 20.7446C18.7113 20.8996 18.7416 21.0532 18.8008 21.1964C18.8618 21.3384 18.947 21.4687 19.0526 21.5815L23.3479 25.8694C23.453 25.9723 23.5759 26.0551 23.7108 26.1138C23.8443 26.1699 23.9881 26.1977 24.1329 26.1952C24.2801 26.1976 24.4263 26.1699 24.5624 26.1138C24.695 26.055 24.8156 25.9722 24.9179 25.8694L32.1829 18.5452C32.286 18.4418 32.3667 18.3183 32.4199 18.1823C32.479 18.0494 32.5093 17.9056 32.5087 17.7602C32.5086 17.6124 32.4783 17.4663 32.4199 17.3306C32.3666 17.1969 32.2859 17.0758 32.1829 16.9752L32.094 16.8789C31.8826 16.6739 31.5997 16.5593 31.3053 16.5593C31.0109 16.5593 30.728 16.6739 30.5166 16.8789L24.0959 23.2996L20.6818 19.8856Z" fill="#2C365A"/>
</svg>
