<svg width="50" height="50" viewBox="0 0 50 50" fill="none" xmlns="http://www.w3.org/2000/svg">
<path d="M11.2495 32.3189C11.605 34.4577 12.4633 36.4822 13.7541 38.2268C15.045 39.9715 16.7317 41.3867 18.6764 42.3568C20.8848 43.4669 23.3608 43.9385 25.8242 43.7184C31.1476 43.2612 35.5838 39.9318 37.5078 34.9328C37.8867 33.9488 38.2057 32.4879 38.3153 31.2257C38.415 30.0331 38.4051 29.9536 38.2057 29.5361C38.0827 29.2446 37.8501 29.0127 37.5577 28.8901C35.7741 28.0434 35.3147 31.2107 35.3147 31.7822C35.3147 32.0406 34.9658 33.3724 34.7464 33.9389C34.2012 35.3581 33.3617 36.6467 32.2829 37.7204C31.2042 38.7942 29.9103 39.629 28.4859 40.1703C26.4732 40.8994 24.2915 41.0306 22.2054 40.548C18.4471 39.6436 15.4265 36.7117 14.3898 32.9749C14.2354 32.3209 14.1288 31.6566 14.0708 30.9872C13.9312 29.4964 13.7717 29.1585 13.1038 28.8703C12.386 28.5522 11.5785 28.8305 11.2595 29.5163C11.0501 29.9406 11.0501 31.1561 11.2495 32.3189Z" fill="#2C365A"/>
<path d="M41.7162 36.9131C41.507 36.8694 41.289 36.9008 41.1006 37.0017C40.9122 37.1027 40.7654 37.2667 40.6858 37.4651C38.4597 42.9668 31.1355 47.0175 25.1685 47.0175C18.0426 47.0175 8.97851 41.2379 8.97851 34.1129V10.2199C8.97829 10.0227 9.04254 9.83091 9.16145 9.67367C9.28037 9.51643 9.44744 9.40239 9.63719 9.34892L24.9243 3.01339C25.0842 2.96757 25.2537 2.96757 25.4136 3.01339L40.7008 9.34892C40.8905 9.40239 41.0576 9.51643 41.1765 9.67367C41.2954 9.83091 41.3597 10.0227 41.3595 10.2199V31.4095C41.3606 31.6378 41.4476 31.8574 41.6032 32.0245C41.7589 32.1916 41.9718 32.294 42.1995 32.3113H42.2075C42.5672 32.3422 42.9229 32.393 43.2777 32.4548C43.4074 32.4778 43.5405 32.4721 43.6678 32.4381C43.7951 32.4042 43.9134 32.3428 44.0144 32.2583C44.1154 32.1738 44.1967 32.0682 44.2526 31.9489C44.3085 31.8297 44.3377 31.6996 44.338 31.5679V7.98871C44.3366 7.79182 44.2711 7.60074 44.1513 7.44446C44.0316 7.28818 43.8641 7.17523 43.6743 7.12276L25.4096 0.0328907C25.2522 -0.0109636 25.0858 -0.0109636 24.9283 0.0328907L6.66366 7.12276C6.47372 7.17494 6.30605 7.2878 6.18623 7.44415C6.06641 7.60049 6.00101 7.79173 6 7.98871V34.1129C6 42.8851 16.3964 50 25.1685 50C32.4498 50 40.8463 45.1022 43.4929 38.4218C43.5391 38.3045 43.5604 38.179 43.5554 38.0531C43.5503 37.9272 43.5191 37.8037 43.4637 37.6905C43.4083 37.5774 43.3299 37.477 43.2335 37.3958C43.1372 37.3146 43.0249 37.2544 42.904 37.219C42.5114 37.0994 42.1158 36.9958 41.7162 36.9131Z" fill="#2C365A"/>
<path d="M19.4236 20.3799C19.2499 20.2079 19.0366 20.0811 18.8025 20.0107C18.5684 19.9403 18.3206 19.9283 18.0808 19.9759C17.841 20.0235 17.6165 20.1292 17.4271 20.2837C17.2376 20.4383 17.089 20.6369 16.9942 20.8622C16.881 21.1342 16.8513 21.4338 16.909 21.7227C16.9667 22.0116 17.1091 22.2768 17.318 22.4845L22.7569 27.9234C22.8874 28.0549 23.0426 28.1592 23.2136 28.2304C23.3847 28.3016 23.5681 28.3383 23.7533 28.3383C23.9386 28.3383 24.122 28.3016 24.2931 28.2304C24.4641 28.1592 24.6193 28.0549 24.7498 27.9234L33.9933 18.6799C34.1248 18.5494 34.2291 18.3942 34.3003 18.2231C34.3715 18.0521 34.4082 17.8687 34.4082 17.6834C34.4082 17.4982 34.3715 17.3148 34.3003 17.1437C34.2291 16.9727 34.1248 16.8175 33.9933 16.6869L33.8777 16.5714C33.7469 16.4406 33.5919 16.3367 33.4213 16.2654C33.0766 16.1233 32.6897 16.1233 32.3451 16.2654C32.1745 16.3367 32.0194 16.4406 31.8887 16.5714L23.7494 24.7087L19.4236 20.3799Z" fill="#2C365A"/>
</svg>
