<svg width="50" height="50" viewBox="0 0 50 50" fill="none" xmlns="http://www.w3.org/2000/svg">
<path d="M23.1015 0.051854C17.228 0.667382 12.2994 3.64732 9.06558 8.52269C6.7795 11.9911 5.71488 16.2021 6.06553 20.4522C6.49411 25.6598 9.21168 30.6035 13.4098 33.7984C14.5494 34.6777 16.2637 35.6645 17.4715 36.1628L17.8319 36.3192L17.8612 40.5204C17.8904 44.5848 17.9001 44.7216 18.0949 44.9854C18.4748 45.4935 18.7768 45.6498 19.4878 45.6889L20.1599 45.7279L20.1989 47.3596C20.2378 49.1964 20.306 49.4309 20.9684 49.8022C21.3287 50.0073 21.4164 50.0171 24.8743 49.9878C28.2347 49.9585 28.4198 49.9487 28.673 49.7631C29.2185 49.3527 29.2867 49.1182 29.3159 47.3596L29.3548 45.7279L30.0269 45.6889C30.738 45.6498 31.0399 45.4935 31.4198 44.9854C31.6244 44.7216 31.6244 44.6141 31.6244 39.7974C31.6244 34.9611 31.6244 34.8732 31.4198 34.5996C30.9036 33.8961 30.2023 33.7105 29.5204 34.1013C28.9068 34.4433 28.7509 34.8927 28.7509 36.2605V37.4037H20.7638V36.3465C20.7638 35.7701 20.7248 35.1448 20.6664 34.9689C20.5203 34.4511 20.1209 34.1091 19.2638 33.7769C13.926 31.7154 10.2734 27.4067 9.15324 21.8474C8.95843 20.8997 8.92921 20.4503 8.92921 18.7405C8.92921 17.0307 8.96817 16.5812 9.15324 15.7117C10.6143 8.92132 15.8741 3.95801 22.6047 3.0103C23.6664 2.86374 25.858 2.86374 26.91 3.0103C33.6114 3.95801 38.9102 8.95063 40.342 15.6628C40.644 17.0502 40.7122 19.483 40.4979 20.9876C39.9621 24.6613 38.3452 27.7877 35.5303 30.5625C34.79 31.2855 34.6244 31.6861 34.79 32.3114C34.9166 32.7804 35.4231 33.2493 35.9004 33.3373C36.4556 33.4447 37.0011 33.1321 37.9751 32.1551C40.7706 29.3608 42.5628 25.8923 43.2739 21.8669C43.5564 20.3135 43.5758 17.568 43.3226 16.0536C42.631 11.8524 40.907 8.45235 38.0141 5.55057C34.9264 2.46316 31.2834 0.675198 27.0171 0.137833C25.9262 0.00104854 23.9976 -0.0458488 23.1015 0.051854ZM28.7607 42.8262L28.1081 42.8457C27.3386 42.875 26.949 43.0704 26.6567 43.5589C26.4912 43.8618 26.4619 44.1061 26.423 45.5423L26.3938 47.1739H23.121L23.0918 45.5325C23.0528 44.1061 23.0236 43.8618 22.858 43.5589C22.5658 43.0704 22.1567 42.8652 21.3969 42.8457L20.7541 42.8262V41.5756C20.7541 40.8916 20.7541 40.3152 20.7638 40.2859C20.7735 40.2566 22.5658 40.2468 24.7671 40.2566L28.7607 40.2859V42.8262Z" fill="#2C365A"/>
<path d="M22.6633 6.09968C20.5672 6.44807 18.5831 7.28923 16.8732 8.55434C15.1633 9.81945 13.7763 11.4726 12.8255 13.3785C11.7376 15.5429 11.2753 17.9696 11.4911 20.3838C11.9392 25.6012 15.2022 29.9489 20.1016 31.8346C21.0659 32.2059 22.4978 32.5185 23.7348 32.626C24.9036 32.7237 24.9816 32.7139 25.3907 32.5185C25.6764 32.398 25.9036 32.17 26.0238 31.8835C26.8536 30.1354 23.7495 29.6851 23.1893 29.6851C22.9361 29.6851 21.6309 29.3432 21.0757 29.1282C19.6848 28.5938 18.4219 27.7711 17.3695 26.7139C16.3172 25.6566 15.499 24.3885 14.9684 22.9925C14.2539 21.0199 14.1253 18.8817 14.5983 16.8372C15.4847 13.1538 18.3581 10.1934 22.0205 9.17732C22.6615 9.02602 23.3125 8.92153 23.9686 8.86467C25.4296 8.72788 25.7608 8.57156 26.0433 7.91695C26.355 7.21349 26.0822 6.4221 25.4101 6.10945C24.9942 5.90427 23.803 5.90427 22.6633 6.09968Z" fill="#2C365A"/>
</svg>
