<svg width="50" height="50" viewBox="0 0 50 50" fill="none" xmlns="http://www.w3.org/2000/svg">
<path d="M38.3575 0.636772C37.3471 0.848034 36.2081 1.48182 35.3172 2.3085C34.3343 3.23621 34.0037 3.79651 34.0037 4.57726C34.0128 4.94467 34.0771 5.28453 34.2241 5.60601C34.3435 5.89076 34.4078 6.1755 34.3803 6.29491C34.3435 6.41432 33.9945 6.82766 33.5903 7.23181L32.8647 7.95745L32.2309 7.4247C31.3307 6.66232 30.7704 6.41432 29.907 6.41432C29.0528 6.4235 28.3731 6.71743 27.7944 7.34203C27.2249 7.95745 27.0228 8.48101 27.0228 9.30769C27.0228 10.2538 27.326 10.9059 28.0975 11.6224L28.6578 12.1551L28.2537 12.5685C28.0332 12.7981 27.822 12.9818 27.7852 12.9818C27.7485 12.9818 27.4545 12.7522 27.1331 12.4766C26.2972 11.7693 25.7093 11.5122 24.8919 11.5122C24.5336 11.5122 24.056 11.5765 23.8172 11.6591C23.2569 11.8428 22.522 12.5134 22.2097 13.1104C21.9985 13.5145 21.9617 13.6891 21.9617 14.4055C21.9617 15.122 21.9985 15.2965 22.2097 15.6915C22.3383 15.9395 22.7058 16.3987 23.0181 16.6927L23.5784 17.2346L22.7149 18.1164L22.0628 17.5836C21.034 16.7386 20.7309 16.61 19.7573 16.61C19.0408 16.61 18.8663 16.6467 18.4621 16.858C17.8651 17.1703 17.1946 17.9051 17.0109 18.4654C16.9282 18.7042 16.8639 19.1819 16.8639 19.5401C16.8639 20.4494 17.1946 21.1383 17.9478 21.7997C18.3795 22.1855 18.4897 22.3232 18.407 22.4151C18.3336 22.5069 18.2325 22.4702 17.9386 22.2038C17.3324 21.6527 16.6618 21.3955 15.8443 21.3955C14.6135 21.4047 14.7421 21.2945 9.41464 26.6403C4.1331 31.9402 4.37191 31.6371 4.37191 32.9506C4.37191 33.8049 4.70258 34.5029 5.41904 35.201L5.92423 35.7062L4.34436 37.3136C2.58078 39.1231 2.25011 39.61 2.05722 40.703C1.91944 41.5113 2.02966 42.2921 2.39708 43.082C2.74612 43.8536 5.54763 46.6734 6.35594 47.0684C7.14587 47.4634 7.96336 47.5828 8.79922 47.445C9.90146 47.2521 10.3791 46.9306 12.1886 45.1579L13.796 43.5688L14.3012 44.0832C14.9993 44.7996 15.6974 45.1303 16.5516 45.1303C17.8651 45.1303 17.562 45.3691 22.816 40.1335C25.4062 37.5525 27.6291 35.2745 27.7485 35.0724C28.3823 33.9886 28.1986 32.5557 27.2892 31.5453L26.9769 31.1962L27.4729 30.7094L27.9597 30.2226L28.6395 30.7829C29.016 31.0952 29.5029 31.4259 29.7233 31.5269C30.9082 32.0413 32.2033 31.7565 33.0668 30.7921C33.6179 30.1858 33.8108 29.6807 33.8108 28.8264C33.8108 27.8436 33.526 27.2466 32.7269 26.5393L32.1574 26.0341L32.5708 25.6116C32.7912 25.3819 33.0116 25.1982 33.0576 25.1982C33.1035 25.1982 33.4066 25.4279 33.7373 25.7034C34.6007 26.4383 34.9589 26.6036 35.8407 26.6495C36.5112 26.6863 36.649 26.6587 37.1267 26.4474C37.788 26.1443 38.2932 25.6759 38.6147 25.0605C38.8259 24.6655 38.8627 24.491 38.8627 23.7745C38.8627 22.7274 38.6514 22.2589 37.8339 21.4782L37.2553 20.9271L37.687 20.4954L38.1279 20.0637L38.8351 20.6515C39.7261 21.3772 40.2037 21.57 41.1131 21.57C42.0224 21.5609 42.6103 21.3037 43.2165 20.6423C43.9605 19.8248 44.181 18.7502 43.8227 17.6663C43.6941 17.2713 43.5196 17.0233 42.9961 16.4998L42.3347 15.8292L42.7297 15.4618C43.1889 15.0393 43.3175 15.0209 43.9146 15.2873C44.5576 15.5721 45.2832 15.5537 45.9262 15.2414C47.0008 14.7178 48.3511 12.9359 48.792 11.4662C49.0492 10.612 49.0308 9.00457 48.7552 8.1136C48.3235 6.74499 48.0847 6.43269 45.5312 3.87918C43.29 1.63797 43.143 1.50937 42.399 1.15115C41.1039 0.526549 39.6894 0.342843 38.3575 0.636772ZM41.0947 2.58405C41.9489 2.91472 42.4082 3.29132 44.429 5.33046C46.1099 7.02055 46.4589 7.4247 46.7069 7.93908C47.2856 9.12398 47.2948 10.5018 46.7437 11.6775C46.4497 12.3021 45.2189 13.6248 44.9342 13.6248C44.8331 13.6248 44.5208 13.5421 44.2544 13.4411C43.2624 13.0645 42.4174 13.2665 41.5264 14.0932C41.2141 14.3963 40.9294 14.6352 40.8926 14.6352C40.8559 14.6352 39.423 13.4503 37.6961 11.9898C35.9693 10.5385 34.4905 9.30769 34.417 9.24339C34.2976 9.16072 34.3986 9.00457 35.1151 8.26975C35.8407 7.51655 35.9785 7.32366 36.1163 6.8644C36.2908 6.2398 36.2541 5.65194 35.9785 5.02734C35.7489 4.51296 35.758 4.47622 36.6307 3.64955C37.6686 2.66672 38.5779 2.3085 39.8731 2.36361C40.314 2.38198 40.8008 2.47383 41.0947 2.58405ZM30.2469 8.26056C30.3571 8.28812 33.0392 10.4926 36.2173 13.1563C42.5184 18.4471 42.3439 18.2725 42.0959 19.0165C41.9673 19.4299 41.4897 19.7789 41.0671 19.7789C40.8926 19.7789 40.6171 19.6687 40.4058 19.5217C39.9465 19.2094 29.3835 10.3273 29.0987 10.0241C28.6395 9.51895 28.814 8.68309 29.4478 8.37079C29.7876 8.19627 29.9254 8.1779 30.2469 8.26056ZM25.6359 13.6431C27.6566 15.2873 36.7317 22.957 36.8878 23.1499C37.191 23.5357 37.1083 24.2246 36.7133 24.5736C36.401 24.8584 35.8499 24.9227 35.4825 24.7206C35.3723 24.6655 33.1127 22.8009 30.4581 20.5689C23.5508 14.7821 23.8631 15.0577 23.7896 14.6811C23.7069 14.2402 23.808 13.9279 24.1203 13.6156C24.3315 13.3951 24.4601 13.3492 24.8276 13.3492C25.195 13.3492 25.3419 13.4043 25.6359 13.6431ZM33.2137 15.9303C34.9038 17.3448 36.3826 18.594 36.5021 18.7134L36.7041 18.9155L35.8223 19.7789L32.7545 17.1978C31.0644 15.7833 29.5763 14.5249 29.4478 14.3963L29.2273 14.1759L29.6315 13.7626C29.8519 13.5329 30.0632 13.3492 30.0907 13.3492C30.1183 13.3492 31.5236 14.5066 33.2137 15.9303ZM20.4094 18.6032C20.5656 18.7226 23.1926 20.9179 26.2605 23.499C31.1195 27.568 31.8543 28.2202 31.9462 28.5141C32.0013 28.707 32.0196 28.955 31.9921 29.0744C31.8267 29.7174 31.1195 30.1032 30.55 29.8552C30.2561 29.7358 20.3543 21.5058 19.1878 20.4219C18.7377 19.9994 18.701 19.9443 18.701 19.5493C18.701 19.0257 18.8112 18.8145 19.1878 18.5848C19.5828 18.3368 20.0696 18.3552 20.4094 18.6032ZM28.4741 21.2945L31.643 23.9582L31.193 24.4175L30.7429 24.8676L30.5316 24.6839C30.4122 24.5736 28.9242 23.3244 27.2157 21.8915L24.1111 19.2921L24.5428 18.8512C24.9286 18.4654 25.0021 18.4195 25.149 18.5205C25.2317 18.5756 26.7289 19.8248 28.4741 21.2945ZM16.3495 23.3612C16.5975 23.4806 18.3152 25.1339 21.4198 28.2478C26.4442 33.2813 26.4534 33.2997 26.2421 33.9518C26.1686 34.1539 24.7724 35.6144 21.6127 38.7741L17.0935 43.2933H16.0832L11.1507 38.3516L6.20897 33.4191V32.4087L10.6914 27.9263C13.153 25.4554 15.2932 23.3796 15.4402 23.3061C15.8076 23.1407 15.9178 23.1499 16.3495 23.3612ZM23.2844 26.2913C25.0572 27.7793 26.5085 29.0193 26.5085 29.0561C26.5085 29.0836 26.3248 29.2949 26.0951 29.5153L25.6818 29.9287L22.6323 26.8791C19.9502 24.197 19.6011 23.8113 19.7113 23.6827C19.7756 23.6 19.8859 23.5449 19.9502 23.5633C20.0145 23.5816 21.5208 24.8033 23.2844 26.2913ZM10.921 43.7709C10.076 44.6251 9.23093 45.3783 9.05641 45.4702C8.56041 45.6998 7.92662 45.7274 7.42143 45.5437C7.09076 45.4151 6.67742 45.0752 5.62111 44.0373C4.16984 42.6135 3.8208 42.1084 3.8208 41.4195C3.8208 40.5928 3.94939 40.3999 5.64867 38.6731L7.25609 37.0381L12.455 42.2369L10.921 43.7709Z" fill="#2C365A"/>
<path fill-rule="evenodd" clip-rule="evenodd" d="M35.3172 2.3085C36.2081 1.48182 37.3471 0.848034 38.3575 0.636772C39.6894 0.342843 41.1039 0.526549 42.399 1.15115C43.143 1.50937 43.29 1.63797 45.5312 3.87918C48.0847 6.43269 48.3235 6.74499 48.7552 8.1136C49.0308 9.00457 49.0492 10.612 48.792 11.4662C48.3511 12.9359 47.0008 14.7178 45.9262 15.2414C45.2832 15.5537 44.5576 15.5721 43.9146 15.2873C43.3175 15.0209 43.1889 15.0393 42.7297 15.4618L42.3347 15.8292L42.9961 16.4998C43.5196 17.0233 43.6941 17.2713 43.8227 17.6663C44.181 18.7502 43.9605 19.8248 43.2165 20.6423C42.6103 21.3037 42.0224 21.5609 41.1131 21.57C40.2037 21.57 39.7261 21.3772 38.8351 20.6515L38.1279 20.0637L37.687 20.4954L37.2553 20.9271L37.8339 21.4782C38.6514 22.2589 38.8627 22.7274 38.8627 23.7745C38.8627 24.491 38.8259 24.6655 38.6147 25.0605C38.2932 25.6759 37.788 26.1443 37.1267 26.4474C36.649 26.6587 36.5112 26.6863 35.8407 26.6495C34.9589 26.6036 34.6007 26.4383 33.7373 25.7034C33.4066 25.4279 33.1035 25.1982 33.0576 25.1982C33.0116 25.1982 32.7912 25.3819 32.5708 25.6116L32.1574 26.0341L32.7269 26.5393C33.526 27.2466 33.8108 27.8436 33.8108 28.8264C33.8108 29.6807 33.6179 30.1858 33.0668 30.7921C32.2033 31.7565 30.9082 32.0413 29.7233 31.5269C29.5029 31.4259 29.016 31.0952 28.6395 30.7829L27.9597 30.2226L27.4729 30.7094L26.9769 31.1962L27.2892 31.5453C28.1986 32.5557 28.3823 33.9886 27.7485 35.0724C27.6291 35.2745 25.4062 37.5525 22.816 40.1335C18.6426 44.2923 17.9755 44.997 17.2193 45.1109C17.0235 45.1404 16.8218 45.1303 16.5516 45.1303C15.6974 45.1303 14.9993 44.7996 14.3012 44.0832L13.796 43.5688L12.1886 45.1579C10.3791 46.9306 9.90146 47.2521 8.79922 47.445C7.96336 47.5828 7.14587 47.4634 6.35594 47.0684C5.54763 46.6734 2.74612 43.8536 2.39708 43.082C2.02966 42.2921 1.91944 41.5113 2.05722 40.703C2.25011 39.61 2.58078 39.1231 4.34436 37.3136L5.92423 35.7062L5.41904 35.201C4.70258 34.5029 4.37191 33.8049 4.37191 32.9506C4.37191 32.6821 4.36193 32.4811 4.39118 32.2861C4.50498 31.5269 5.21281 30.8568 9.41464 26.6403C13.7845 22.2554 14.4834 21.5414 15.2728 21.4213C15.4458 21.395 15.6231 21.3972 15.8443 21.3955C16.3057 21.3955 16.7202 21.4774 17.1028 21.6479C17.3243 21.7465 17.5352 21.8749 17.7382 22.0342L17.7403 22.0359C17.8072 22.0885 17.8733 22.1445 17.9386 22.2038C17.9441 22.2088 17.9495 22.2137 17.9549 22.2186C18.2363 22.4715 18.3349 22.5052 18.407 22.4151C18.4739 22.3408 18.4145 22.2363 18.1605 21.9947C18.1549 21.9894 18.1492 21.984 18.1434 21.9785C18.0875 21.9257 18.0222 21.8662 17.9478 21.7997C17.7411 21.6182 17.5662 21.4346 17.4213 21.245C17.038 20.7437 16.8639 20.1999 16.8639 19.5401C16.8639 19.1819 16.9282 18.7042 17.0109 18.4654C17.1946 17.9051 17.8651 17.1703 18.4621 16.858C18.8663 16.6467 19.0408 16.61 19.7573 16.61C20.7309 16.61 21.034 16.7386 22.0628 17.5836L22.7149 18.1164L23.5784 17.2346L23.0181 16.6927C22.7058 16.3987 22.3383 15.9395 22.2097 15.6915C21.9985 15.2965 21.9617 15.122 21.9617 14.4055C21.9617 13.6891 21.9985 13.5145 22.2097 13.1104C22.522 12.5134 23.2569 11.8428 23.8172 11.6591C24.056 11.5765 24.5336 11.5122 24.8919 11.5122C25.7093 11.5122 26.2972 11.7693 27.1331 12.4766C27.4545 12.7522 27.7485 12.9818 27.7852 12.9818C27.822 12.9818 28.0332 12.7981 28.2537 12.5685L28.6578 12.1551L28.0975 11.6224C27.326 10.9059 27.0228 10.2538 27.0228 9.30769C27.0228 8.48101 27.2249 7.95745 27.7944 7.34203C28.3731 6.71743 29.0528 6.4235 29.907 6.41432C30.7704 6.41432 31.3307 6.66232 32.2309 7.4247L32.8647 7.95745L33.5903 7.23181C33.9945 6.82766 34.3435 6.41432 34.3803 6.29491C34.4078 6.1755 34.3435 5.89076 34.2241 5.60601C34.0771 5.28453 34.0128 4.94467 34.0037 4.57726C34.0037 3.79651 34.3343 3.23621 35.3172 2.3085ZM33.7658 5.80595C33.5875 5.41277 33.5142 5.00628 33.5038 4.58976L33.5035 4.57726C33.5035 4.10341 33.6073 3.68071 33.8596 3.24675C34.1018 2.8299 34.4723 2.41837 34.9739 1.94489L34.9771 1.94195C35.9195 1.06755 37.1364 0.381989 38.2524 0.147934C39.7006 -0.170998 41.2281 0.0313674 42.6162 0.700787C43.0175 0.894022 43.2806 1.03872 43.7321 1.43204C44.1583 1.80333 44.7704 2.41129 45.8848 3.52563C47.1526 4.79352 47.8788 5.53659 48.3367 6.13778C48.8186 6.77057 49.0076 7.25166 49.2321 7.96319L49.2329 7.96586C49.3903 8.47483 49.4662 9.15236 49.4734 9.79814C49.4805 10.4424 49.42 11.1146 49.2707 11.6104C49.0289 12.4164 48.548 13.282 47.9951 14.0108C47.4484 14.7313 46.7851 15.3791 46.1451 15.6909C45.3737 16.0656 44.4936 16.0906 43.7121 15.7445L43.7109 15.7439C43.5643 15.6785 43.4723 15.6426 43.4063 15.624C43.37 15.6137 43.3511 15.6116 43.3438 15.6112C43.3378 15.6136 43.3242 15.6201 43.3008 15.6356C43.2502 15.6692 43.1808 15.7263 43.0691 15.8289L43.0682 15.8298L43.0522 15.8447L43.3496 16.1462L43.3509 16.1475C43.8927 16.6894 44.133 17.0047 44.2979 17.5107C44.7101 18.7594 44.4557 20.0235 43.5863 20.9789L43.5851 20.9802C43.2485 21.3474 42.8956 21.6254 42.4799 21.8084C42.0649 21.9911 41.6195 22.065 41.1181 22.07L41.1131 22.0701C40.6204 22.07 40.2043 22.0176 39.7802 21.8466C39.3656 21.6794 38.9772 21.4121 38.5194 21.0392L38.5155 21.0361L38.1553 20.7366L38.0405 20.8489L38.0368 20.8526L37.9711 20.9184L38.1788 21.1161C38.6034 21.5217 38.9165 21.8879 39.1111 22.3218C39.3077 22.7602 39.3627 23.2201 39.3627 23.7745C39.3627 24.131 39.3546 24.3982 39.3087 24.6337C39.2594 24.8862 39.1718 25.0787 39.0568 25.294C38.6807 26.0129 38.09 26.5559 37.335 26.902L37.3289 26.9047C37.0865 27.012 36.8821 27.0953 36.6356 27.1351C36.3984 27.1734 36.1471 27.167 35.8142 27.1488C35.3456 27.1244 34.9651 27.066 34.5764 26.8905C34.2006 26.7209 33.8505 26.4562 33.4154 26.086C33.2927 25.9838 33.1758 25.8897 33.077 25.8133C33.0309 25.8568 32.9815 25.9057 32.9314 25.9578L32.9282 25.9612L32.882 26.0085L33.0583 26.1649M33.7658 5.80595C33.8143 5.9227 33.8497 6.03473 33.8696 6.12288C33.873 6.13752 33.8757 6.15078 33.8779 6.16267C33.8448 6.20758 33.7989 6.26542 33.7409 6.33419C33.609 6.49055 33.4305 6.68453 33.2368 6.87826L32.8354 7.27964L32.554 7.04316L32.5533 7.04249C32.0886 6.64906 31.6805 6.36095 31.2551 6.17534C30.8192 5.98514 30.3927 5.91432 29.907 5.91429L29.9016 5.91435C28.9135 5.92497 28.102 6.27435 27.4276 7.00222C27.1144 7.34067 26.8803 7.67764 26.7294 8.0635C26.5785 8.44939 26.5228 8.8529 26.5228 9.30769C26.5228 9.8371 26.6083 10.3115 26.8174 10.7617C27.0246 11.208 27.3394 11.6004 27.7551 11.9867L27.9458 12.1681L27.8962 12.2189L27.893 12.2222C27.8487 12.2683 27.8053 12.312 27.7643 12.3518C27.6733 12.2784 27.5681 12.191 27.4585 12.097L27.456 12.0949C27.0193 11.7254 26.6207 11.4501 26.2038 11.2701C25.779 11.0867 25.3588 11.0122 24.8919 11.0122C24.5028 11.0122 23.9678 11.0789 23.6576 11.1853C23.2861 11.308 22.9035 11.5705 22.5848 11.8592C22.261 12.1525 21.9571 12.5146 21.7667 12.8786C21.6519 13.0982 21.5647 13.2927 21.5157 13.5457C21.4699 13.782 21.4617 14.0488 21.4617 14.4055C21.4617 14.762 21.4698 15.0292 21.5158 15.2647C21.565 15.5171 21.6525 15.7096 21.7675 15.9247C21.9314 16.2389 22.3376 16.7382 22.6728 17.0543L22.8691 17.2442L22.6774 17.4401L22.3802 17.1973C21.8692 16.7775 21.4851 16.4888 21.084 16.3193C20.6636 16.1417 20.2628 16.11 19.7573 16.11C19.4005 16.11 19.1338 16.1181 18.8975 16.1639C18.6444 16.2129 18.4501 16.3001 18.2305 16.4149C17.8665 16.6053 17.5042 16.9092 17.2109 17.233C16.9222 17.5518 16.6597 17.9343 16.537 18.3058C16.4306 18.616 16.3639 19.151 16.3639 19.5401C16.3639 20.0762 16.4658 20.5499 16.6744 20.983C16.4109 20.9244 16.1348 20.8955 15.8443 20.8955L15.8406 20.8955C15.8142 20.8957 15.7876 20.8958 15.7608 20.8959C15.5013 20.8969 15.222 20.8979 14.9238 20.9889C14.5883 21.0912 14.2631 21.2923 13.8499 21.6291C13.0655 22.2683 11.8049 23.5333 9.34136 26.0055C9.24942 26.0978 9.1558 26.1917 9.06048 26.2874C8.80933 26.5394 8.57038 26.779 8.34306 27.007C6.19536 29.1607 5.08544 30.2738 4.5222 30.9781C4.203 31.3773 4.01768 31.6941 3.93222 32.0339C3.86537 32.2997 3.86824 32.5656 3.8709 32.8114C3.87141 32.8586 3.87191 32.9051 3.87191 32.9506C3.87191 33.9649 4.2768 34.7853 5.06776 35.5568L5.0701 35.5591L5.22016 35.7093L3.98776 36.9631L3.98629 36.9647C3.10898 37.8648 2.55365 38.4697 2.19743 38.9972C1.8222 39.5528 1.67042 40.0178 1.56483 40.6161L1.56433 40.619C1.40868 41.5322 1.53575 42.4147 1.94269 43.2907C2.06444 43.5581 2.35203 43.9291 2.66934 44.2999C3.00371 44.6907 3.42073 45.1371 3.84953 45.5688C4.27839 46.0005 4.72428 46.4229 5.11736 46.7647C5.49361 47.0919 5.86536 47.3847 6.13446 47.5167C7.01748 47.9577 7.94091 48.0932 8.88055 47.9384L8.88541 47.9375C9.48671 47.8323 9.9525 47.6833 10.5083 47.3084C11.0354 46.9528 11.6385 46.3968 12.5385 45.515L13.7908 44.2771L13.9431 44.4321C14.7152 45.2245 15.5364 45.6303 16.5516 45.6303C16.5975 45.6303 16.6442 45.6308 16.6917 45.6313C16.9371 45.634 17.2022 45.6369 17.4666 45.571C17.8058 45.4865 18.1213 45.3027 18.518 44.9861C19.2173 44.4279 20.3207 43.3277 22.4554 41.1991C22.6814 40.9737 22.919 40.7367 23.1689 40.4877C24.4652 39.196 25.6703 37.9794 26.5668 37.0599C27.0148 36.6004 27.3872 36.2136 27.6558 35.9282C27.7898 35.7857 27.9001 35.6663 27.9817 35.5748C28.0223 35.5292 28.0582 35.4879 28.0873 35.4526C28.1095 35.4258 28.149 35.3774 28.1789 35.3268L28.1801 35.3248C28.9331 34.0371 28.7016 32.3735 27.6679 31.2186L27.8232 31.0663L27.9921 30.8973L28.3203 31.1678L28.3211 31.1685C28.7082 31.4894 29.2346 31.8529 29.515 31.9814L29.5242 31.9855C30.9068 32.5857 32.4314 32.2503 33.4381 31.127C33.7406 30.794 33.9672 30.4638 34.1129 30.0795C34.2585 29.6958 34.3108 29.2909 34.3108 28.8264C34.3108 28.285 34.232 27.8115 34.0202 27.3652C33.8101 26.9223 33.4865 26.544 33.0583 26.1649M41.5264 14.0932C42.4174 13.2665 43.2624 13.0645 44.2544 13.4411C44.5208 13.5421 44.8331 13.6248 44.9342 13.6248C45.2189 13.6248 46.4497 12.3021 46.7437 11.6775C47.2948 10.5018 47.2856 9.12398 46.7069 7.93908C46.4589 7.4247 46.1099 7.02055 44.429 5.33046C42.4082 3.29132 41.9489 2.91472 41.0947 2.58405C40.8008 2.47383 40.314 2.38198 39.8731 2.36361C38.5779 2.3085 37.6686 2.66672 36.6307 3.64955C35.758 4.47622 35.7489 4.51296 35.9785 5.02734C36.2541 5.65194 36.2908 6.2398 36.1163 6.8644C35.9785 7.32366 35.8407 7.51655 35.1151 8.26975C34.3986 9.00457 34.2976 9.16072 34.417 9.24339C34.4443 9.26725 34.6651 9.45177 35.0203 9.7486C35.6223 10.2516 36.6102 11.0771 37.6961 11.9898C39.423 13.4503 40.8559 14.6352 40.8926 14.6352C40.9294 14.6352 41.2141 14.3963 41.5264 14.0932ZM36.9744 4.01261C36.7539 4.22151 36.6009 4.36845 36.4928 4.48357C36.4163 4.56503 36.378 4.61453 36.3593 4.64206C36.3697 4.67253 36.3909 4.72461 36.4351 4.82352L36.436 4.82552C36.7582 5.55586 36.8036 6.26259 36.5978 6.99895L36.5953 7.0081C36.5153 7.2746 36.4257 7.49112 36.2433 7.74703C36.0761 7.98163 35.8344 8.24377 35.4752 8.61665L35.4731 8.6188C35.2664 8.83082 35.1209 8.98474 35.0204 9.09705L35.7572 9.71285C36.3521 10.2101 37.1539 10.881 38.0178 11.607L38.019 11.608C38.8815 12.3374 39.67 12.9976 40.2469 13.4749C40.511 13.6934 40.7297 13.8728 40.8905 14.0026C40.9764 13.926 41.0753 13.8343 41.1782 13.7344L41.1862 13.7266C41.673 13.2749 42.1812 12.9623 42.7363 12.8296C43.2976 12.6954 43.8599 12.7565 44.4318 12.9736C44.5485 13.0178 44.6772 13.0587 44.786 13.0879C44.8163 13.0961 44.8438 13.1029 44.868 13.1086C44.8965 13.0881 44.9322 13.0605 44.975 13.0247C45.1137 12.9088 45.2879 12.74 45.4693 12.5449C45.8442 12.1417 46.1789 11.7028 46.291 11.4651C46.7775 10.4271 46.7702 9.20807 46.2576 8.15849L46.2565 8.15623C46.0534 7.73501 45.7787 7.3966 44.0744 5.68304C42.04 3.63008 41.6522 3.33636 40.9168 3.05135C40.6834 2.96435 40.2528 2.87986 39.8522 2.86317C39.2583 2.8379 38.7794 2.90802 38.3395 3.08222C37.8969 3.25749 37.4628 3.55021 36.9744 4.01261ZM44.7988 13.1519C44.7988 13.1519 44.8026 13.1495 44.8094 13.1468C44.8021 13.1508 44.7988 13.1519 44.7988 13.1519ZM42.0959 19.0165C42.1357 18.8971 42.1736 18.8013 42.1832 18.7028C42.233 18.1877 41.5067 17.5975 36.2173 13.1563C33.0392 10.4926 30.3571 8.28812 30.2469 8.26056C29.9254 8.1779 29.7876 8.19627 29.4478 8.37079C28.814 8.68309 28.6395 9.51895 29.0987 10.0241C29.3835 10.3273 39.9465 19.2094 40.4058 19.5217C40.6171 19.6687 40.8926 19.7789 41.0671 19.7789C41.4897 19.7789 41.9673 19.4299 42.0959 19.0165ZM29.4636 9.68215C29.4636 9.68215 29.4665 9.68471 29.4695 9.68746C29.4837 9.7004 29.5224 9.73567 29.5975 9.80164C29.6887 9.88169 29.8154 9.99146 29.9734 10.1273C30.2892 10.3987 30.726 10.771 31.2445 11.2108C32.2812 12.0904 33.642 13.2383 35.0085 14.3867C36.375 15.5351 37.7467 16.6836 38.8051 17.5642C39.3345 18.0047 39.7848 18.3775 40.1168 18.6498C40.2829 18.786 40.4184 18.8962 40.519 18.9768C40.5693 19.0171 40.6098 19.0492 40.6403 19.0729C40.6742 19.0992 40.687 19.1083 40.687 19.1083L40.6914 19.1113C40.7639 19.1617 40.8509 19.2078 40.9328 19.2399C41.0229 19.2753 41.0671 19.2789 41.0671 19.2789C41.1479 19.2789 41.2714 19.2415 41.3949 19.1504C41.5179 19.0596 41.5926 18.9512 41.6185 18.868L41.6215 18.8584C41.6338 18.8214 41.6437 18.7927 41.6516 18.7695C41.6697 18.7165 41.6779 18.6926 41.6837 18.6649C41.6842 18.6628 41.6847 18.6596 41.6847 18.6596C41.6723 18.6228 41.6038 18.4887 41.2595 18.1456C40.603 17.4912 39.2174 16.3279 36.3849 13.9499C36.2264 13.8168 36.0634 13.68 35.8958 13.5392C34.3077 12.2082 32.8442 10.9924 31.7645 10.1064C31.2243 9.66315 30.7816 9.30357 30.4678 9.05367C30.3105 8.92839 30.1882 8.8327 30.1032 8.76842C30.0813 8.75189 30.063 8.73823 30.0478 8.72717C29.9674 8.71015 29.9388 8.7123 29.9222 8.71459C29.8931 8.71858 29.8364 8.73329 29.6762 8.81557L29.6688 8.81935C29.3163 8.99306 29.2487 9.43782 29.4636 9.68215ZM36.7133 24.5736C37.1083 24.2246 37.191 23.5357 36.8878 23.1499C36.7317 22.957 27.6566 15.2873 25.6359 13.6431C25.3419 13.4043 25.195 13.3492 24.8276 13.3492C24.4601 13.3492 24.3315 13.3951 24.1203 13.6156C23.808 13.9279 23.7069 14.2402 23.7896 14.6811C23.7961 14.7144 23.7996 14.7425 23.8053 14.7703C23.8643 15.0563 24.161 15.2933 30.4581 20.5689C33.1127 22.8009 35.3723 24.6655 35.4825 24.7206C35.8499 24.9227 36.401 24.8584 36.7133 24.5736ZM24.291 14.6459C24.3455 14.7173 24.4908 14.867 24.8921 15.2214C25.6141 15.8588 27.0517 17.0631 29.9463 19.4879C30.2115 19.71 30.489 19.9424 30.7792 20.1856C32.1056 21.3009 33.3337 22.3246 34.2429 23.0756C34.6976 23.4512 35.0718 23.7579 35.3387 23.9738C35.4724 24.0819 35.5775 24.166 35.6518 24.2241C35.6893 24.2533 35.7166 24.2742 35.7347 24.2877L35.7377 24.2899C35.814 24.3271 35.9286 24.3487 36.0597 24.3332C36.1991 24.3166 36.3113 24.2636 36.3764 24.2042L36.3822 24.1989C36.473 24.1186 36.5461 23.9792 36.566 23.8151C36.5845 23.6632 36.5517 23.5451 36.5076 23.477C36.4895 23.4602 36.4625 23.4358 36.4257 23.4031C36.3526 23.338 36.248 23.2466 36.115 23.1314C35.8494 22.9012 35.4753 22.5803 35.0234 22.1946C34.12 21.4235 32.9085 20.3959 31.6384 19.3227C29.0965 17.1748 26.3265 14.8497 25.3204 14.0311M24.2808 14.5875C24.2507 14.4263 24.2605 14.3245 24.284 14.2496C24.3076 14.1741 24.3581 14.0849 24.4738 13.9691L24.4813 13.9615C24.5619 13.8774 24.5863 13.8694 24.59 13.8682C24.6053 13.8625 24.6529 13.8492 24.8276 13.8492C24.9903 13.8492 25.05 13.8625 25.0877 13.8763C25.1276 13.8909 25.186 13.9219 25.3204 14.0311M32.8928 16.3137L32.8916 16.3127C32.0476 15.6017 31.275 14.9575 30.7105 14.4914C30.4648 14.2886 30.2593 14.1202 30.1047 13.9949C30.0685 14.0305 30.0306 14.0688 29.9922 14.1088L29.989 14.1121L29.938 14.1642C29.9848 14.205 30.0413 14.2538 30.1069 14.3102C30.2896 14.4672 30.5394 14.6799 30.8386 14.9333C31.437 15.44 32.2308 16.1075 33.0754 16.8144L33.0764 16.8152L35.7969 19.1041L35.9834 18.9215C35.9445 18.8878 35.9 18.8495 35.85 18.8066C35.6694 18.6517 35.4216 18.441 35.124 18.1893C34.529 17.686 33.7374 17.0206 32.8928 16.3137ZM36.3418 18.5705C36.4277 18.6451 36.4827 18.6941 36.5021 18.7134L36.7041 18.9155L35.8223 19.7789L32.7545 17.1978C31.3117 15.9903 30.0161 14.8965 29.5879 14.5223C29.5643 14.5017 29.5434 14.4833 29.5252 14.4672C29.4867 14.433 29.4605 14.4091 29.4478 14.3963L29.2273 14.1759L29.6315 13.7626C29.8519 13.5329 30.0632 13.3492 30.0907 13.3492C30.1183 13.3492 31.5236 14.5066 33.2137 15.9303C34.63 17.1156 35.8979 18.1848 36.3418 18.5705ZM26.2605 23.499C23.1926 20.9179 20.5656 18.7226 20.4094 18.6032C20.0696 18.3552 19.5828 18.3368 19.1878 18.5848C18.8112 18.8145 18.701 19.0257 18.701 19.5493C18.701 19.9443 18.7377 19.9994 19.1878 20.4219C20.3543 21.5058 30.2561 29.7358 30.55 29.8552C31.1195 30.1032 31.8267 29.7174 31.9921 29.0744C32.0196 28.955 32.0013 28.707 31.9462 28.5141C31.8543 28.2202 31.1195 27.568 26.2605 23.499ZM31.4725 28.6783C31.4619 28.663 31.4276 28.6155 31.3398 28.5231C31.1982 28.374 30.96 28.1501 30.5601 27.7971C29.7635 27.0939 28.3707 25.9183 25.9394 23.8823L25.9386 23.8816C24.405 22.5913 22.9816 21.3975 21.9223 20.5115C21.3925 20.0684 20.9541 19.7025 20.6384 19.44C20.4805 19.3087 20.3537 19.2036 20.2617 19.1277C20.2157 19.0898 20.1789 19.0595 20.1514 19.0372L20.1184 19.0105L20.1094 19.0033C19.9432 18.8855 19.6821 18.8648 19.4537 19.0083L19.4481 19.0118C19.2975 19.1036 19.2639 19.1537 19.249 19.1832C19.2283 19.2238 19.201 19.3118 19.201 19.5493C19.201 19.6465 19.2038 19.6902 19.2078 19.7159C19.2101 19.7307 19.211 19.7295 19.211 19.7295C19.2153 19.7371 19.2313 19.7623 19.2856 19.8198C19.3401 19.8776 19.4157 19.95 19.529 20.0564C20.1012 20.5878 22.8522 22.9032 25.5156 25.1156C26.844 26.219 28.1444 27.2918 29.1306 28.0957C29.624 28.4979 30.0373 28.8317 30.3357 29.0681C30.4853 29.1866 30.6036 29.2788 30.6879 29.3423C30.7267 29.3716 30.7556 29.3928 30.7756 29.4069C31.0214 29.4917 31.4006 29.3298 31.5036 28.9655C31.5039 28.962 31.5043 28.9564 31.5045 28.9486C31.5052 28.9268 31.5045 28.8971 31.5017 28.8615C31.4967 28.7988 31.4862 28.7334 31.4725 28.6783ZM30.7994 29.423C30.7994 29.423 30.7984 29.4224 30.7943 29.4197C30.7972 29.4215 30.7994 29.423 30.7994 29.423ZM28.152 21.6769C27.2799 20.9425 26.4699 20.2633 25.8678 19.761C25.5667 19.5098 25.3181 19.3032 25.1399 19.1563C25.1011 19.1242 25.0657 19.0951 25.034 19.0691C24.9958 19.1059 24.9512 19.1499 24.8982 19.2029L24.8964 19.2048L24.8465 19.2557L27.5367 21.5082C28.9752 22.7147 30.2755 23.8059 30.7188 24.1846L30.8359 24.0675L30.8394 24.0639L30.9082 23.9937L28.152 21.6769ZM31.643 23.9582L31.193 24.4175L30.7429 24.8676L30.5316 24.6839C30.4122 24.5736 28.9242 23.3244 27.2157 21.8915L24.1111 19.2921L24.5428 18.8512C24.9286 18.4654 25.0021 18.4195 25.149 18.5205C25.2317 18.5756 26.7289 19.8248 28.4741 21.2945L31.643 23.9582ZM24.8658 18.9326C24.8627 18.9305 24.8629 18.9307 24.8658 18.9326V18.9326ZM21.0657 28.6008C19.5142 27.0447 18.3114 25.8556 17.4665 25.0416C17.0437 24.6343 16.7133 24.3235 16.4749 24.1085C16.3554 24.0007 16.2626 23.9202 16.1949 23.8649C16.1415 23.8213 16.1183 23.8056 16.1166 23.8039C15.903 23.7 15.8537 23.6923 15.8393 23.6914C15.8393 23.6914 15.8374 23.6913 15.8349 23.6916C15.8318 23.692 15.8243 23.6931 15.8103 23.697C15.7852 23.704 15.7495 23.7168 15.6926 23.7412C15.6765 23.7547 15.6547 23.7736 15.6266 23.7985C15.5544 23.8625 15.453 23.9557 15.3243 24.0763C15.0677 24.3168 14.712 24.6581 14.2823 25.0757C13.4235 25.9105 12.2749 27.0453 11.0456 28.2792L6.70897 32.6158V33.2117L11.5039 37.9977L16.2905 42.7933H16.8864L21.2591 38.4205C22.8385 36.8412 23.9744 35.6892 24.7239 34.9077C25.0991 34.5165 25.374 34.2217 25.5582 34.0143C25.6507 33.91 25.716 33.8326 25.7584 33.7787C25.7684 33.7659 25.7763 33.7555 25.7824 33.7473C25.8126 33.6493 25.8086 33.6417 25.8053 33.6351L25.8039 33.6319C25.7864 33.5712 25.7125 33.421 25.4123 33.0654C24.8257 32.3707 23.5886 31.1283 21.0657 28.6008ZM26.2421 33.9518C26.1686 34.1539 24.7724 35.6144 21.6127 38.7741L17.0935 43.2933H16.0832L11.1507 38.3516L6.20897 33.4191V32.4087L10.6914 27.9263C13.153 25.4554 15.2932 23.3796 15.4402 23.3061C15.8076 23.1407 15.9178 23.1499 16.3495 23.3612C16.5975 23.4806 18.3152 25.1339 21.4198 28.2478C26.4442 33.2813 26.4534 33.2997 26.2421 33.9518ZM20.1373 24.3372C20.549 24.7869 21.3049 25.5518 22.6323 26.8791L25.6818 29.9287L26.0951 29.5153C26.3248 29.2949 26.5085 29.0836 26.5085 29.0561C26.5085 29.0193 25.0572 27.7793 23.2844 26.2913C22.1277 25.3153 21.0815 24.4538 20.4805 23.9714C20.3688 23.8818 20.2725 23.8053 20.1937 23.7435C20.05 23.6308 19.9645 23.5673 19.9502 23.5633C19.8859 23.5449 19.7756 23.6 19.7113 23.6827C19.674 23.7263 19.6894 23.7994 19.8306 23.9816C19.849 24.0053 19.8695 24.0309 19.8924 24.0585C19.9554 24.1347 20.0359 24.2264 20.1373 24.3372ZM25.6818 29.2216L25.7488 29.1546C25.77 29.1342 25.7908 29.114 25.8109 29.0941C25.6601 28.9623 25.4658 28.7945 25.236 28.5976C24.9038 28.3131 24.4995 27.9695 24.0492 27.589L25.6818 29.2216ZM10.5656 43.4193L10.5675 43.4173L11.7479 42.2369L7.25911 37.7482L6.00521 39.0236C5.14106 39.9018 4.72552 40.3427 4.51373 40.6609C4.41749 40.8055 4.37609 40.9073 4.35371 41.0008C4.32938 41.1024 4.3208 41.2208 4.3208 41.4195C4.3208 41.6493 4.36922 41.8506 4.5886 42.1693C4.82641 42.5149 5.24333 42.9662 5.97126 43.6803C6.49857 44.1985 6.85382 44.5308 7.11363 44.7475C7.36974 44.9611 7.50668 45.0395 7.59781 45.0757C7.96942 45.209 8.4516 45.1911 8.82443 45.0264C8.82443 45.0264 8.8278 45.0238 8.83041 45.0219C8.84857 45.0085 8.89688 44.9728 8.98362 44.901C9.09307 44.8103 9.23564 44.6861 9.40175 44.5357C9.7335 44.2355 10.1494 43.84 10.5656 43.4193ZM9.05641 45.4702C8.56041 45.6998 7.92662 45.7274 7.42143 45.5437C7.09076 45.4151 6.67742 45.0752 5.62111 44.0373C4.16984 42.6135 3.8208 42.1084 3.8208 41.4195C3.8208 40.5928 3.94939 40.3999 5.64867 38.6731L7.25609 37.0381L12.455 42.2369L10.921 43.7709C10.076 44.6251 9.23093 45.3783 9.05641 45.4702Z" fill="#2C365A"/>
<path d="M41.306 5.77134C40.3691 6.06527 39.7904 7.09403 40.02 8.04011C40.268 9.07805 41.3152 9.7302 42.3256 9.4822C43.3635 9.2342 44.0156 8.18707 43.7676 7.17669C43.6207 6.52454 43.0879 5.95505 42.4633 5.77134C41.9122 5.60601 41.8295 5.60601 41.306 5.77134Z" fill="#2C365A"/>
<path d="M7.13668 39.9406C6.71415 40.0692 6.18141 40.5193 5.97933 40.9051C5.52925 41.7777 5.86911 42.9258 6.74171 43.4494C8.17461 44.322 9.94738 43.0085 9.59834 41.3368C9.46056 40.7122 8.82677 40.0692 8.21136 39.9131C7.68779 39.7845 7.65105 39.7845 7.13668 39.9406Z" fill="#2C365A"/>
</svg>
