<svg width="48" height="48" viewBox="0 0 48 48" fill="none" xmlns="http://www.w3.org/2000/svg">
<path d="M10.2942 0.788235C6.89579 1.22758 3.91085 3.3726 2.32147 6.52553C1.49447 8.1666 1.19727 9.40709 1.19727 11.242C1.19727 13.0381 1.48155 14.2528 2.29562 15.9585C3.5878 18.6204 14.9461 40.1481 15.631 41.2206C18.4479 45.6141 24.2886 47.8108 29.4573 46.4281C30.5427 46.1439 32.4939 45.2135 33.476 44.5157C35.5435 43.0297 36.9778 41.1431 38.0503 38.4425C40.9836 31.0899 47.0956 15.1315 47.2894 14.2915C48.0389 11.1386 46.695 7.44298 44.0848 5.49178C42.2887 4.13499 41.7847 4.00577 35.7761 3.30799C25.2965 2.09334 11.7673 0.633171 11.3151 0.659016C11.1988 0.671936 10.7465 0.723625 10.2942 0.788235ZM13.8865 4.00577C16.9231 4.89738 19.3137 8.08907 19.3137 11.242C19.3137 14.4983 16.7939 17.7288 13.6151 18.5558C12.5426 18.84 10.824 18.8271 9.75152 18.5428C7.32221 17.9097 5.29349 15.9585 4.51818 13.5292C4.05299 12.0948 4.06591 10.3245 4.5311 8.94191C5.84913 5.00075 9.9195 2.85572 13.8865 4.00577ZM26.86 5.29795C30.0517 5.65976 32.7136 5.94404 32.7782 5.94404C32.8428 5.94404 32.5973 6.28001 32.2355 6.68059C31.4731 7.54635 30.659 9.12281 30.336 10.3375C30.0776 11.3454 30.0517 13.3483 30.2843 14.3432C30.3748 14.7309 30.7107 15.5967 31.0338 16.2686C32.0029 18.2844 33.7861 19.8609 36.0087 20.6362C37.2233 21.0755 39.4847 21.1918 40.7639 20.8946C41.2291 20.7783 41.6297 20.7137 41.6555 20.7525C41.6943 20.7912 38.2312 29.9399 38.1149 30.082C38.102 30.0949 37.934 29.7202 37.7531 29.2421C36.7582 26.7094 34.4064 24.2155 31.7832 22.9104C29.8837 21.9542 28.4365 21.6441 26.033 21.657C24.4695 21.6699 23.9526 21.7345 22.893 22.0059C18.7968 23.0913 15.45 26.2701 14.1449 30.3275L13.7831 31.4388L13.5764 31.0641C12.7623 29.5522 8.48518 21.3856 8.51102 21.3598C8.51102 21.3469 8.87283 21.4244 9.29926 21.5278C10.4493 21.8121 13.0854 21.8121 14.2096 21.5278C15.4371 21.2176 17.5434 20.1581 18.4091 19.4215C20.0761 17.9872 21.4845 15.8163 21.9627 13.891C22.2211 12.8443 22.2211 9.62677 21.9627 8.60594C21.7042 7.62388 20.9806 6.07326 20.412 5.28503C20.1665 4.93614 19.9598 4.61309 19.9598 4.57433C19.9598 4.53556 20.2053 4.53556 20.5154 4.58725C20.8126 4.62602 23.6683 4.94906 26.86 5.29795ZM40.4796 6.91318C41.4617 7.21038 42.6763 8.08907 43.3741 9.01944C45.2736 11.5263 44.7568 15.0281 42.2112 16.9534C41.074 17.8192 39.9498 18.1423 38.4121 18.0647C37.4301 18.0001 37.12 17.9226 36.3188 17.5349C31.7186 15.2478 32.1967 8.64471 37.0812 6.95195C37.8953 6.66767 39.588 6.65474 40.4796 6.91318ZM28.5528 24.8745C31.9254 25.7403 34.7553 28.6348 35.5435 32.0203C35.7761 33.0153 35.8149 35.3024 35.6081 36.207C34.9491 39.1273 33.0754 41.5049 30.3748 42.8617C28.4882 43.8179 25.9038 44.1151 23.9009 43.6241C21.1615 42.9392 18.771 41.001 17.5046 38.4425C16.7681 36.9306 16.5484 35.9873 16.5484 34.2429C16.5355 32.4467 16.7552 31.568 17.5951 29.8494C18.099 28.8157 18.3704 28.441 19.3654 27.4589C20.8901 25.947 22.2857 25.1847 24.3532 24.7324C25.374 24.5127 27.4415 24.5773 28.5528 24.8745Z" fill="#2C365A"/>
<path d="M10.2168 6.60306C8.79543 7.09408 7.92967 7.8694 7.28358 9.22619C6.15938 11.578 7.10267 14.3045 9.48029 15.5579C10.3461 16.0101 10.4236 16.0231 11.7158 16.0231C12.9692 16.0231 13.1372 15.9972 13.8479 15.6354C14.7653 15.1702 15.6569 14.2657 16.1609 13.2966C16.471 12.6763 16.5098 12.4566 16.5227 11.3066C16.5227 10.1824 16.4839 9.92397 16.1867 9.2908C15.1271 6.97779 12.5169 5.81482 10.2168 6.60306ZM12.8012 10.0919C13.9254 11.1774 13.2276 12.8443 11.6512 12.8443C11.0826 12.8443 10.9663 12.7926 10.5786 12.3791C9.77749 11.5004 9.90671 10.5313 10.9275 9.84644C11.5349 9.43294 12.2068 9.52339 12.8012 10.0919Z" fill="#2C365A"/>
<path d="M37.6758 8.33458C36.7971 8.5801 36.2673 8.90315 35.66 9.57508C34.8847 10.4408 34.6392 11.1257 34.6392 12.4179C34.6392 13.3612 34.6908 13.6325 34.988 14.2399C35.4145 15.1056 36.151 15.8034 37.1072 16.2427C38.1022 16.7079 39.5495 16.695 40.5574 16.2427C41.3844 15.8551 42.1855 15.0798 42.599 14.2399C42.8445 13.723 42.8962 13.4258 42.8962 12.3404C42.8962 11.242 42.8445 10.9577 42.599 10.4925C41.6686 8.73516 39.5495 7.81771 37.6758 8.33458ZM39.5107 11.7847C40.0534 12.4308 39.627 13.3095 38.7483 13.3095C37.8955 13.3095 37.5595 12.2499 38.2444 11.6684C38.6579 11.3066 39.136 11.3454 39.5107 11.7847Z" fill="#2C365A"/>
<path d="M24.8056 30.4568C23.0353 31.1028 22.0145 32.7698 22.2212 34.6951C22.3375 35.703 22.5443 36.1682 23.2162 36.9047C24.0303 37.7964 24.8056 38.1194 26.1753 38.1194C27.1057 38.1194 27.377 38.0677 27.9456 37.7834C28.708 37.3958 29.4316 36.6334 29.8193 35.7935C30.2069 34.9536 30.194 33.3512 29.7934 32.5889C29.3799 31.7748 28.6563 31.0382 27.9327 30.6635C27.0669 30.2242 25.6972 30.1337 24.8056 30.4568Z" fill="#2C365A"/>
</svg>
