<svg width="50" height="50" viewBox="0 0 50 50" fill="none" xmlns="http://www.w3.org/2000/svg">
<path d="M21.7441 0.211426C21.1286 0.631508 21.0602 0.885509 21.0602 2.93707V4.75417L20.0149 4.8714C12.3753 5.7311 5.64423 10.4497 2.26404 17.3273C1.22849 19.4472 0.613026 21.3523 0.183175 23.7848C-0.0610583 25.1818 -0.0610583 29.6171 0.183175 31.0141C1.24803 37.0516 4.29606 42.0437 9.09281 45.6193C12.2581 47.9737 16.0388 49.4586 20.0735 49.9178C21.4119 50.0741 24.9973 49.9959 26.238 49.781C32.5294 48.6966 37.8635 45.2676 41.4 40.041C43.4125 37.0809 44.6922 33.5835 45.1026 29.959L45.2198 28.9137H47.0369C49.0884 28.9137 49.3425 28.8453 49.7625 28.2299C49.997 27.8879 49.997 27.8684 49.9482 26.0806C49.7821 20.5512 47.9357 15.3246 44.5164 10.7623C43.4809 9.38483 41.2241 7.05973 39.915 6.01441C36.0952 2.97615 31.5916 1.01251 26.6776 0.240734C26.1403 0.152813 24.8898 0.064888 23.8933 0.0258102C22.1056 -0.023037 22.086 -0.023037 21.7441 0.211426ZM25.6225 3.17154C35.9682 4.5197 44.1745 11.9444 46.4019 21.9775C46.6168 22.9544 46.949 25.2111 46.949 25.7094C46.949 25.8755 46.695 25.8852 42.4746 25.8852H37.9905L37.8733 25.0451C37.5411 22.6711 36.5544 20.1995 35.1574 18.2358C34.4442 17.2394 32.8616 15.6274 31.9042 14.9143C29.8819 13.4196 27.4689 12.4329 24.9777 12.0714L24.1376 11.9542L24.1083 7.48958C24.0887 3.11292 24.0887 3.02499 24.2743 3.02499C24.3818 3.02499 24.9875 3.09338 25.6225 3.17154ZM21.0602 10.8014C21.0602 13.654 21.07 13.8103 21.2654 14.162C21.5878 14.7384 21.9102 14.8654 23.1997 14.9436C26.5213 15.1585 29.2665 16.3699 31.4743 18.6071C33.5943 20.7466 34.7373 23.4429 35.0108 26.911C35.1085 28.1322 35.2355 28.4253 35.8217 28.7281C36.1636 28.904 36.4176 28.9137 39.1823 28.9137H42.1718L42.1131 29.4706C41.7419 32.5772 40.6477 35.6253 39.0065 38.0969C38.2054 39.3083 37.6779 39.9433 36.5446 41.1156C33.4478 44.3004 29.3739 46.3227 24.9191 46.8893C23.737 47.0456 21.1579 47.0163 19.8977 46.8404C16.41 46.352 13.1275 44.9257 10.314 42.6885C9.37612 41.9362 7.74464 40.295 7.08032 39.4158C4.95061 36.6315 3.60244 33.4272 3.12374 30.0274C2.89905 28.4057 2.9772 25.2991 3.27028 23.8141C4.09091 19.711 5.98616 16.2038 8.90719 13.3805C10.7536 11.5927 12.3851 10.4692 14.5539 9.50206C16.4296 8.6619 19.1259 7.93897 20.8453 7.82174L21.0602 7.81197V10.8014Z" fill="#2C365A"/>
<path d="M10.9001 14.5333C10.2065 14.8752 9.89388 15.8912 10.2553 16.5848C10.4605 16.9756 11.9747 18.4312 12.2971 18.5485C13.4401 18.9783 14.5832 18.0209 14.3585 16.8193C14.3096 16.536 14.0947 16.2527 13.4011 15.5395C12.2385 14.3379 11.7012 14.123 10.9001 14.5333Z" fill="#2C365A"/>
<path d="M20.6305 17.3371C16.6934 18.1577 13.6943 20.9713 12.6392 24.8106C12.4438 25.5433 12.4145 25.8462 12.4242 27.4483C12.4242 29.1189 12.4536 29.324 12.688 30.1349C14.046 34.6679 17.9439 37.6084 22.5941 37.6084C25.2123 37.6084 27.596 36.6608 29.5108 34.8535C30.986 33.4565 31.9531 31.8445 32.4612 29.9102C32.6858 29.0798 32.7152 28.7672 32.7152 27.3995C32.7152 26.0122 32.6858 25.7289 32.4612 24.8595C31.4842 21.2253 28.739 18.4703 25.1146 17.4836C24.0986 17.2003 21.6465 17.1222 20.6305 17.3371ZM24.7238 20.5414C25.8571 20.9127 26.6582 21.4207 27.6058 22.3683C28.231 22.9935 28.5436 23.3941 28.8465 23.9802C29.501 25.2502 29.6964 26.0415 29.6964 27.3506C29.7062 28.7086 29.5401 29.3827 28.9149 30.6624C28.1138 32.2939 26.5507 33.6323 24.7238 34.2478C23.6687 34.5995 22.1936 34.6776 21.0994 34.4432C20.1127 34.2282 18.7352 33.5542 17.9537 32.9094C15.4039 30.7992 14.6419 27.0771 16.1757 24.1463C17.1428 22.2901 18.7939 20.9517 20.8063 20.4046C21.8321 20.1311 23.6492 20.1897 24.7238 20.5414Z" fill="#2C365A"/>
<path d="M21.3631 22.8177C18.9403 23.4624 17.4651 25.8462 17.9341 28.3373C18.1783 29.6171 19.2139 31.0141 20.3569 31.5905C23.1216 32.9973 26.3845 31.5417 27.1661 28.5522C27.8206 26.0318 26.1599 23.3159 23.6198 22.7688C22.9262 22.6223 22.0079 22.6418 21.3631 22.8177ZM23.3072 25.8755C24.5968 26.5691 24.587 28.2592 23.2877 28.9235C22.809 29.1677 22.3694 29.1579 21.8418 28.8844C21.0993 28.5132 20.7281 27.7121 20.9528 26.9501C21.2654 25.9145 22.4084 25.387 23.3072 25.8755Z" fill="#2C365A"/>
<path d="M5.82007 26.0709C5.33161 26.3346 5.10691 26.6766 5.06783 27.2725C5.01899 27.927 5.25345 28.3862 5.78099 28.689C6.12292 28.8844 6.29877 28.9137 7.43201 28.9137C8.44802 28.9137 8.77041 28.8746 9.04395 28.7379C10.099 28.2103 10.099 26.5886 9.04395 26.0611C8.53594 25.7973 6.29877 25.8071 5.82007 26.0709Z" fill="#2C365A"/>
<path d="M11.8283 35.6741C11.5255 35.8402 10.021 37.3349 9.86467 37.628C9.67906 37.9797 9.68883 38.6244 9.89398 39.0445C10.1578 39.6111 10.8709 39.9335 11.5645 39.8065C11.8381 39.7577 12.1312 39.533 12.8346 38.8491C13.3426 38.3509 13.8213 37.8136 13.8896 37.6377C14.3293 36.6217 13.6161 35.5569 12.5219 35.5569C12.2484 35.5569 11.9358 35.6155 11.8283 35.6741Z" fill="#2C365A"/>
<path d="M32.0116 35.7229C31.3766 36.0356 31.0835 36.8464 31.3571 37.5498C31.5427 38.0187 33.057 39.5818 33.5063 39.7577C34.4833 40.1289 35.5188 39.4157 35.5188 38.3704C35.5188 38.1067 35.47 37.794 35.4114 37.6768C35.2551 37.3642 33.7603 35.8597 33.4477 35.6936C33.096 35.508 32.4219 35.5275 32.0116 35.7229Z" fill="#2C365A"/>
<path d="M21.8418 40.2266C21.6562 40.3243 21.4022 40.5881 21.285 40.7932C21.0896 41.1352 21.0603 41.311 21.0603 42.4442C21.0603 43.4603 21.0994 43.7826 21.2362 44.0562C21.7637 45.1113 23.3854 45.1113 23.9129 44.0562C24.0497 43.7826 24.0888 43.4603 24.0888 42.4442C24.0888 41.0472 23.9813 40.6858 23.4733 40.3048C23.1021 40.0312 22.2717 39.9921 21.8418 40.2266Z" fill="#2C365A"/>
</svg>
