<svg width="50" height="50" viewBox="0 0 50 50" fill="none" xmlns="http://www.w3.org/2000/svg">
<path d="M23.2422 2.02148C21.2207 2.2168 19.5703 2.56836 17.8613 3.13477C9.73632 5.84961 3.76953 12.5879 2.34374 20.6543C1.1621 27.3242 2.68554 33.7012 6.76757 39.1113C7.60742 40.2246 9.93164 42.5195 11.1035 43.3887C15.2344 46.4453 20.0098 48.0469 24.9902 48.0469C35.498 48.0469 44.7168 40.8984 47.3145 30.7227C47.8613 28.5742 47.9883 27.4707 47.9883 25C47.9981 22.5293 47.8711 21.4551 47.3242 19.2969C45.8594 13.5254 42.168 8.52539 36.9922 5.3125C34.2188 3.59375 30.5664 2.38281 27.1582 2.05078C26.2207 1.96289 24.0137 1.94336 23.2422 2.02148ZM26.6602 3.58398C26.6602 3.80859 24.3652 11.1914 24.2773 11.25C24.2187 11.2891 23.9941 11.3281 23.7793 11.3281C22.793 11.3281 20.7422 11.8359 19.541 12.3633C19.248 12.4902 19.0039 12.5879 18.9844 12.5684C18.9062 12.5 17.1973 5.03906 17.2363 4.98047C17.2852 4.89258 18.6426 4.43359 19.6289 4.16016C20.166 4.01367 22.1094 3.65234 22.7539 3.58398C23.3789 3.51562 26.6602 3.51562 26.6602 3.58398ZM30.2246 4.15039C32.3633 4.6875 34.2871 5.49805 36.2891 6.70898L37.1777 7.25586L34.2578 10.0098L31.3281 12.7637L30.4785 12.3926C29.3555 11.8945 28.0859 11.543 26.9531 11.4062C26.4453 11.3477 26.0156 11.2891 25.9961 11.2793C25.9863 11.2695 26.4844 9.58008 27.0996 7.5293C27.7148 5.46875 28.2227 3.7793 28.2227 3.75977C28.2227 3.69141 28.9648 3.83789 30.2246 4.15039ZM16.6406 9.38477C17.1094 11.4258 17.5195 13.1738 17.5391 13.2617C17.5684 13.3789 17.3535 13.584 16.875 13.916C16.0156 14.5215 14.7559 15.7422 14.0918 16.6309L13.5937 17.2852L10.9082 14.4336L8.22265 11.5723L8.53515 11.1816C9.05273 10.5176 10.7519 8.85742 11.5625 8.21289C12.9199 7.14844 15.2441 5.68359 15.625 5.67383C15.7422 5.66406 15.9668 6.50391 16.6406 9.38477ZM40.1367 9.76562C41.1035 10.7227 41.9141 11.6895 42.6953 12.793C43.3105 13.6621 44.2383 15.3027 44.2676 15.5566C44.2871 15.752 44.0527 15.8203 40.4785 16.6699C38.3887 17.168 36.6504 17.5684 36.6211 17.5684C36.5918 17.5684 36.3574 17.2559 36.084 16.875C35.4785 16.0156 34.248 14.7461 33.3691 14.0918L32.7148 13.5938L35.5664 10.9082L38.4277 8.22266L38.8184 8.53516C39.0234 8.70117 39.6191 9.25781 40.1367 9.76562ZM10.8105 16.5918L12.7637 18.6719L12.3926 19.5215C11.8945 20.6543 11.5332 21.9238 11.3965 23.0664C11.3086 23.8477 11.2598 24.0137 11.1328 23.9844C11.0547 23.9551 9.35546 23.4473 7.35351 22.8418L3.73046 21.748L3.77929 21.3965C3.89648 20.6152 4.49218 18.4473 4.83398 17.5293C5.27343 16.3477 5.98632 14.9121 6.71874 13.7109L7.25585 12.8125L8.05664 13.6621C8.49609 14.1211 9.73632 15.4395 10.8105 16.5918ZM25.7715 15.1074C26.0937 15.3418 26.3672 15.8789 26.3672 16.2598C26.3672 16.6504 26.0547 17.1387 25.6641 17.3828C24.7559 17.9297 23.5547 17.1777 23.6621 16.123C23.7695 15.0781 24.9512 14.5117 25.7715 15.1074ZM45.3223 17.9785C45.7129 19.0137 46.1621 20.957 46.3379 22.2949C46.4844 23.4473 46.543 26.6602 46.416 26.6602C46.1914 26.6602 38.8086 24.3652 38.75 24.2773C38.7109 24.2188 38.6719 23.9844 38.6719 23.7695C38.6719 22.8516 38.1348 20.6738 37.6367 19.5508C37.5098 19.2578 37.4121 19.0039 37.4316 18.9844C37.4902 18.9258 44.873 17.1973 44.9609 17.2266C45.0195 17.2363 45.1758 17.5781 45.3223 17.9785ZM19.7168 17.8613C20.3125 18.457 20.3125 19.1406 19.7363 19.7168C19.1504 20.3027 18.3789 20.3125 17.8418 19.7461C17.2754 19.1504 17.3047 18.3203 17.9199 17.7832C18.2227 17.5195 18.3496 17.4805 18.7988 17.4805C19.2871 17.4805 19.3652 17.5098 19.7168 17.8613ZM32.0898 17.793C33.1348 18.7598 32.2559 20.4102 30.8691 20.1074C29.8437 19.8828 29.5215 18.5352 30.3125 17.793C30.6152 17.5195 30.7324 17.4805 31.2012 17.4805C31.6699 17.4805 31.7871 17.5195 32.0898 17.793ZM26.8945 19.8145C29.5508 20.7617 31.1133 23.4668 30.5273 26.1035C29.5703 30.3906 24.4238 31.9336 21.3281 28.8574C20.5957 28.125 20.127 27.3242 19.873 26.3672C19.6875 25.6738 19.6875 24.3164 19.873 23.6328C20.3711 21.748 21.9043 20.2246 23.8379 19.6777C24.5898 19.4727 26.1328 19.5312 26.8945 19.8145ZM7.4121 24.4727C9.48242 25.0977 11.2109 25.6641 11.25 25.7227C11.2891 25.7812 11.3281 26.0059 11.3281 26.2207C11.3281 27.1777 11.8457 29.2871 12.3633 30.4492C12.4902 30.7422 12.5879 30.9961 12.5684 31.0156C12.4805 31.1133 5.01953 32.793 4.9707 32.7344C4.83398 32.5977 4.3164 30.9766 4.07226 29.9316C3.92578 29.3359 3.74999 28.3398 3.6621 27.7051C3.51562 26.5723 3.45703 23.3398 3.57421 23.3398C3.61328 23.3398 5.34179 23.8477 7.4121 24.4727ZM16.875 23.8281C17.0508 23.9355 17.2754 24.1602 17.3828 24.3359C18.0957 25.498 16.6504 26.9043 15.5176 26.1426C14.6094 25.5371 14.668 24.2969 15.6348 23.8086C16.0742 23.584 16.4746 23.584 16.875 23.8281ZM34.3652 23.8086C35.332 24.2969 35.3906 25.5371 34.4824 26.1426C33.3496 26.9043 31.9043 25.498 32.6172 24.3359C33.0176 23.6914 33.7207 23.4766 34.3652 23.8086ZM42.5977 27.1484L46.2695 28.252L46.2207 28.6035C46.1035 29.375 45.5078 31.5527 45.166 32.4707C44.7559 33.584 43.75 35.5762 43.1348 36.5332L42.7246 37.1777L39.9805 34.248L37.2363 31.3281L37.6074 30.4883C38.1055 29.3359 38.4668 28.0762 38.6035 26.9238C38.6719 26.3574 38.7598 25.9863 38.8184 26.0059C38.8672 26.0254 40.5762 26.543 42.5977 27.1484ZM19.4434 30.0293C20.1562 30.4004 20.3418 31.416 19.8145 32.0508C19.2969 32.6953 18.457 32.7344 17.8516 32.1582C17.373 31.6992 17.3047 30.8789 17.6953 30.3906C18.0957 29.9121 18.8867 29.7461 19.4434 30.0293ZM31.9043 30.0781C32.3535 30.3418 32.5391 30.6836 32.5391 31.2109C32.5391 31.9727 31.9629 32.5488 31.2012 32.5488C30.4395 32.5488 29.8633 31.9727 29.8633 31.2109C29.8633 30.4395 30.4297 29.8828 31.2012 29.8828C31.416 29.8828 31.7285 29.9707 31.9043 30.0781ZM13.916 33.125C14.5215 33.9844 15.752 35.2539 16.6211 35.9082L17.2852 36.4062L14.4238 39.0918L11.5723 41.7676L11.1816 41.4648C10.5664 40.9863 8.98437 39.375 8.32031 38.5547C7.1582 37.1289 5.5371 34.4727 5.71289 34.2969C5.76171 34.2383 13.0859 32.4512 13.3301 32.4316C13.3887 32.4316 13.6523 32.7441 13.916 33.125ZM25.6641 32.6172C26.3086 33.0176 26.5234 33.7207 26.1914 34.3652C25.7031 35.332 24.4629 35.3906 23.8574 34.4824C23.0957 33.3496 24.502 31.9043 25.6641 32.6172ZM38.3887 34.834C39.4824 36.0059 40.7031 37.2949 41.084 37.7051L41.7871 38.4473L40.9277 39.4141C39.9609 40.498 38.6426 41.6699 37.4023 42.5488C36.5918 43.125 34.6387 44.2969 34.3848 44.3555C34.2871 44.375 34.0039 43.3105 33.3398 40.4883C32.832 38.3398 32.4316 36.582 32.4414 36.5723C32.4609 36.5723 32.8223 36.3086 33.2422 35.9863C34.1602 35.3125 35.4297 34.0527 35.9863 33.2715C36.2012 32.9688 36.377 32.7148 36.3867 32.7148C36.3867 32.7148 37.2949 33.6719 38.3887 34.834ZM21.5723 38.291C22.1777 38.4473 22.9883 38.6035 23.3496 38.6426C23.9062 38.6914 24.0234 38.7305 23.9844 38.8574C23.9551 38.9453 23.4668 40.5762 22.9004 42.4805C22.334 44.3848 21.8457 46.0254 21.8164 46.1133C21.7773 46.2402 21.6895 46.2598 21.4062 46.2207C20.625 46.1035 18.457 45.5176 17.5293 45.166C16.416 44.7461 14.4141 43.75 13.4668 43.1445L12.8223 42.7246L15.7422 39.9805L18.6719 37.2363L19.5703 37.627C20.0586 37.8418 20.957 38.1348 21.5723 38.291ZM31.1426 37.8613C31.1914 38.125 31.5918 39.8242 32.0312 41.6406C32.4609 43.4668 32.7832 44.9902 32.7441 45.0293C32.4902 45.2637 30.1074 45.9375 28.4668 46.2402C27.5 46.4258 23.3398 46.5723 23.3398 46.4258C23.3398 46.377 23.8574 44.6191 24.4922 42.5293L25.6445 38.7207L26.416 38.6523C27.7441 38.5352 29.2676 38.1445 30.4687 37.6074C30.7129 37.5 30.9375 37.4121 30.9766 37.4121C31.0059 37.4023 31.084 37.6074 31.1426 37.8613Z" fill="#2C365A" stroke="#2C365A"/>
<path d="M23.7304 20.9668C22.4706 21.4063 21.328 22.6172 21.0448 23.8477C20.9862 24.0723 21.0155 24.1113 21.2792 24.1699C21.6503 24.2481 21.9726 24.6387 21.9726 25.0195C21.9726 25.3711 21.5038 25.8789 21.1913 25.8789C21.0058 25.8789 20.9862 25.918 21.0351 26.1426C21.3476 27.461 22.7245 28.8281 24.0331 29.1406C24.2577 29.1895 24.2968 29.1602 24.3456 28.916C24.5312 27.9785 25.8007 27.9981 26.0253 28.9356C26.1132 29.2481 26.1913 29.2383 27.1191 28.7988C28.1054 28.3203 28.9452 27.3535 29.2577 26.3184C29.3652 25.9375 29.3652 25.8789 29.2382 25.8789C28.9452 25.8789 28.5448 25.586 28.4179 25.293C28.3202 25.0586 28.3202 24.9414 28.4179 24.707C28.5448 24.4141 28.9452 24.1211 29.2382 24.1211C29.3652 24.1211 29.3652 24.0625 29.2577 23.6817C28.9452 22.6563 28.0956 21.6699 27.0995 21.1914C26.1913 20.7617 26.1034 20.752 26.0253 21.0645C25.7909 22.0117 24.5409 22.0313 24.3456 21.0938C24.287 20.7617 24.3066 20.7617 23.7304 20.9668Z" fill="#2C365A"/>
</svg>
