<svg width="50" height="50" viewBox="0 0 50 50" fill="none" xmlns="http://www.w3.org/2000/svg">
<g clip-path="url(#clip0_212_261)">
<path d="M40.5826 0.100983C39.8116 0.24786 39.1965 0.615047 38.3887 1.39532C37.7186 2.05626 37.5992 2.13887 37.4616 2.0379C37.3789 1.97364 37.0393 1.79005 36.7088 1.62481C36.1489 1.34942 36.0479 1.33106 35.1391 1.33106C34.2119 1.33106 34.1477 1.34024 33.4867 1.67071C32.8809 1.97364 32.5963 2.22149 30.8155 4.01153C28.9336 5.90255 28.8326 6.03106 28.7684 6.43497C28.695 6.93985 28.8694 7.43555 29.2916 7.867C29.466 8.04141 29.5487 8.21583 29.5211 8.29844C29.4844 8.38106 28.6123 9.88653 27.575 11.6582C26.5377 13.4207 25.6381 14.9904 25.583 15.1465C25.5096 15.3576 25.5188 15.5779 25.6014 15.991L25.7207 16.5418L21.7826 20.4799C18.2668 24.0049 17.817 24.418 17.6151 24.3721C16.9633 24.216 16.5319 24.216 16.2381 24.3721C16.0729 24.4547 14.6133 25.4277 12.9885 26.5201C11.3729 27.6125 9.98675 28.5488 9.92249 28.5856C9.8307 28.6406 9.63792 28.5029 9.27991 28.1541C8.98616 27.8787 8.66487 27.6033 8.55472 27.5483C8.27933 27.4106 7.75609 27.4197 7.39808 27.5758C6.93909 27.7777 3.26722 31.5322 2.99183 32.083C2.34925 33.3865 2.45941 34.9012 3.28558 36.067L3.46917 36.3149L2.5053 37.2787C1.26605 38.5088 1.04573 38.9311 1.05491 40.0234C1.05491 41.024 1.26605 41.483 2.16566 42.4102L2.82659 43.0986L1.9637 43.9707C1.04573 44.907 0.917219 45.1824 1.03655 45.8525C1.12835 46.3024 1.68831 46.8715 2.12894 46.9541C2.81741 47.0826 3.08362 46.9541 4.02913 46.0361L4.9012 45.1732L5.58968 45.8434C6.53519 46.7522 6.97581 46.9541 7.9764 46.9541C9.06878 46.9541 9.49105 46.7338 10.7211 45.4945L11.685 44.5307L11.9328 44.7143C13.0987 45.5404 14.6133 45.6506 15.9168 45.008C16.4676 44.7326 20.2221 41.0607 20.4241 40.6018C20.5801 40.2438 20.5893 39.7205 20.4516 39.4451C20.3965 39.335 20.1211 39.0137 19.8457 38.7199L19.3317 38.2059L20.369 36.6545C20.9473 35.81 21.8744 34.433 22.4344 33.5977C23.0035 32.7623 23.536 31.9453 23.6278 31.7709C23.7838 31.468 23.7838 31.0457 23.6278 30.3848C23.5819 30.1828 23.995 29.733 27.5108 26.2172L31.458 22.2791L32.0364 22.3984C32.7707 22.5453 32.7616 22.5453 35.0748 21.1775C38.9762 18.8734 39.7106 18.4512 39.784 18.4512C39.8207 18.4512 40.0135 18.5889 40.2063 18.7633C40.6285 19.1488 41.1518 19.3232 41.6383 19.2315C41.9412 19.1764 42.2717 18.8918 43.9883 17.1844C45.7783 15.4035 46.0262 15.119 46.3291 14.5131C46.6596 13.8522 46.6688 13.7879 46.6688 12.8608C46.6688 11.952 46.6504 11.851 46.375 11.291C46.2098 10.9606 46.0262 10.6209 45.9619 10.5383C45.861 10.4006 45.9436 10.2813 46.6045 9.61114C47.4307 8.75743 47.7612 8.17911 47.9172 7.26114C48.11 6.20547 47.7612 5.09473 46.9442 4.10333L46.5127 3.5709L47.2012 2.85489C47.9448 2.09298 48.0825 1.79005 47.9539 1.12911C47.8713 0.679302 47.3205 0.128521 46.8707 0.0459061C46.2098 -0.0826111 45.9069 0.0550842 45.145 0.798641L44.4289 1.48712L43.8965 1.05567C42.8408 0.183601 41.7393 -0.12851 40.5826 0.100983ZM43.3366 4.65411C44.3922 5.70977 44.9797 6.37071 45.0164 6.52676C45.0899 6.86641 44.9063 7.19688 44.2912 7.80274L43.7772 8.30762L41.7393 6.26056L39.6922 4.22266L40.1512 3.7545C40.4082 3.49747 40.7387 3.20372 40.8856 3.10274C41.3905 2.78145 41.5741 2.89161 43.3366 4.65411ZM39.6647 8.33516L43.7772 12.4385V12.8516C43.7772 13.2463 43.7496 13.2738 42.5379 14.4947L41.2987 15.7432L36.7823 11.2176L32.2567 6.70118L33.5051 5.46192C34.726 4.2502 34.7535 4.22266 35.1483 4.22266H35.5614L39.6647 8.33516ZM37.5075 16.3031C37.4524 16.3582 36.4242 16.9733 35.2401 17.6709C34.0559 18.3594 33.0002 18.9836 32.8901 19.0479C32.7157 19.1672 32.5688 19.0387 30.7696 17.2303L28.8326 15.2842L30.0903 13.1729C30.7787 12.007 31.4305 10.8963 31.5498 10.6943L31.761 10.3455L34.6985 13.2738C36.9567 15.532 37.5992 16.2205 37.5075 16.3031ZM25.4637 24.1426L21.5623 28.044L20.7637 27.2361L19.9559 26.4375L23.8573 22.5361L27.7586 18.6348L28.5573 19.4334L29.3651 20.2412L25.4637 24.1426ZM18.5239 29.5035L20.3965 31.3762L18.8084 33.7354L17.2112 36.0854L14.5766 33.4508C13.117 31.9912 11.942 30.7887 11.9696 30.7703C12.043 30.6969 16.5594 27.64 16.6053 27.6309C16.6328 27.6309 17.4957 28.4754 18.5239 29.5035ZM12.5203 35.5254L17.0184 40.0234L15.825 41.2076C14.6409 42.3826 14.3471 42.5754 13.9248 42.4652C13.8055 42.4377 11.8686 40.565 9.61038 38.2977C5.25921 33.9465 5.32347 34.0199 5.59886 33.4783C5.69984 33.2764 7.8846 31.0274 7.9764 31.0274C8.00394 31.0274 10.051 33.0561 12.5203 35.5254ZM8.80257 43.2822L7.9764 44.1084L5.93851 42.0705L3.89144 40.0234L4.71761 39.1973L5.54378 38.3711L7.58167 40.409L9.62874 42.4561L8.80257 43.2822Z" fill="#2C365A"/>
</g>
<defs>
<clipPath id="clip0_212_261">
<rect width="47" height="47" fill="white" transform="translate(1)"/>
</clipPath>
</defs>
</svg>
