<svg width="50" height="50" viewBox="0 0 50 50" fill="none" xmlns="http://www.w3.org/2000/svg">
<path d="M14.2143 0.618778C13.7857 0.886635 13.5714 1.28842 13.5714 1.86878C13.5714 2.44913 13.7857 2.85092 14.2143 3.11878C14.4911 3.28842 14.6696 3.29735 17.6161 3.29735H20.7143V6.72592V8.15449H16.8304C13.1161 8.15449 12.9286 8.16342 12.4554 8.34199C11.7946 8.59199 11.1518 9.23485 10.9018 9.89556C10.7232 10.3688 10.7143 10.5652 10.7143 13.5563V16.7259H9.28571H5.85714V13.6188C5.85714 10.6813 5.84821 10.5027 5.67857 10.2259C5.41071 9.79735 5.00893 9.58306 4.42857 9.58306C3.84821 9.58306 3.44643 9.79735 3.17857 10.2259C3.00893 10.5116 3 10.6902 3 18.1545C3 25.6188 3.00893 25.7973 3.17857 26.0831C3.44643 26.5116 3.84821 26.7259 4.42857 26.7259C5.00893 26.7259 5.41071 26.5116 5.67857 26.0831C5.84821 25.8063 5.85714 25.6277 5.85714 22.6813V19.5831H9.28571H10.7143V22.3866C10.7143 25.3777 10.7411 25.5831 11.1875 26.2706C11.4911 26.7259 16.9107 30.7706 17.4107 30.9045C17.7143 30.9938 19.4375 31.0116 24.6875 30.9938L31.5625 30.967L32.0089 30.7438C32.6161 30.4491 33.1607 29.8598 33.3839 29.2616C33.5536 28.8152 33.5714 28.5741 33.5714 26.3241V23.8688H35H38.4286V26.2527C38.4286 28.4848 38.4375 28.6634 38.6071 28.9402C38.7054 29.1009 38.9107 29.3063 39.0714 29.4045C39.3393 29.5652 39.5268 29.5831 41.4375 29.5831C43.2143 29.5831 43.5804 29.5563 44.0446 29.4134C45.3571 29.0027 46.4732 27.8777 46.8571 26.5563C46.9821 26.1277 47 25.1813 47 18.8688C47 12.5563 46.9821 11.6098 46.8571 11.1813C46.4732 9.85985 45.3571 8.73485 44.0446 8.32413C43.5804 8.18128 43.2143 8.15449 41.4375 8.15449C39.5268 8.15449 39.3393 8.17235 39.0714 8.33306C38.9107 8.43128 38.7054 8.63663 38.6071 8.79735C38.4375 9.07413 38.4286 9.2527 38.4286 11.4759V13.8688H35H33.5714V12.1277C33.5714 10.592 33.5536 10.342 33.3839 9.89556C33.1339 9.23485 32.4911 8.59199 31.8304 8.34199C31.3571 8.16342 31.1696 8.15449 27.4554 8.15449H23.5714V6.72592V3.29735H26.6786C29.6161 3.29735 29.7946 3.28842 30.0714 3.11878C30.5 2.85092 30.7143 2.44913 30.7143 1.86878C30.7143 1.28842 30.5 0.886635 30.0714 0.618778C29.7857 0.449135 29.6071 0.440207 22.1429 0.440207C14.6786 0.440207 14.5 0.449135 14.2143 0.618778ZM30.7143 13.3956C30.7143 15.6277 30.7232 15.8063 30.8929 16.0831C30.9911 16.2438 31.1964 16.4491 31.3571 16.5473C31.6339 16.717 31.8125 16.7259 35 16.7259C38.1875 16.7259 40.3661 16.717 40.6429 16.5473C40.8036 16.4491 41.0089 16.2438 41.1071 16.0831C41.2768 15.8063 41.2857 15.6277 41.2857 13.3866V10.9848L42.1696 11.0295C43.3839 11.092 43.8661 11.3866 44.0536 12.2259C44.1607 12.6813 44.1607 25.0563 44.0536 25.5116C43.8661 26.3509 43.3839 26.6456 42.1696 26.7081L41.2857 26.7527V24.3509C41.2857 22.1098 41.2768 21.9313 41.1071 21.6545C41.0089 21.4938 40.8036 21.2884 40.6429 21.1902C40.3661 21.0206 38.1875 21.0116 35 21.0116C31.8125 21.0116 31.6339 21.0206 31.3571 21.1902C31.1964 21.2884 30.9911 21.4938 30.8929 21.6545C30.7232 21.9313 30.7143 22.1098 30.7143 25.0473V28.1545H24.5714H18.4196L16 26.3509L13.5804 24.5384L13.5714 17.7706V11.0116H22.1429H30.7143V13.3956Z" fill="#2C365A"/>
<path d="M21.3659 14.0474C21.1605 14.1724 20.5712 14.967 19.4641 16.6366L17.8569 19.0563V19.5652C17.8569 20.1366 18.0534 20.5474 18.4551 20.8063C18.6605 20.9402 18.9641 20.9759 20.4641 21.0116L22.223 21.0563L21.473 22.1991C20.7498 23.3063 20.7141 23.3688 20.7141 23.8509C20.7141 24.4491 20.9194 24.8509 21.3569 25.1188C21.7587 25.3599 22.5266 25.3599 22.9194 25.1188C23.1248 24.9938 23.7141 24.1991 24.8212 22.5295L26.4284 20.1099V19.6009C26.4284 19.0295 26.2319 18.6188 25.8301 18.3599C25.6248 18.2259 25.3212 18.1902 23.8212 18.1545L22.0623 18.1099L22.8123 16.967C23.5355 15.8599 23.5712 15.7974 23.5712 15.3152C23.5712 14.717 23.3659 14.3152 22.9284 14.0474C22.5266 13.8063 21.7587 13.8063 21.3659 14.0474Z" fill="#2C365A"/>
</svg>
