<svg width="50" height="50" viewBox="0 0 50 50" fill="none" xmlns="http://www.w3.org/2000/svg">
<path fill-rule="evenodd" clip-rule="evenodd" d="M11.7286 9.5C11.2794 9.5 10.9153 9.91618 10.9153 10.4296V39.5994C10.9153 40.1128 11.2794 40.529 11.7286 40.529H39.1252C39.5744 40.529 39.9385 40.1128 39.9385 39.5994V10.4296C39.9385 9.91618 39.5744 9.5 39.1252 9.5H11.7286ZM14.2171 38.5631C14.2174 38.5635 14.2172 38.5641 14.2167 38.5641H13.5304C13.0812 38.5641 12.717 38.1479 12.717 37.6346V12.2231C12.717 11.7497 13.0528 11.366 13.467 11.366C13.8812 11.366 14.217 11.7497 14.217 12.2231V38.5627C14.217 38.5629 14.217 38.563 14.2171 38.5631ZM17.6384 38.5641H16.9478C16.4986 38.5641 16.1344 38.1479 16.1344 37.6346V12.2202C16.1344 11.7485 16.4691 11.366 16.8819 11.366C17.2947 11.366 17.6293 11.7485 17.6293 12.2202V38.5538C17.6293 38.5595 17.6334 38.5641 17.6384 38.5641ZM21.0588 38.5641H20.3642C19.915 38.5641 19.5508 38.1479 19.5508 37.6346V12.2225C19.5508 11.7495 19.8864 11.366 20.3003 11.366C20.7142 11.366 21.0498 11.7495 21.0498 12.2225V38.5538C21.0498 38.5595 21.0538 38.5641 21.0588 38.5641ZM24.4792 38.5641H23.7816C23.3324 38.5641 22.9682 38.1479 22.9682 37.6346V12.2243C22.9682 11.7503 23.3044 11.366 23.7192 11.366C24.134 11.366 24.4702 11.7503 24.4702 12.2243V38.5538C24.4702 38.5595 24.4742 38.5641 24.4792 38.5641ZM27.8997 38.5641H27.195C26.7457 38.5641 26.3816 38.1479 26.3816 37.6346V12.2231C26.3816 11.7497 26.7174 11.366 27.1316 11.366C27.5458 11.366 27.8815 11.7497 27.8815 12.2231V38.5434C27.8815 38.5549 27.8897 38.5641 27.8997 38.5641ZM31.3201 38.5641H30.6154C30.1662 38.5641 29.802 38.1479 29.802 37.6346V12.2231C29.802 11.7497 30.1378 11.366 30.552 11.366C30.9662 11.366 31.302 11.7497 31.302 12.2231V38.5434C31.302 38.5549 31.3101 38.5641 31.3201 38.5641ZM34.7405 38.5641H34.0358C33.5866 38.5641 33.2224 38.1479 33.2224 37.6346V12.2231C33.2224 11.7497 33.5582 11.366 33.9724 11.366C34.3866 11.366 34.7224 11.7497 34.7224 12.2231V38.5434C34.7224 38.5549 34.7305 38.5641 34.7405 38.5641ZM38.1609 38.5641H37.4492C37 38.5641 36.6358 38.1479 36.6358 37.6346V12.2231C36.6358 11.7497 36.9716 11.366 37.3858 11.366C37.8 11.366 38.1358 11.7497 38.1358 12.2231V38.5354C38.1358 38.5513 38.147 38.5641 38.1609 38.5641Z" fill="#2C365A"/>
<path d="M9 6.33805C9 5.69632 9.4552 5.1761 10.0167 5.1761H40.6574C41.2189 5.1761 41.6741 5.69632 41.6741 6.33805C41.6741 6.97978 41.2189 7.5 40.6574 7.5H10.0167C9.4552 7.5 9 6.97978 9 6.33805Z" fill="#2C365A"/>
<path d="M9 43.662C9 43.0202 9.4552 42.5 10.0167 42.5H40.6574C41.2189 42.5 41.6741 43.0202 41.6741 43.662C41.6741 44.3037 41.2189 44.8239 40.6574 44.8239H10.0167C9.4552 44.8239 9 44.3037 9 43.662Z" fill="#2C365A"/>
<path d="M22.0836 2C22.0836 1.35827 22.5388 0.838049 23.1003 0.838049H28.3872C28.9487 0.838049 29.4039 1.35827 29.4039 2C29.4039 2.64173 28.9487 3.16195 28.3872 3.16195H23.1003C22.5388 3.16195 22.0836 2.64173 22.0836 2Z" fill="#2C365A"/>
<path d="M22.0836 48.112C22.0836 47.4703 22.5388 46.95 23.1003 46.95H28.3872C28.9487 46.95 29.4039 47.4703 29.4039 48.112C29.4039 48.7537 28.9487 49.2739 28.3872 49.2739H23.1003C22.5388 49.2739 22.0836 48.7537 22.0836 48.112Z" fill="#2C365A"/>
<path fill-rule="evenodd" clip-rule="evenodd" d="M11.7286 9.5C11.2794 9.5 10.9153 9.91618 10.9153 10.4296V39.5994C10.9153 40.1128 11.2794 40.529 11.7286 40.529H39.1252C39.5744 40.529 39.9385 40.1128 39.9385 39.5994V10.4296C39.9385 9.91618 39.5744 9.5 39.1252 9.5H11.7286ZM14.2171 38.5631C14.2174 38.5635 14.2172 38.5641 14.2167 38.5641H13.5304C13.0812 38.5641 12.717 38.1479 12.717 37.6346V12.2231C12.717 11.7497 13.0528 11.366 13.467 11.366C13.8812 11.366 14.217 11.7497 14.217 12.2231V38.5627C14.217 38.5629 14.217 38.563 14.2171 38.5631ZM17.6384 38.5641H16.9478C16.4986 38.5641 16.1344 38.1479 16.1344 37.6346V12.2202C16.1344 11.7485 16.4691 11.366 16.8819 11.366C17.2947 11.366 17.6293 11.7485 17.6293 12.2202V38.5538C17.6293 38.5595 17.6334 38.5641 17.6384 38.5641ZM21.0588 38.5641H20.3642C19.915 38.5641 19.5508 38.1479 19.5508 37.6346V12.2225C19.5508 11.7495 19.8864 11.366 20.3003 11.366C20.7142 11.366 21.0498 11.7495 21.0498 12.2225V38.5538C21.0498 38.5595 21.0538 38.5641 21.0588 38.5641ZM24.4792 38.5641H23.7816C23.3324 38.5641 22.9682 38.1479 22.9682 37.6346V12.2243C22.9682 11.7503 23.3044 11.366 23.7192 11.366C24.134 11.366 24.4702 11.7503 24.4702 12.2243V38.5538C24.4702 38.5595 24.4742 38.5641 24.4792 38.5641ZM27.8997 38.5641H27.195C26.7457 38.5641 26.3816 38.1479 26.3816 37.6346V12.2231C26.3816 11.7497 26.7174 11.366 27.1316 11.366C27.5458 11.366 27.8815 11.7497 27.8815 12.2231V38.5434C27.8815 38.5549 27.8897 38.5641 27.8997 38.5641ZM31.3201 38.5641H30.6154C30.1662 38.5641 29.802 38.1479 29.802 37.6346V12.2231C29.802 11.7497 30.1378 11.366 30.552 11.366C30.9662 11.366 31.302 11.7497 31.302 12.2231V38.5434C31.302 38.5549 31.3101 38.5641 31.3201 38.5641ZM34.7405 38.5641H34.0358C33.5866 38.5641 33.2224 38.1479 33.2224 37.6346V12.2231C33.2224 11.7497 33.5582 11.366 33.9724 11.366C34.3866 11.366 34.7224 11.7497 34.7224 12.2231V38.5434C34.7224 38.5549 34.7305 38.5641 34.7405 38.5641ZM38.1609 38.5641H37.4492C37 38.5641 36.6358 38.1479 36.6358 37.6346V12.2231C36.6358 11.7497 36.9716 11.366 37.3858 11.366C37.8 11.366 38.1358 11.7497 38.1358 12.2231V38.5354C38.1358 38.5513 38.147 38.5641 38.1609 38.5641Z" stroke="#2C365A" stroke-width="0.7"/>
<path d="M9 6.33805C9 5.69632 9.4552 5.1761 10.0167 5.1761H40.6574C41.2189 5.1761 41.6741 5.69632 41.6741 6.33805C41.6741 6.97978 41.2189 7.5 40.6574 7.5H10.0167C9.4552 7.5 9 6.97978 9 6.33805Z" stroke="#2C365A" stroke-width="0.7"/>
<path d="M9 43.662C9 43.0202 9.4552 42.5 10.0167 42.5H40.6574C41.2189 42.5 41.6741 43.0202 41.6741 43.662C41.6741 44.3037 41.2189 44.8239 40.6574 44.8239H10.0167C9.4552 44.8239 9 44.3037 9 43.662Z" stroke="#2C365A" stroke-width="0.7"/>
<path d="M22.0836 2C22.0836 1.35827 22.5388 0.838049 23.1003 0.838049H28.3872C28.9487 0.838049 29.4039 1.35827 29.4039 2C29.4039 2.64173 28.9487 3.16195 28.3872 3.16195H23.1003C22.5388 3.16195 22.0836 2.64173 22.0836 2Z" stroke="#2C365A" stroke-width="0.7"/>
<path d="M22.0836 48.112C22.0836 47.4703 22.5388 46.95 23.1003 46.95H28.3872C28.9487 46.95 29.4039 47.4703 29.4039 48.112C29.4039 48.7537 28.9487 49.2739 28.3872 49.2739H23.1003C22.5388 49.2739 22.0836 48.7537 22.0836 48.112Z" stroke="#2C365A" stroke-width="0.7"/>
</svg>
