<svg width="50" height="50" viewBox="0 0 50 50" fill="none" xmlns="http://www.w3.org/2000/svg">
<path d="M2 42C2 44.7614 4.23858 47 7 47H44C46.7614 47 49 44.7614 49 42V5C49 2.23858 46.7614 0 44 0H7C4.23858 0 2 2.23858 2 5V42ZM46.2461 39.2461C46.2461 42.0075 44.0075 44.2461 41.2461 44.2461H9.75391C6.99248 44.2461 4.75391 42.0075 4.75391 39.2461V7.75391C4.75391 4.99248 6.99248 2.75391 9.75391 2.75391H41.2461C44.0075 2.75391 46.2461 4.99248 46.2461 7.75391V39.2461Z" fill="#2C365A"/>
<path d="M7.89336 6.01269L6.94785 7.05L7.48027 7.5457C7.77402 7.82109 8.24219 8.26172 8.52676 8.52793L9.05 9.00527L9.5457 8.47285C9.82109 8.1791 10.2617 7.71093 10.5279 7.42636L11.0053 6.90312L10.4728 6.40742C9.25195 5.26914 8.9123 4.95703 8.87558 4.96621C8.85723 4.96621 8.4166 5.44355 7.89336 6.01269Z" fill="#2C365A"/>
<path d="M40.9402 6.01269L39.9947 7.05L40.5271 7.5457C40.8209 7.82109 41.2891 8.26171 41.5736 8.51875L42.0969 9.00527L43.0424 7.98632C43.5656 7.42636 44.0063 6.93984 44.0154 6.90312C44.0246 6.83886 41.9867 4.94785 41.9225 4.96621C41.9041 4.96621 41.4635 5.44355 40.9402 6.01269Z" fill="#2C365A"/>
<path d="M22.8379 5.74648C15.0076 6.93984 8.89395 13.0811 7.74648 20.9389C7.55371 22.224 7.55371 24.776 7.74648 26.0611C8.90313 33.9465 15.0627 40.1152 22.9389 41.2627C24.224 41.4463 26.7852 41.4463 28.0611 41.2535C33.826 40.409 38.7463 36.9023 41.4176 31.7525C42.3906 29.8799 42.9506 28.1357 43.2535 26.0611C43.4463 24.776 43.4463 22.224 43.2535 20.9389C42.0969 13.0352 35.9649 6.90312 28.0611 5.74648C26.8311 5.56289 24.0496 5.56289 22.8379 5.74648ZM28.0061 8.6289C29.4565 8.87675 30.916 9.36328 32.293 10.0609C33.7709 10.8137 34.9367 11.6582 36.0934 12.7965C37.0848 13.7787 37.1031 13.843 36.3504 13.8521C35.8731 13.8613 34.2574 14.2193 33.3486 14.5223C30.5121 15.4494 27.7398 17.4506 26.0232 19.8098C25.7203 20.232 25.4449 20.535 25.4082 20.4982C25.2797 20.3422 24.8666 19.2773 24.6738 18.5889C23.7742 15.3852 24.2148 11.851 25.8672 9.07871C26.2252 8.47285 26.2527 8.44531 26.5924 8.44531C26.7943 8.44531 27.4277 8.52793 28.0061 8.6289ZM22.691 8.96855C22.3422 9.75801 21.8098 11.4287 21.6354 12.2732C21.3967 13.4482 21.3049 15.8258 21.4518 17.0375C21.6354 18.5154 22.2688 20.7185 22.8104 21.7834C22.8838 21.9303 22.9297 22.068 22.9022 22.0863C22.8379 22.1506 21.5986 21.9486 20.7908 21.7467C17.6789 20.9664 14.8791 18.8459 13.1992 16.0002L12.8137 15.3301L13.3461 14.5773C14.0805 13.5584 15.6318 12.0254 16.6875 11.2727C17.6606 10.575 19.3221 9.69375 20.3594 9.31738C20.9561 9.10625 22.5625 8.64726 22.7736 8.6289C22.8104 8.6289 22.7736 8.78496 22.691 8.96855ZM39.1777 17.1752C39.5449 17.8912 40.0406 19.3967 40.3068 20.535C40.4813 21.3244 40.5088 21.6916 40.4996 23.5C40.4996 25.7123 40.4262 26.2539 39.9488 27.8328L39.701 28.6314L39.2879 28.0623C38.324 26.7404 36.3963 25.0055 34.9092 24.1242C33.1283 23.0685 31.0354 22.3617 28.9699 22.123L27.9877 22.0037L28.2815 21.5814C28.7037 20.9572 29.9338 19.718 30.6773 19.1396C31.9625 18.1574 33.4221 17.4414 34.9826 17.0283C36.1301 16.7254 36.7268 16.6428 37.9109 16.6244L38.9024 16.6152L39.1777 17.1752ZM13.0064 20.4064C13.9061 21.3336 15.0902 22.2791 16.1092 22.8941C17.8717 23.9498 20.185 24.6934 22.3973 24.9228L23.0123 24.9871L22.7277 25.4185C22.2412 26.1254 20.5522 27.741 19.7168 28.2826C17.6606 29.6412 15.7328 30.2654 13.3645 30.3572L12.116 30.4123L11.8223 29.834C11.3725 28.9435 10.8309 27.2269 10.6289 26.0336C10.2617 23.8764 10.427 21.2234 11.042 19.1947L11.299 18.3686L11.7121 18.9377C11.9416 19.2498 12.5199 19.9107 13.0064 20.4064ZM29.6309 25.1248C32.9815 25.7857 35.974 27.9521 37.81 31.0273L38.1863 31.6699L37.6539 32.4226C36.9287 33.4324 35.3682 34.9746 34.3125 35.7273C33.2568 36.4709 31.6229 37.3338 30.5029 37.7285C29.7594 37.9855 28.2447 38.3986 28.1988 38.3435C28.1897 38.3344 28.3457 37.9305 28.5385 37.4531C29.7318 34.4881 29.9613 30.9631 29.1719 27.9521C28.9699 27.1994 28.4283 25.6664 28.1988 25.2258C28.1254 25.0881 28.0703 24.9504 28.0703 24.9228C28.0703 24.8586 28.667 24.932 29.6309 25.1248ZM25.8947 27.1443C26.2068 27.8971 26.5648 29.2373 26.6842 30.1369C27.0422 32.7715 26.4547 35.6906 25.1236 37.9396L24.7473 38.5822L24.0404 38.518C21.5619 38.2976 18.8539 37.2695 16.6967 35.7273C15.8613 35.1307 13.952 33.359 14.0529 33.2672C14.0805 33.2396 14.5211 33.157 15.0443 33.0836C19.0191 32.5328 22.792 30.2562 25.0777 27.0525C25.3256 26.7037 25.5551 26.4559 25.5918 26.5018C25.6193 26.5385 25.757 26.8322 25.8947 27.1443Z" fill="#2C365A"/>
<path d="M7.89336 39.0412L6.95703 40.0693L7.98516 41.0516C8.5543 41.5932 9.04082 42.0338 9.06836 42.0338C9.0959 42.0338 9.53652 41.5564 10.0598 40.9873L11.0053 39.95L10.4729 39.4543C9.25195 38.316 8.9123 38.0039 8.87559 38.0131C8.85723 38.0131 8.4166 38.4813 7.89336 39.0412Z" fill="#2C365A"/>
<path d="M41.0045 39.0137C40.4813 39.5736 40.0406 40.0602 40.0314 40.0969C40.0314 40.1336 40.4904 40.5834 41.0596 41.1066L42.0969 42.0521L42.5926 41.5197C42.868 41.226 43.2994 40.7578 43.5656 40.4732L44.0338 39.9684L43.4646 39.4176C43.1525 39.1238 42.6844 38.674 42.4273 38.4353L41.9592 37.9947L41.0045 39.0137Z" fill="#2C365A"/>
</svg>
