<svg width="50" height="50" viewBox="0 0 50 50" fill="none" xmlns="http://www.w3.org/2000/svg">
<path d="M22.0215 0.106893C17.6367 0.595174 13.0078 2.519 9.44336 5.3315C8.4375 6.12252 6.35742 8.19283 5.51758 9.22799C3.23242 12.0503 1.54297 15.4585 0.683594 18.9546C0.126953 21.2299 0.0488281 21.9624 0.0488281 24.9897C0.0488281 28.0171 0.126953 28.7495 0.683594 31.0249C1.33789 33.6713 2.60742 36.5815 4.0625 38.7592C6.9043 43.0171 11.0547 46.4155 15.5957 48.2221C18.7402 49.4721 21.5039 49.9897 25 49.9897C29.1309 49.9897 32.6758 49.1694 36.1719 47.4116C38.8281 46.0737 40.8691 44.5796 42.9688 42.4116C46.8066 38.4565 49.1797 33.5249 49.8535 28.1147C50.0488 26.5229 50.0488 23.4565 49.8535 21.8647C49.2969 17.4018 47.4609 13.0073 44.6582 9.43307C43.8379 8.38814 41.1914 5.80025 40.127 4.99947C36.5918 2.35299 32.4414 0.673299 28.125 0.13619C26.7871 -0.0298256 23.3496 -0.0493568 22.0215 0.106893ZM27.832 3.1733C33.291 3.89596 38.3008 6.6401 41.8164 10.8296C45.2051 14.8628 46.9727 19.7163 46.9727 24.9897C46.9727 29.4135 45.7617 33.4565 43.3691 37.06C39.1992 43.3393 32.4414 46.9819 24.9609 46.9721C19.043 46.9624 13.6719 44.726 9.47266 40.5171C5.24414 36.2983 3.02734 30.9467 3.02734 24.9897C3.02734 20.9272 4.0332 17.2163 6.05469 13.8276C10.5859 6.21041 19.1406 2.03072 27.832 3.1733Z" fill="#2C365A"/>
<circle cx="25" cy="25" r="18.5" stroke="#2C365A" stroke-width="3"/>
<circle cx="25" cy="25" r="9.5" stroke="#2C365A" stroke-width="3"/>
<circle cx="25" cy="11" r="2" fill="#2C365A"/>
<circle cx="25" cy="39" r="2" fill="#2C365A"/>
<circle cx="25" cy="11" r="2" fill="#2C365A"/>
<circle cx="25" cy="39" r="2" fill="#2C365A"/>
<circle cx="11" cy="25" r="2" transform="rotate(-90 11 25)" fill="#2C365A"/>
<circle cx="39" cy="25" r="2" transform="rotate(-90 39 25)" fill="#2C365A"/>
<circle cx="15.1004" cy="15.1005" r="2" transform="rotate(-45 15.1004 15.1005)" fill="#2C365A"/>
<circle cx="34.8995" cy="34.8995" r="2" transform="rotate(-45 34.8995 34.8995)" fill="#2C365A"/>
<circle cx="2" cy="2" r="2" transform="matrix(-0.707107 -0.707107 -0.707107 0.707107 37.728 15.1005)" fill="#2C365A"/>
<circle cx="2" cy="2" r="2" transform="matrix(-0.707107 -0.707107 -0.707107 0.707107 17.929 34.8995)" fill="#2C365A"/>
</svg>
