<svg width="50" height="50" viewBox="0 0 50 50" fill="none" xmlns="http://www.w3.org/2000/svg">
<path d="M23.207 1.75781C23.207 2.72863 22.42 3.51562 21.4492 3.51562H21.2539L19.7367 3.50064C19.6944 3.50022 19.6528 3.51186 19.6168 3.53419C19.4203 3.65624 19.2974 3.86198 19.2878 4.09312C19.1789 6.72154 18.4177 22.3941 18.3633 22.9199C18.3301 23.2688 18.0371 23.5352 17.6867 23.5352H16.3125C15.2122 23.5352 14.3203 24.4271 14.3203 25.5273V26.4648V27.7344C14.3203 28.6513 13.577 29.3945 12.6602 29.3945H12.4648C11.6558 29.3945 11 30.0504 11 30.8594C11 31.6684 11.6558 32.3242 12.4648 32.3242H13.7734H16.2292C16.3916 32.3242 16.5074 32.4817 16.459 32.6367C16.3223 33.125 16.3516 34.5801 16.5078 35.1074C16.5859 35.3613 16.8105 35.8301 17.0059 36.1426C17.2218 36.4965 17.2225 36.9414 17.0076 37.296L16.9668 37.3633C16.4688 38.1836 16.332 38.7891 16.3906 39.9512C16.4199 40.7324 16.4785 40.9668 16.7422 41.5137C17.2891 42.666 18.1582 43.4375 19.3496 43.8477C19.877 44.0332 20.1699 44.043 23.5195 44.043H25.5996C26.4356 44.043 27.1133 44.7207 27.1133 45.5566C27.1133 46.3926 26.4356 47.0703 25.5996 47.0703H22.7188H19.7891C18.9801 47.0703 18.3242 47.7261 18.3242 48.5352C18.3242 49.3442 18.9801 50 19.7891 50H24.1836H27.043C28.6998 50 30.043 48.6569 30.043 47V46.9336V44.4961C30.043 44.1116 30.2631 43.7609 30.6094 43.5938C31.3809 43.2227 32.1816 42.3926 32.582 41.5527C32.8652 40.9668 32.9141 40.7422 32.9531 39.9512C33.0117 38.7891 32.875 38.1836 32.377 37.3633L32.3362 37.296C32.1212 36.9414 32.1219 36.4965 32.3379 36.1426C32.5332 35.8301 32.7578 35.3613 32.8359 35.1074C32.9922 34.5801 33.0215 33.125 32.8848 32.6367C32.8363 32.4817 32.9521 32.3242 33.1145 32.3242H35.5703H36.8789C37.6879 32.3242 38.3438 31.6684 38.3438 30.8594C38.3438 30.0504 37.6879 29.3945 36.8789 29.3945H36.6836C35.7667 29.3945 35.0234 28.6513 35.0234 27.7344V26.4648V25.5273C35.0234 24.4271 34.1315 23.5352 33.0312 23.5352H31.6571C31.3067 23.5352 31.0137 23.2688 30.9805 22.9199C30.9255 22.3886 30.1488 6.40037 30.0527 4.01649C30.0455 3.83823 29.9508 3.67323 29.7992 3.5791C29.7161 3.52744 29.6199 3.50051 29.522 3.50148L28.0898 3.51562H27.8945C26.9237 3.51562 26.1367 2.72863 26.1367 1.75781V1.46484C26.1367 0.655834 25.4809 0 24.6719 0C23.8629 0 23.207 0.655834 23.207 1.46484V1.75781ZM27.1523 7.14844C27.1816 7.49023 27.3672 11.0352 27.5527 15.0391C27.7383 19.043 27.9141 22.5879 27.9434 22.9199C27.9748 23.2498 27.7153 23.5352 27.3839 23.5352H24.6719H21.9112C21.6067 23.5352 21.3691 23.2717 21.4004 22.9688C21.4297 22.666 21.6055 19.0723 21.791 14.9902C21.9863 10.9082 22.1621 7.33398 22.1914 7.05078C22.2191 6.76279 22.4611 6.54297 22.7504 6.54297H24.6719H26.4855C26.8305 6.54297 27.1191 6.805 27.1523 7.14844ZM31.9961 27.9297C31.9961 28.7387 31.3403 29.3945 30.5312 29.3945H24.6719H18.8125C18.0035 29.3945 17.3477 28.7387 17.3477 27.9297C17.3477 27.1207 18.0035 26.4648 18.8125 26.4648H24.6719H30.5312C31.3403 26.4648 31.9961 27.1207 31.9961 27.9297ZM29.2617 32.5879C29.7109 32.8613 29.9453 33.2812 29.9453 33.7891C29.9453 34.2969 29.7109 34.7168 29.2617 34.9902C28.9199 35.2051 28.8711 35.2051 24.6719 35.2051C20.5996 35.2051 20.4141 35.1953 20.1016 35.0098C18.9883 34.3359 19.2422 32.7246 20.5117 32.4121C20.6777 32.373 22.6406 32.3438 24.8672 32.3535C28.8516 32.373 28.9297 32.373 29.2617 32.5879ZM29.2617 38.4473C29.7109 38.7207 29.9453 39.1406 29.9453 39.6484C29.9453 40.1562 29.7109 40.5762 29.2617 40.8496C28.9199 41.0645 28.8711 41.0645 24.6719 41.0645C20.5996 41.0645 20.4141 41.0547 20.1016 40.8691C18.9883 40.1953 19.2422 38.584 20.5117 38.2715C20.6777 38.2324 22.6406 38.2031 24.8672 38.2129C28.8516 38.2324 28.9297 38.2324 29.2617 38.4473Z" fill="#2C365A"/>
</svg>
