<svg width="50" height="50" viewBox="0 0 50 50" fill="none" xmlns="http://www.w3.org/2000/svg">
<g clip-path="url(#clip0_212_262)">
<path d="M22.296 1.11404C22.2118 1.19454 22.1837 2.17842 22.1837 5.01379V8.61049C22.1837 8.73374 22.1576 8.85572 22.1072 8.96912L21.6522 9.99099C21.6322 10.0359 21.616 10.0822 21.6037 10.1296L21.0887 13.0765C21.0701 13.1485 21.0606 13.2224 21.0606 13.2965V24.3949C21.0606 24.5418 20.9567 24.6702 20.8079 24.707C20.4991 24.7696 20.3119 24.9038 20.0967 25.199C19.9563 25.3868 19.9376 26.6068 19.9376 28.4583V28.7596C19.9376 29.2602 19.517 29.6681 18.9933 29.6754L16.4978 29.7103C16.2435 29.7139 16.001 29.814 15.8239 29.9885L15.801 30.011L15.7834 30.0274C15.5972 30.1999 15.4922 30.4371 15.4922 30.6849V33.367C15.4922 34.4761 15.5015 34.5387 15.7262 34.7623C15.8484 34.8889 15.835 35.0874 15.6968 35.198L15.4922 35.3616C13.9761 36.5691 12.9373 38.1254 12.591 39.7086C12.4974 40.1289 12.4506 40.9339 12.4506 42.374V43.1093C12.4506 43.3467 12.2664 43.5472 12.0201 43.5779C11.7019 43.6047 11.5054 43.6942 11.2901 43.8999L11.2807 43.9089C11.101 44.0807 11 44.3136 11 44.5566V47.031C11 47.2788 11.1051 47.516 11.2912 47.6885L11.3088 47.7048L11.3259 47.7217C11.5064 47.8996 11.7547 48 12.0139 48H38.0136C38.2729 48 38.5211 47.8996 38.7016 47.7217L38.7187 47.7048L38.7363 47.6885C38.9224 47.516 39.0275 47.2788 39.0275 47.031V44.5566C39.0275 44.3136 38.9265 44.0807 38.7468 43.9089L38.7374 43.8999C38.5221 43.6942 38.3256 43.6047 38.0074 43.5779C37.7611 43.5472 37.5769 43.3467 37.5769 43.1093V42.374C37.5769 40.1021 37.4927 39.5386 37.0341 38.4832C36.5381 37.3562 35.5648 36.1487 34.4885 35.3169L34.331 35.1964C34.1894 35.0882 34.1757 34.8872 34.3013 34.7623C34.526 34.5298 34.5353 34.4761 34.5353 33.367V30.6849C34.5353 30.4371 34.4303 30.1999 34.2441 30.0274L34.2265 30.011L34.2036 29.9885C34.0265 29.814 33.7841 29.7139 33.5297 29.7103L31.0342 29.6754C30.5105 29.6681 30.0899 29.2602 30.0899 28.7596V25.7256C30.0899 25.507 30.0081 25.2956 29.8592 25.1295L29.8092 25.0737C29.6501 24.9038 29.3974 24.7339 29.2476 24.707C29.0832 24.6704 28.9669 24.5302 28.9669 24.3689V13.2965C28.9669 13.2224 28.9574 13.1485 28.9388 13.0765L28.4238 10.1296C28.4115 10.0822 28.3953 10.0359 28.3753 9.99099L27.9203 8.96912C27.8699 8.85572 27.8438 8.73374 27.8438 8.61049V5.01379C27.8438 2.17842 27.8158 1.19454 27.7315 1.11404C27.5724 0.961986 22.4551 0.961986 22.296 1.11404ZM27.0951 7.60408C27.0951 8.10992 26.6661 8.51999 26.1368 8.51999H23.8907C23.3614 8.51999 22.9324 8.10992 22.9324 7.60408V2.63816C22.9324 2.13232 23.3614 1.72226 23.8907 1.72226H26.1368C26.6661 1.72226 27.0951 2.13232 27.0951 2.63816V7.60408ZM27.5833 10.0301C27.6072 10.0846 27.6255 10.1412 27.6379 10.1991L27.7974 11.8986C27.9046 12.3969 27.5149 12.8668 26.9828 12.8808C26.4307 12.8897 23.5968 12.8897 23.0447 12.8808C22.5126 12.8668 22.1229 12.3969 22.2301 11.8986L22.3896 10.1991C22.402 10.1412 22.4203 10.0846 22.4442 10.0301L22.5458 9.79795C22.6949 9.45729 23.0435 9.23554 23.4299 9.23554H26.5976C26.984 9.23554 27.3326 9.45729 27.4817 9.79795L27.5833 10.0301ZM28.2182 23.7464C28.2182 24.2522 27.7891 24.6623 27.2598 24.6623H22.7677C22.2384 24.6623 21.8093 24.2522 21.8093 23.7464V14.5301C21.8093 14.0243 22.2384 13.6142 22.7677 13.6142H27.2598C27.7891 13.6142 28.2182 14.0243 28.2182 14.5301V23.7464ZM29.2289 25.4852C29.3132 25.5657 29.3412 27.0809 29.3412 28.5477V28.7553C29.3412 29.2611 28.9122 29.6712 28.3829 29.6712H21.6446C21.1153 29.6712 20.6863 29.2611 20.6863 28.7553V28.5477C20.6863 27.0809 20.7144 25.5657 20.7986 25.4852C20.9577 25.3331 29.0698 25.3331 29.2289 25.4852ZM33.7211 30.494C33.8708 30.6371 33.8708 34.1988 33.7211 34.3419C33.562 34.494 16.4655 34.494 16.3064 34.3419C16.2315 34.2704 16.1941 33.9215 16.1941 33.3759C16.1941 32.8303 16.2315 30.5656 16.3064 30.494C16.4655 30.342 33.562 30.342 33.7211 30.494ZM33.6369 35.6031C34.8067 36.4349 35.752 37.5082 36.276 38.6173C36.7533 39.6191 36.8282 40.1021 36.8282 42.3829V42.6352C36.8282 43.141 36.3991 43.5511 35.8699 43.5511H14.1576C13.6284 43.5511 13.1993 43.141 13.1993 42.6352V42.3829C13.1993 40.1021 13.2742 39.6281 13.7608 38.5995C14.2943 37.4725 15.4641 36.1755 16.6059 35.451L16.8257 35.3139C16.9815 35.2166 17.1636 35.1648 17.3497 35.1648H32.7024C32.9081 35.1648 33.1084 35.2281 33.2736 35.3453L33.6369 35.6031ZM38.2133 44.3739C38.363 44.5171 38.363 47.0787 38.2133 47.2218C38.0542 47.3739 11.9733 47.3739 11.8142 47.2218C11.6645 47.0787 11.6645 44.5171 11.8142 44.3739C11.9733 44.2219 38.0542 44.2219 38.2133 44.3739Z" fill="#2C365A" stroke="#2C365A" stroke-width="2.2"/>
</g>
<defs>
<clipPath id="clip0_212_262">
<rect width="50" height="50" fill="white"/>
</clipPath>
</defs>
</svg>
