<svg width="50" height="50" viewBox="0 0 50 50" fill="none" xmlns="http://www.w3.org/2000/svg">
<path d="M8.71974 0.156055C8.35255 0.330471 8.06798 0.725197 8.00372 1.11992C7.97619 1.28516 8.1047 2.22149 8.27911 3.20371C9.38068 9.18887 9.88556 14.6783 9.959 21.5814C10.0508 29.5678 9.59181 35.5988 8.32501 43.3648C8.11388 44.6225 7.97619 45.7699 8.00372 45.9168C8.07716 46.3023 8.37091 46.6787 8.7381 46.8531C9.02267 46.9908 10.4363 47 24.4813 47C39.8297 47 39.9215 47 40.2887 46.8164C40.5457 46.6787 40.711 46.5043 40.8486 46.2197C40.98 45.9511 41.0239 45.6481 40.9743 45.3532L40.8854 44.8244C40.0041 39.5002 39.5727 35.9018 39.2055 30.9355C38.9944 28.099 38.9668 18.5705 39.1596 15.9268C39.5451 10.6025 39.9766 7.15098 40.9404 1.8084C41.0506 1.20254 41.0414 1.15664 40.8303 0.761917C40.6926 0.495705 40.4815 0.275394 40.2795 0.165237C39.9766 0.00918198 39.3156 0 24.4904 0C10.4272 0 8.99513 0.0183601 8.71974 0.156055ZM23.2053 4.7459C26.3141 5.57167 29.0137 6.29777 30.1621 6.61887C30.5558 6.72895 30.5559 6.85318 30.1576 6.94562C29.0686 7.1984 26.5991 7.73453 23.7377 8.33516C16.2287 9.92324 16.0451 9.96914 15.5311 10.5842C15.1088 11.0799 14.916 11.5848 14.8701 12.2641C14.8151 13.0719 14.9986 13.6777 15.4576 14.2193C16.1094 14.9813 15.9442 14.9354 23.7928 16.5051C27.7584 17.2945 31.008 17.9647 31.008 17.9922C31.008 18.0197 27.9236 18.6531 24.1508 19.4059C20.3688 20.1586 17.0916 20.8287 16.8621 20.9021C16.2104 21.0857 15.6504 21.5723 15.3199 22.224C15.0721 22.7105 15.0354 22.8941 15.0354 23.5C15.0354 24.1059 15.0721 24.2895 15.3199 24.776C15.6504 25.4277 16.2104 25.9143 16.8621 26.0979C17.0916 26.1713 20.3688 26.8414 24.1416 27.5941C27.9236 28.3469 31.008 28.9803 31.008 29.0078C31.008 29.0354 27.7584 29.7055 23.7928 30.4949C15.9442 32.0646 16.1094 32.0188 15.4576 32.7807C14.6223 33.7629 14.6498 35.3693 15.5311 36.4158C16.0451 37.0309 16.2287 37.0768 23.7377 38.6648C27.6391 39.4818 30.7694 40.1795 30.7143 40.2162C30.65 40.2529 27.2444 41.1709 23.1594 42.2633L16.3569 44.0773C15.9367 44.1893 15.5036 44.2461 15.0686 44.2461H13.3555C12.0611 44.2461 10.9963 44.2277 10.9963 44.2002C10.9963 44.1727 11.0789 43.6219 11.1799 42.9793C12.3365 35.8191 12.7955 29.2832 12.7129 21.5264C12.6578 16.2939 12.4742 13.3381 11.9143 8.7207C11.7307 7.22441 11.1248 3.23125 11.033 2.90996C10.9871 2.76309 11.1432 2.75391 13.3555 2.75391H15.0612C15.495 2.75391 15.927 2.81036 16.3462 2.92185L23.2053 4.7459ZM37.9479 2.90996C37.8561 3.25879 37.3328 6.6461 37.1125 8.35352C36.8738 10.2996 36.5893 13.2371 36.4057 15.835C36.2404 18.0748 36.2404 27.7686 36.4057 30.2471C36.6903 34.6441 37.1768 39.1146 37.7643 42.7682C37.8836 43.5484 37.9754 44.2002 37.957 44.2186C37.9387 44.2369 35.3684 44.2369 32.2565 44.2277L29.2334 44.213C28.8225 44.211 28.7475 43.6266 29.1445 43.5209C32.7889 42.5479 32.7981 42.5479 33.2754 42.1072C33.9272 41.5105 34.0832 41.1342 34.0832 40.1611C34.0832 39.491 34.0465 39.2615 33.8813 38.9586C33.6518 38.518 33.0367 37.9488 32.6236 37.7744C32.4584 37.701 30.9254 37.3521 29.2088 36.9941C25.9225 36.3057 23.1319 35.7182 20.635 35.1949C19.7996 35.0113 18.799 34.8094 18.4043 34.7268C18.0188 34.6441 17.7067 34.5615 17.725 34.5432C17.7434 34.5248 21.0481 33.8547 25.0688 33.0469C29.7504 32.1105 32.5043 31.523 32.7338 31.4037C33.2203 31.1559 33.8078 30.4766 33.9822 29.9533C34.1658 29.4025 34.1658 28.6039 33.9822 28.0623C33.7895 27.484 33.1377 26.7863 32.5961 26.5568C32.3574 26.4559 28.961 25.7398 25.0688 24.9596C21.1674 24.1793 17.9729 23.5275 17.9729 23.5C17.9729 23.4725 21.2225 22.8023 25.1881 22.0129C31.0631 20.8379 32.486 20.5258 32.8072 20.333C34.5697 19.3049 34.5697 16.6795 32.7981 15.6514C32.4768 15.4586 31.0631 15.1465 25.0871 13.9531C22.1932 13.373 19.6684 12.8639 18.4717 12.6162C17.9821 12.5149 17.9709 12.3703 18.4594 12.2641C18.8725 12.1814 19.5885 12.0254 20.0383 11.9336C20.4973 11.8326 23.343 11.2359 26.3723 10.6025C29.4016 9.96914 32.0912 9.39082 32.3483 9.31738C32.9082 9.15215 33.5967 8.58301 33.8721 8.04141C34.1475 7.49981 34.2026 6.47168 33.9914 5.90254C33.8078 5.4252 33.2203 4.73672 32.8256 4.53477C32.6787 4.46133 31.2559 4.04824 29.6494 3.6168C28.6363 3.34896 27.7229 3.10328 27.1762 2.95472C26.8242 2.85904 26.8296 2.79401 27.1944 2.78781C28.098 2.77244 30.0274 2.76309 32.2748 2.76309C37.6817 2.75391 37.9938 2.76309 37.9479 2.90996Z" fill="#2C365A"/>
</svg>
