<svg width="52" height="52" viewBox="0 0 52 52" fill="none" xmlns="http://www.w3.org/2000/svg">
<path d="M23.5937 1.10745C15.9179 1.83987 8.93547 6.16605 4.77532 12.7871C0.0194571 20.3457 -0.263746 30.1407 4.0429 37.9629C5.97649 41.4785 8.85735 44.6231 12.1777 46.8301C15.3613 48.9395 18.8769 50.2481 22.9101 50.8242C24.0527 50.9805 27.9101 50.9903 29.0624 50.8242C35.2245 49.9649 40.3124 47.3086 44.4628 42.8067C47.871 39.1153 50.0585 34.3887 50.8105 29.0762C51.0058 27.7188 50.9765 24.1641 50.7519 22.6309C50.5468 21.1172 49.9706 18.793 49.4726 17.4453C49.0331 16.2442 47.8417 13.793 47.2167 12.8164C45.3027 9.79886 42.6269 7.06448 39.707 5.12112C38.4081 4.25198 35.8886 2.99222 34.4335 2.47464C30.9472 1.24417 27.1874 0.765656 23.5937 1.10745ZM28.789 3.68558C32.2167 4.1348 35.6054 5.3848 38.3398 7.2012C43.33 10.5215 46.8554 15.7168 47.998 21.4297C48.3886 23.3633 48.4765 24.4864 48.4179 26.6348C48.33 30.1407 47.6855 32.7774 46.1523 35.9121C43.0077 42.3379 36.8945 46.918 29.7949 48.168C28.2519 48.4414 25.1367 48.5391 23.6425 48.3731C19.1796 47.8653 14.9511 46.0782 11.621 43.295C7.20696 39.6035 4.43352 34.545 3.6718 28.8028C3.48625 27.3575 3.48625 24.7305 3.66204 23.2657C4.73625 14.6524 10.664 7.39652 18.8574 4.68167C20.3417 4.18362 21.6601 3.88089 23.1054 3.68558C24.4921 3.5098 27.3925 3.5098 28.789 3.68558Z" fill="#2C365A"/>
<path d="M24.6191 6.03909C24.4335 6.05862 23.8671 6.12698 23.3593 6.18558C18.2519 6.78128 13.1835 9.75003 9.99992 14.0274C8.60344 15.8926 7.33391 18.3633 7.33391 19.2032C7.33391 19.7403 7.6757 20.1895 8.21281 20.3457C8.56438 20.4532 8.68156 20.4239 10.0488 19.9063C14.746 18.1485 19.8827 17.3086 25.9863 17.3086C32.1777 17.3086 37.578 18.2071 42.1874 20.0137C43.4863 20.5215 43.789 20.5215 44.3163 19.9942C44.7851 19.5254 44.7655 19.0567 44.2089 17.7969C41.4843 11.6641 35.6542 7.25003 28.9355 6.22464C27.9882 6.07816 25.2734 5.96097 24.6191 6.03909ZM29.0038 8.75394C33.1835 9.53519 36.7284 11.5762 39.3261 14.6914C40.078 15.5996 40.8691 16.7129 40.8105 16.7813C40.7909 16.8008 39.8241 16.5762 38.6718 16.293C36.4062 15.7266 33.8476 15.2676 31.455 14.9942C29.5214 14.7793 22.9003 14.75 21.0058 14.9453C18.0859 15.2578 15.5761 15.6973 13.0956 16.3516C11.123 16.8692 11.1132 16.8692 11.1523 16.7422C11.289 16.3418 12.6269 14.6524 13.5351 13.7344C14.9316 12.3282 16.5234 11.1465 18.1542 10.336C19.6093 9.60355 21.7089 8.93948 23.2519 8.72464C23.6523 8.66605 24.0917 8.59769 24.2284 8.57816C24.7851 8.4805 28.2226 8.60745 29.0038 8.75394Z" fill="#2C365A"/>
<path d="M24.746 21.1661C22.539 21.7618 21.0058 23.7442 21.0058 26C21.0058 29.2227 24.1015 31.6348 27.2069 30.834C30.9667 29.8477 32.2362 25.1504 29.4628 22.4356C28.2323 21.2344 26.3671 20.7364 24.746 21.1661ZM27.1581 23.8321C28.9062 24.7012 28.8964 27.2891 27.1288 28.1875C25.6347 28.9492 23.9062 28.1289 23.5546 26.4883C23.2812 25.209 24.0722 23.9493 25.3808 23.5977C25.9667 23.4317 26.4843 23.5 27.1581 23.8321Z" fill="#2C365A"/>
<path d="M6.77727 26.2832C6.04485 26.6153 5.95696 27.0352 6.21086 28.8223C7.38274 36.8301 13.33 43.4414 21.1132 45.375C22.0312 45.6094 22.1874 45.6192 22.5195 45.5118C22.7636 45.4336 22.9882 45.2578 23.1249 45.0528C23.3984 44.6524 23.4081 44.1836 23.1933 42.4844C22.5292 37.25 20.9374 33.5489 18.1249 30.7364C15.8202 28.4219 12.9101 26.9961 9.2968 26.4004C7.43157 26.0879 7.23625 26.0782 6.77727 26.2832ZM10.0976 29.1153C14.7558 30.2969 17.7636 32.9825 19.4921 37.5137C19.9706 38.793 20.332 40.2578 20.6738 42.377L20.7226 42.6895L20.1659 42.5039C19.4433 42.25 17.7441 41.4395 16.9726 40.9707C12.9101 38.5293 9.9218 34.3496 8.90618 29.6817C8.75969 29.0176 8.74993 28.8321 8.84758 28.8321C8.91594 28.8321 9.48235 28.959 10.0976 29.1153Z" fill="#2C365A"/>
<path d="M43.5644 26.2442C41.4257 26.5469 39.4042 27.1329 37.8027 27.9141C34.0527 29.7305 31.3574 32.9336 29.912 37.2793C29.2578 39.2227 28.7695 41.7618 28.6523 43.7735C28.6035 44.6426 28.6132 44.7207 28.8378 45.043C28.9843 45.2579 29.2089 45.4336 29.4531 45.5118C29.8046 45.6289 29.9511 45.6094 31.0156 45.336C31.6601 45.17 32.7636 44.8086 33.457 44.5254C40.0292 41.8692 44.7265 35.8633 45.7617 28.8223C45.9472 27.5332 45.9472 27.1426 45.7714 26.7911C45.4492 26.1856 44.9218 26.0489 43.5644 26.2442ZM43.0663 29.6817C42.0507 34.3204 39.0234 38.5782 35.0195 40.961C33.6913 41.752 31.2597 42.8262 31.2597 42.6211C31.2597 42.5723 31.3476 42.0352 31.455 41.42C32.5585 35.2481 35.3417 31.4688 40.1074 29.6524C40.791 29.3887 42.7929 28.8418 43.0956 28.8321C43.2421 28.8321 43.2324 28.9004 43.0663 29.6817Z" fill="#2C365A"/>
<path d="M23.5937 1.10745C15.9179 1.83987 8.93547 6.16605 4.77532 12.7871C0.0194571 20.3457 -0.263746 30.1407 4.0429 37.9629C5.97649 41.4785 8.85735 44.6231 12.1777 46.8301C15.3613 48.9395 18.8769 50.2481 22.9101 50.8242C24.0527 50.9805 27.9101 50.9903 29.0624 50.8242C35.2245 49.9649 40.3124 47.3086 44.4628 42.8067C47.871 39.1153 50.0585 34.3887 50.8105 29.0762C51.0058 27.7188 50.9765 24.1641 50.7519 22.6309C50.5468 21.1172 49.9706 18.793 49.4726 17.4453C49.0331 16.2442 47.8417 13.793 47.2167 12.8164C45.3027 9.79886 42.6269 7.06448 39.707 5.12112C38.4081 4.25198 35.8886 2.99222 34.4335 2.47464C30.9472 1.24417 27.1874 0.765656 23.5937 1.10745ZM28.789 3.68558C32.2167 4.1348 35.6054 5.3848 38.3398 7.2012C43.33 10.5215 46.8554 15.7168 47.998 21.4297C48.3886 23.3633 48.4765 24.4864 48.4179 26.6348C48.33 30.1407 47.6855 32.7774 46.1523 35.9121C43.0077 42.3379 36.8945 46.918 29.7949 48.168C28.2519 48.4414 25.1367 48.5391 23.6425 48.3731C19.1796 47.8653 14.9511 46.0782 11.621 43.295C7.20696 39.6035 4.43352 34.545 3.6718 28.8028C3.48625 27.3575 3.48625 24.7305 3.66204 23.2657C4.73625 14.6524 10.664 7.39652 18.8574 4.68167C20.3417 4.18362 21.6601 3.88089 23.1054 3.68558C24.4921 3.5098 27.3925 3.5098 28.789 3.68558Z" stroke="#2C365A" stroke-width="0.3"/>
<path d="M24.6191 6.03909C24.4335 6.05862 23.8671 6.12698 23.3593 6.18558C18.2519 6.78128 13.1835 9.75003 9.99992 14.0274C8.60344 15.8926 7.33391 18.3633 7.33391 19.2032C7.33391 19.7403 7.6757 20.1895 8.21281 20.3457C8.56438 20.4532 8.68156 20.4239 10.0488 19.9063C14.746 18.1485 19.8827 17.3086 25.9863 17.3086C32.1777 17.3086 37.578 18.2071 42.1874 20.0137C43.4863 20.5215 43.789 20.5215 44.3163 19.9942C44.7851 19.5254 44.7655 19.0567 44.2089 17.7969C41.4843 11.6641 35.6542 7.25003 28.9355 6.22464C27.9882 6.07816 25.2734 5.96097 24.6191 6.03909ZM29.0038 8.75394C33.1835 9.53519 36.7284 11.5762 39.3261 14.6914C40.078 15.5996 40.8691 16.7129 40.8105 16.7813C40.7909 16.8008 39.8241 16.5762 38.6718 16.293C36.4062 15.7266 33.8476 15.2676 31.455 14.9942C29.5214 14.7793 22.9003 14.75 21.0058 14.9453C18.0859 15.2578 15.5761 15.6973 13.0956 16.3516C11.123 16.8692 11.1132 16.8692 11.1523 16.7422C11.289 16.3418 12.6269 14.6524 13.5351 13.7344C14.9316 12.3282 16.5234 11.1465 18.1542 10.336C19.6093 9.60355 21.7089 8.93948 23.2519 8.72464C23.6523 8.66605 24.0917 8.59769 24.2284 8.57816C24.7851 8.4805 28.2226 8.60745 29.0038 8.75394Z" stroke="#2C365A" stroke-width="0.3"/>
<path d="M24.746 21.1661C22.539 21.7618 21.0058 23.7442 21.0058 26C21.0058 29.2227 24.1015 31.6348 27.2069 30.834C30.9667 29.8477 32.2362 25.1504 29.4628 22.4356C28.2323 21.2344 26.3671 20.7364 24.746 21.1661ZM27.1581 23.8321C28.9062 24.7012 28.8964 27.2891 27.1288 28.1875C25.6347 28.9492 23.9062 28.1289 23.5546 26.4883C23.2812 25.209 24.0722 23.9493 25.3808 23.5977C25.9667 23.4317 26.4843 23.5 27.1581 23.8321Z" stroke="#2C365A" stroke-width="0.3"/>
<path d="M6.77727 26.2832C6.04485 26.6153 5.95696 27.0352 6.21086 28.8223C7.38274 36.8301 13.33 43.4414 21.1132 45.375C22.0312 45.6094 22.1874 45.6192 22.5195 45.5118C22.7636 45.4336 22.9882 45.2578 23.1249 45.0528C23.3984 44.6524 23.4081 44.1836 23.1933 42.4844C22.5292 37.25 20.9374 33.5489 18.1249 30.7364C15.8202 28.4219 12.9101 26.9961 9.2968 26.4004C7.43157 26.0879 7.23625 26.0782 6.77727 26.2832ZM10.0976 29.1153C14.7558 30.2969 17.7636 32.9825 19.4921 37.5137C19.9706 38.793 20.332 40.2578 20.6738 42.377L20.7226 42.6895L20.1659 42.5039C19.4433 42.25 17.7441 41.4395 16.9726 40.9707C12.9101 38.5293 9.9218 34.3496 8.90618 29.6817C8.75969 29.0176 8.74993 28.8321 8.84758 28.8321C8.91594 28.8321 9.48235 28.959 10.0976 29.1153Z" stroke="#2C365A" stroke-width="0.3"/>
<path d="M43.5644 26.2442C41.4257 26.5469 39.4042 27.1329 37.8027 27.9141C34.0527 29.7305 31.3574 32.9336 29.912 37.2793C29.2578 39.2227 28.7695 41.7618 28.6523 43.7735C28.6035 44.6426 28.6132 44.7207 28.8378 45.043C28.9843 45.2579 29.2089 45.4336 29.4531 45.5118C29.8046 45.6289 29.9511 45.6094 31.0156 45.336C31.6601 45.17 32.7636 44.8086 33.457 44.5254C40.0292 41.8692 44.7265 35.8633 45.7617 28.8223C45.9472 27.5332 45.9472 27.1426 45.7714 26.7911C45.4492 26.1856 44.9218 26.0489 43.5644 26.2442ZM43.0663 29.6817C42.0507 34.3204 39.0234 38.5782 35.0195 40.961C33.6913 41.752 31.2597 42.8262 31.2597 42.6211C31.2597 42.5723 31.3476 42.0352 31.455 41.42C32.5585 35.2481 35.3417 31.4688 40.1074 29.6524C40.791 29.3887 42.7929 28.8418 43.0956 28.8321C43.2421 28.8321 43.2324 28.9004 43.0663 29.6817Z" stroke="#2C365A" stroke-width="0.3"/>
</svg>
