<svg width="50" height="50" viewBox="0 0 50 50" fill="none" xmlns="http://www.w3.org/2000/svg">
<path d="M35.4891 0.177691C35.3488 0.271213 35.143 0.476961 35.0495 0.617244C34.8812 0.869752 34.8718 1.14097 34.8718 5.65807C34.8718 10.1752 34.8812 10.4464 35.0495 10.6989C35.3955 11.2133 35.6668 11.3161 36.7236 11.3161H37.6775V14.1218H36.7236C35.938 14.1218 35.7135 14.1592 35.4891 14.2995C35.0589 14.5894 34.8718 14.9448 34.8718 15.5246C34.8718 16.1044 35.0589 16.4598 35.4891 16.7497C35.7135 16.89 35.938 16.9274 36.7236 16.9274H37.6775V21.005L36.1437 22.5387H29.2605V21.5942C29.2605 20.4719 29.1109 20.1352 28.4843 19.8453C28.2692 19.7424 26.4175 19.1158 24.3787 18.4612L20.6659 17.2641L20.6098 8.74428L20.2918 8.08963C19.8709 7.22923 19.1321 6.49041 18.2717 6.06956L17.6171 5.75159H4.05642L3.40176 6.06956C2.54136 6.49041 1.80254 7.22923 1.38169 8.08963L1.06372 8.74428V44.8437L1.36299 45.4609C1.91477 46.5738 2.74711 47.3127 3.88808 47.6961C4.42115 47.8831 4.6456 47.8831 11.0331 47.8644L17.6171 47.8364L18.2717 47.5184C19.1321 47.0976 19.8709 46.3587 20.2918 45.4983L20.6098 44.8437L20.6659 36.2303L24.3787 35.0332C26.4175 34.3786 28.2692 33.752 28.4843 33.6491C29.1109 33.3592 29.2605 33.0225 29.2605 31.9003V30.9557H36.1344L36.9761 31.7787C38.3789 33.1441 39.9127 33.7614 41.886 33.7614C43.1204 33.7614 44.0557 33.5463 45.1592 32.9945C45.8045 32.6765 46.1225 32.4333 46.8426 31.7039C47.8713 30.6751 48.3951 29.7773 48.7224 28.4306C49.003 27.3177 48.9375 25.5221 48.5821 24.5121C48.1987 23.4178 47.7217 22.651 46.8707 21.7906L46.0944 20.9956V16.9274H47.0577C48.1052 16.9274 48.3764 16.8246 48.7224 16.3102C48.9656 15.9455 48.9656 15.1038 48.7224 14.739C48.3764 14.2247 48.1052 14.1218 47.0577 14.1218H46.0944V11.3161H47.0577C48.1052 11.3161 48.3764 11.2133 48.7224 10.6989C48.8907 10.4464 48.9001 10.1752 48.9001 5.65807C48.9001 1.14097 48.8907 0.869752 48.7224 0.617244C48.6289 0.476961 48.4231 0.271213 48.2828 0.177691C48.021 0.00935217 47.7311 0 41.886 0C36.0409 0 35.7509 0.00935217 35.4891 0.177691ZM46.0944 8.51048H37.6775V2.80565H46.0944V8.51048ZM6.62826 14.1218H3.80391L3.84132 11.8492C3.86937 9.70756 3.87872 9.56727 4.07512 9.25865C4.4305 8.69752 4.83265 8.53854 5.95491 8.51983L6.62826 8.51048V14.1218ZM12.2396 19.7331H9.43392V8.51048H12.2396V19.7331ZM17.1121 8.77234C17.7667 9.17448 17.8041 9.32412 17.8322 11.8492L17.8696 14.1218H15.0452V8.48242L15.9243 8.52918C16.5977 8.56659 16.8782 8.6227 17.1121 8.77234ZM43.2888 14.1218H40.4831V11.3161H43.2888V14.1218ZM6.62826 25.3444H3.82261V16.9274H6.62826V25.3444ZM17.8509 25.3444H15.0452V16.9274H17.8509V25.3444ZM43.2888 19.7799H40.4831V16.9274H43.2888V19.7799ZM26.4549 31.2924L23.5557 32.2276L20.6565 33.1722V20.3223L26.4549 22.2114V31.2924ZM12.2396 30.9557H9.43392V22.5387H12.2396V30.9557ZM43.5974 22.9783C44.4391 23.3804 45.2527 24.1847 45.6549 25.0358C45.9355 25.6343 45.9542 25.7278 45.9542 26.7472C45.9542 27.7666 45.9355 27.8601 45.6549 28.4587C45.2527 29.3097 44.4485 30.114 43.5974 30.5161C42.9989 30.7967 42.9053 30.8154 41.886 30.8154C40.8666 30.8154 40.7731 30.7967 40.1745 30.5161C39.3235 30.114 38.5192 29.3097 38.117 28.4587C37.8365 27.8601 37.8178 27.7666 37.8178 26.7472C37.8178 25.7278 37.8365 25.6343 38.117 25.0358C38.4631 24.3063 39.2861 23.4272 39.922 23.0999C40.6795 22.7071 41.0443 22.6323 42.0262 22.6603C42.8586 22.679 43.0363 22.7164 43.5974 22.9783ZM34.9186 28.15H29.2605V25.3444H34.9186V28.15ZM6.62826 36.567H3.82261V28.15H6.62826V36.567ZM17.8509 36.567H15.0452V28.15H17.8509V36.567ZM12.2396 45.0775H9.43392V33.7614H12.2396V45.0775ZM6.62826 45.1055L5.75851 45.0588C4.75783 45.0027 4.39309 44.853 4.07512 44.3293C3.87872 44.0207 3.86937 43.8711 3.84132 41.6826L3.80391 39.3727H6.62826V45.1055ZM17.8322 41.6826C17.8041 43.8711 17.7948 44.0207 17.5984 44.3293C17.2804 44.853 16.9157 45.0027 15.915 45.0588L15.0452 45.1055V39.3727H17.8696L17.8322 41.6826Z" fill="#2C365A"/>
<path d="M41.1004 25.5221C40.6702 25.812 40.4831 26.1674 40.4831 26.7472C40.4831 27.6357 40.9975 28.15 41.886 28.15C42.7744 28.15 43.2888 27.6357 43.2888 26.7472C43.2888 25.8588 42.7744 25.3444 41.886 25.3444C41.5399 25.3444 41.2874 25.4005 41.1004 25.5221Z" fill="#2C365A"/>
</svg>
