<svg width="52" height="51" viewBox="0 0 52 51" fill="none" xmlns="http://www.w3.org/2000/svg">
<path d="M21.9536 1.10372C21.7399 1.17358 21.1646 1.35852 20.6796 1.51468C20.1947 1.67495 19.7262 1.85167 19.644 1.9092C19.4796 2.02016 19.3646 2.2503 19.3646 2.46399C19.3646 2.53386 19.4467 2.97769 19.5495 3.4503C19.6522 3.9229 19.7344 4.34208 19.7303 4.37906C19.7303 4.42016 19.5988 4.53112 19.4344 4.64208C18.9824 4.93386 18.5015 5.3366 18.0495 5.79687L17.6426 6.21194L17.1988 6.03934C16.9563 5.94893 16.5618 5.79687 16.3317 5.70646C16.0974 5.61605 15.8509 5.52975 15.781 5.51742C15.6002 5.47632 15.3207 5.57084 15.181 5.71879C15.0577 5.84208 13.9481 7.95852 13.8536 8.23797C13.8002 8.40646 13.8372 8.64482 13.9399 8.81742C14.0098 8.93249 14.6344 9.3681 15.5098 9.91468C15.6372 9.99687 15.6988 10.0585 15.6865 10.0996C15.5673 10.4818 15.4605 11.4763 15.4605 12.2078V12.7996L15.1646 12.9352C15.0002 13.0092 14.5974 13.1859 14.2769 13.3297C13.9522 13.4695 13.6481 13.6215 13.6029 13.6626C13.4879 13.7613 13.3646 14.0366 13.3646 14.1928C13.3646 14.2626 13.5043 14.7558 13.6769 15.2818C13.8495 15.8119 14.0344 16.3914 14.092 16.5722C14.2152 16.9626 14.4002 17.1763 14.6755 17.2503C14.8399 17.2914 14.9426 17.2791 15.744 17.1065C16.2331 16.9996 16.6687 16.9051 16.718 16.8969C16.7878 16.8804 16.8331 16.9215 16.9687 17.1352C17.2194 17.5339 17.7536 18.175 18.1892 18.6024L18.5878 18.9887L18.5262 19.1571C18.4933 19.2517 18.3372 19.6667 18.1769 20.0777C18.0166 20.4928 17.8851 20.8955 17.8851 20.9736C17.8851 21.1626 17.9714 21.3558 18.1152 21.4873C18.181 21.5489 18.7728 21.8695 19.4262 22.1982C20.6098 22.8024 20.618 22.8065 20.8563 22.79C21.2262 22.7613 21.2878 22.6996 22.0563 21.5037C22.4426 20.8996 22.3687 20.9366 22.9604 21.0434C23.5481 21.1503 24.2796 21.2078 24.7481 21.1791L25.1796 21.1544L25.5371 21.9681C25.7303 22.4119 25.9111 22.7736 25.9358 22.7695C25.9604 22.7613 25.9687 22.7859 25.9522 22.8229C25.9276 22.8928 26.1084 23.1065 26.2687 23.1845C26.5276 23.3161 26.5933 23.3037 27.9125 22.8804C28.6111 22.6585 29.2358 22.4489 29.2974 22.416C29.5851 22.264 29.6919 21.9188 29.6015 21.4297C29.544 21.1544 29.3344 20.238 29.2686 20.0037C29.2358 19.8804 29.2399 19.8517 29.3221 19.7777C29.3714 19.7325 29.4618 19.6708 29.5234 19.638C29.5851 19.6051 29.6262 19.5599 29.6097 19.5393C29.5974 19.5147 29.6015 19.5106 29.6262 19.5229C29.7084 19.5763 30.1275 19.2517 30.6988 18.6969C30.8673 18.5366 31.0152 18.401 31.0317 18.401C31.0522 18.401 31.1714 18.2613 31.3029 18.0845C31.3399 18.0352 31.4015 18.0476 31.6727 18.1544C31.8536 18.2243 32.0385 18.2982 32.0837 18.3188C32.1289 18.3393 32.3878 18.4421 32.659 18.5489C33.2508 18.7791 33.444 18.7955 33.7152 18.6352C33.896 18.5325 33.9248 18.4832 34.5289 17.3078C34.87 16.6339 35.1618 16.0256 35.1741 15.9517C35.207 15.7462 35.1536 15.5407 35.0303 15.3928C34.9358 15.2818 34.5084 14.9859 33.5549 14.3736C33.4358 14.2996 33.3371 14.2092 33.3371 14.1722C33.3371 14.1352 33.3782 13.9133 33.4234 13.675C33.4892 13.3544 33.518 13.0133 33.5385 12.3476L33.5632 11.4517L34.4632 11.053C35.2234 10.7161 35.3837 10.6297 35.4864 10.5024C35.6262 10.3297 35.6755 10.0339 35.6056 9.80783C35.1823 8.45989 34.796 7.32975 34.7262 7.24345C34.6275 7.11605 34.3522 6.98043 34.2001 6.97632C34.1426 6.97632 33.6741 7.06674 33.1522 7.1818C32.6344 7.29276 32.2029 7.36673 32.1947 7.34619C32.1864 7.32564 32.059 7.1366 31.9111 6.92701C31.5741 6.4503 31.0234 5.81331 30.6823 5.50509L30.4193 5.27084L30.7686 4.37084C31.1549 3.3681 31.1837 3.21194 31.0234 2.93249C30.9125 2.73523 30.8262 2.6818 29.4618 1.9955C28.5289 1.52701 28.3728 1.46125 28.196 1.46125C27.9782 1.46536 27.8139 1.53523 27.6823 1.68317C27.6207 1.74893 26.7618 3.06399 26.618 3.31057C26.6139 3.31468 26.4166 3.2818 26.1823 3.2366C25.5782 3.12153 24.8878 3.06399 24.3207 3.08043L23.8358 3.09276L23.4495 2.2092C23.2358 1.72427 23.018 1.28454 22.9687 1.23112C22.7262 0.968104 22.4673 0.935228 21.9536 1.10372ZM22.3974 3.44619C22.8002 4.34619 22.8248 4.38728 23.0262 4.50646C23.1947 4.60509 23.1865 4.60509 24.1974 4.5681C25.0974 4.53523 25.533 4.57632 26.2933 4.76125C27.0084 4.93386 27.2221 4.91742 27.444 4.66673C27.4933 4.61742 27.7234 4.27632 27.9536 3.91468C28.1837 3.55304 28.4015 3.22838 28.4303 3.1955C28.4837 3.14208 28.5495 3.16262 28.9728 3.38043C29.2358 3.51605 29.4618 3.63112 29.47 3.63523C29.4782 3.64345 29.3344 4.03386 29.1495 4.50646C28.9522 5.01605 28.8166 5.42701 28.8166 5.51742C28.8166 5.75167 28.9522 5.96126 29.2974 6.24482C30.0906 6.91057 30.5673 7.46537 31.0974 8.36947C31.4714 8.99413 31.5412 9.01057 32.733 8.75989C33.2303 8.65715 33.6453 8.58728 33.6659 8.60372C33.6823 8.62427 33.7727 8.86674 33.8632 9.14619L34.0316 9.65167L33.8508 9.72975C33.1029 10.0503 32.396 10.375 32.3015 10.4366C32.244 10.4777 32.1536 10.5969 32.1043 10.6996C32.0138 10.8804 32.0138 10.8969 32.0632 11.427C32.1495 12.3106 32.0878 13.0421 31.8495 14.0325C31.6481 14.875 31.6604 14.8996 32.7618 15.6065C33.1317 15.8448 33.4522 16.0503 33.4727 16.0626C33.5138 16.0914 33.0248 17.0859 32.9673 17.0859C32.9467 17.0859 32.6262 16.9667 32.2604 16.8229C31.307 16.4489 31.2043 16.4202 31.0399 16.4489C30.7933 16.4941 30.6864 16.5763 30.3495 16.9708C29.6878 17.7434 29.096 18.2407 28.2823 18.7133C27.6782 19.0667 27.6207 19.2393 27.8303 20.127C28.081 21.1832 28.0933 21.3558 27.9289 21.3599C27.9043 21.3599 27.6865 21.4256 27.4399 21.5037C27.1974 21.5818 26.9919 21.6434 26.9878 21.6393C26.9796 21.6311 26.807 21.2489 26.6015 20.7845C26.1043 19.6585 26.0262 19.5928 25.2824 19.6832C24.4645 19.7777 23.3837 19.6832 22.4303 19.4325C22.081 19.3421 21.8837 19.3544 21.6824 19.49C21.6248 19.527 21.3454 19.9092 21.0659 20.3366C20.7865 20.764 20.5481 21.1133 20.5317 21.1133C20.5193 21.1133 20.2892 21.0024 20.0221 20.8626L19.533 20.616L19.6276 20.3613C19.681 20.2215 19.8289 19.8311 19.9604 19.4982C20.1618 18.9722 20.1947 18.8613 20.1782 18.6887C20.1536 18.4503 20.0056 18.2119 19.8084 18.0928C19.6029 17.9736 18.707 17.0654 18.4522 16.7161C18.3289 16.5476 18.1193 16.227 17.9878 16.0051C17.8563 15.7832 17.6837 15.5489 17.6015 15.4832C17.3714 15.29 17.2276 15.29 16.2618 15.4996C15.7892 15.6024 15.3865 15.6887 15.37 15.6887C15.3454 15.6887 15.0084 14.7188 15.0084 14.6407C15.0084 14.616 15.3536 14.4476 15.781 14.2585C16.7262 13.8434 16.792 13.8065 16.9029 13.5845C16.9933 13.4119 16.9933 13.3955 16.944 12.7256C16.907 12.2078 16.9029 11.9243 16.9399 11.5339C16.9892 10.9873 17.1084 10.3421 17.207 10.0585C17.3426 9.67632 17.2563 9.364 16.944 9.12564C16.8331 9.03934 16.4632 8.78865 16.1221 8.57084L15.5015 8.16811L15.7687 7.66674C15.9166 7.38728 16.0481 7.16537 16.0646 7.16948C16.0851 7.17358 16.4591 7.31742 16.8988 7.49002C18.0495 7.94208 18.1111 7.93386 18.6783 7.27221C19.2906 6.56126 19.8783 6.05989 20.6385 5.60372C21.0782 5.3366 21.1563 5.27495 21.2385 5.11879C21.3289 4.94208 21.3084 4.67906 21.1317 3.86536C21.0413 3.44208 20.9673 3.0681 20.9673 3.02701C20.9673 2.96947 21.07 2.92016 21.4728 2.78865C21.7481 2.70235 21.9906 2.63249 22.007 2.6366C22.0276 2.64071 22.2043 3.00235 22.3974 3.44619Z" fill="#2C365A"/>
<path d="M23.9879 6.85714C23.0674 6.94344 22.0564 7.34207 21.2961 7.90919C21.0126 8.12289 20.5317 8.61193 20.2934 8.92837C19.8043 9.57769 19.455 10.3585 19.2947 11.1558C19.1961 11.6571 19.1961 12.627 19.2947 13.0996C19.6482 14.7763 20.6715 16.1325 22.1509 16.8763C22.5454 17.0736 23.203 17.2832 23.6797 17.3571C24.3331 17.4599 25.1961 17.4188 25.8167 17.2585C26.6057 17.0571 27.4153 16.6297 28.003 16.1119C29.992 14.3489 30.3783 11.4147 28.9194 9.19549C27.8592 7.58865 25.9276 6.67632 23.9879 6.85714ZM25.4674 8.41056C25.866 8.51741 26.4044 8.7681 26.7372 9.00645C28.1797 10.0421 28.7263 11.9489 28.0564 13.5969C27.9085 13.9626 27.6126 14.4229 27.3208 14.7311C25.4756 16.7078 22.2783 16.2393 21.0537 13.8106C20.8276 13.3544 20.7126 12.8941 20.692 12.3023C20.6632 11.6941 20.7126 11.3489 20.8893 10.864C21.3906 9.48728 22.5249 8.5544 23.9879 8.32015C24.2715 8.27084 25.1427 8.32837 25.4674 8.41056Z" fill="#2C365A"/>
<path d="M12.2961 21.7421C11.9838 21.9064 11.9468 22.0256 11.8194 23.3325C11.7578 23.953 11.6961 24.4749 11.6838 24.4914C11.6715 24.5078 11.4372 24.5859 11.166 24.664C10.3687 24.89 9.47696 25.2763 8.83175 25.6626L8.58929 25.8064L8.46189 25.7119C8.38792 25.6585 7.98518 25.3338 7.56189 24.9886C6.78517 24.3475 6.60435 24.2366 6.37832 24.2366C6.10298 24.2366 5.95914 24.3516 4.82489 25.4818C3.8427 26.464 3.69886 26.6243 3.64955 26.7886C3.55092 27.1215 3.61256 27.2777 4.06873 27.8366C4.29064 28.1078 4.63174 28.5229 4.82489 28.7653L5.18243 29.2051L4.9975 29.5256C4.58243 30.2489 4.21256 31.1325 4.01119 31.8763C3.95366 32.0941 3.89201 32.2832 3.87968 32.2996C3.86325 32.316 3.39064 32.3736 2.82352 32.4311C1.49612 32.5667 1.41803 32.5832 1.2331 32.7763C1.15091 32.8585 1.06461 33.0023 1.03584 33.0927C1.00296 33.2078 0.994745 33.7256 1.00296 34.8229L1.01529 36.3845L1.13036 36.5612C1.31529 36.8407 1.43447 36.8736 2.73722 37.0051L3.87968 37.1201L4.01941 37.6133C4.24955 38.4106 4.64407 39.3352 5.05503 40.0379L5.17832 40.2434L4.62763 40.9215C3.90434 41.8051 3.73174 42.0311 3.6701 42.1462C3.60434 42.2695 3.60434 42.6106 3.66599 42.7338C3.73585 42.8695 5.91805 45.064 6.05777 45.138C6.18928 45.2078 6.55503 45.216 6.67832 45.1462C6.75641 45.1051 7.25778 44.7064 8.25641 43.8927L8.56874 43.638L8.77833 43.7612C9.43997 44.1558 10.5496 44.6201 11.3222 44.8297C11.6057 44.9078 11.6879 44.9448 11.7003 45.0106C11.7085 45.0558 11.766 45.5818 11.8277 46.1818C11.8934 46.8517 11.9592 47.3243 11.9961 47.4064C12.0783 47.579 12.2592 47.7311 12.4523 47.7845C12.6578 47.8379 15.5099 47.8379 15.7153 47.7845C15.9003 47.7311 16.0975 47.5708 16.1838 47.4023C16.229 47.3201 16.2907 46.8845 16.3688 46.1078C16.4345 45.4626 16.4921 44.9325 16.5003 44.9284C16.5044 44.9243 16.6934 44.8749 16.9194 44.8092C17.1455 44.7475 17.4866 44.6407 17.6797 44.5708C18.0825 44.4229 19.1181 43.938 19.414 43.7571L19.6112 43.6338L20.0962 44.0243C20.3592 44.2421 20.7167 44.5338 20.8852 44.6736C21.4071 45.1051 21.5674 45.1955 21.7893 45.1955C21.9003 45.1955 22.04 45.1749 22.1058 45.1503C22.2784 45.0886 24.4112 42.9516 24.5058 42.7503C24.6496 42.438 24.5797 42.138 24.2674 41.7845C24.1811 41.6818 23.8606 41.2955 23.5565 40.9256L23.0099 40.2516L23.1208 40.0626C23.5112 39.3927 23.9674 38.3242 24.1934 37.5311C24.251 37.3297 24.3126 37.1489 24.3291 37.1366C24.3455 37.1243 24.8674 37.0585 25.488 36.9969C26.1825 36.927 26.6674 36.8612 26.7496 36.8243C26.9304 36.7421 27.1236 36.516 27.1524 36.3516C27.1647 36.2777 27.1729 35.4927 27.1647 34.6092L27.1524 33.0023L27.0373 32.8544C26.8482 32.6037 26.7661 32.5832 25.5332 32.4517C24.9085 32.3859 24.3784 32.3325 24.3496 32.3325C24.3208 32.3325 24.2797 32.2544 24.2551 32.1558C24.1606 31.7777 23.84 30.8407 23.6756 30.479C23.5811 30.2653 23.3962 29.8955 23.2606 29.653C23.1167 29.3941 23.0304 29.1886 23.0469 29.1599C23.0633 29.1352 23.3838 28.7407 23.7537 28.2886C24.1236 27.8325 24.4647 27.3886 24.5058 27.2982C24.6044 27.0886 24.6044 26.8832 24.5058 26.7023C24.4071 26.5174 22.2373 24.3558 22.0852 24.29C21.9455 24.2284 21.7071 24.2243 21.5633 24.2777C21.4647 24.3147 20.9263 24.7338 20.0838 25.4243C19.903 25.5722 19.7222 25.7201 19.6852 25.7489C19.6277 25.7982 19.5537 25.7695 19.1674 25.5516C18.4605 25.1571 17.466 24.7667 16.6647 24.5653C16.566 24.5407 16.4879 24.4996 16.4879 24.4708C16.4879 24.4421 16.4345 23.9119 16.3688 23.2873C16.2373 22.0544 16.2167 21.9722 15.966 21.7832L15.8181 21.6681L12.477 21.6434L12.2961 21.7421ZM14.8852 23.1558C14.8852 23.1969 14.9386 23.7147 15.0044 24.3064C15.1523 25.716 15.1688 25.7366 16.0359 25.9215C16.9605 26.1147 18.1318 26.5955 18.8921 27.0886C19.0811 27.2119 19.2948 27.3434 19.3605 27.3804C19.5249 27.4626 19.8085 27.4585 19.9688 27.3681C20.0427 27.3311 20.4619 27.0023 20.9058 26.6407C21.3496 26.279 21.7236 25.979 21.74 25.9708C21.7564 25.9667 22.0154 26.2092 22.3154 26.5092L22.866 27.0599L22.6852 27.2818C22.5866 27.4051 22.3112 27.7421 22.0729 28.0297C21.4729 28.7736 21.4112 28.864 21.3866 29.0695C21.3619 29.316 21.3866 29.39 21.629 29.764C22.1633 30.5818 22.6112 31.601 22.8249 32.4886C22.8948 32.7763 22.9688 33.0804 22.9893 33.1667C23.0386 33.3763 23.2811 33.6352 23.4701 33.6845C23.5523 33.7051 24.0085 33.7626 24.4811 33.8078C24.9578 33.8571 25.4304 33.9064 25.5414 33.9188L25.7345 33.9434V34.7201C25.7345 35.4927 25.7345 35.4969 25.6441 35.5133C25.5907 35.5256 25.0811 35.579 24.5099 35.6366C23.4167 35.7475 23.314 35.7722 23.1332 35.99C23.0099 36.1338 23.0181 36.1133 22.8784 36.7503C22.6647 37.7119 22.2619 38.6653 21.6866 39.5859C21.4523 39.9599 21.403 40.0708 21.3866 40.2516C21.3619 40.5517 21.3578 40.5434 22.5578 42.0023C22.7222 42.2037 22.8578 42.3804 22.8578 42.3969C22.8578 42.4092 22.6154 42.664 22.3236 42.9558C21.8181 43.453 21.7811 43.4859 21.6989 43.4325C21.6126 43.379 21.1318 42.9927 20.3797 42.3722C19.8044 41.8996 19.6112 41.8873 18.9866 42.2941C18.0373 42.9064 17.0304 43.3215 15.9167 43.5558C15.4688 43.6462 15.2838 43.7612 15.1729 44.0201C15.1236 44.1352 15.066 44.5256 14.992 45.2366C14.9345 45.8119 14.8852 46.2969 14.8852 46.3174C14.8852 46.3338 14.5277 46.3421 14.0962 46.3379L13.303 46.3256L13.192 45.2243C13.04 43.7201 13.0441 43.7284 12.1564 43.5311C11.1824 43.3133 10.0811 42.8612 9.30847 42.364C8.70436 41.9695 8.5523 41.9284 8.24819 42.0681C8.15778 42.1133 7.71805 42.4421 7.27421 42.8078C6.83038 43.1736 6.44818 43.4695 6.43175 43.4695C6.35777 43.4695 5.33859 42.4051 5.36325 42.3516C5.37558 42.3229 5.67147 41.9448 6.0249 41.5174C6.38243 41.0859 6.69887 40.679 6.73586 40.6133C6.83038 40.4407 6.82627 40.1078 6.72764 39.9475C5.93038 38.6777 5.60572 37.9667 5.35503 36.9147C5.15777 36.0927 5.14955 36.0804 5.00161 35.9325C4.82489 35.7558 4.6975 35.727 3.5427 35.6201C3.05776 35.5708 2.61804 35.5256 2.56872 35.5133C2.4742 35.4969 2.4742 35.4927 2.4742 34.7201V33.9434L2.65091 33.9229C2.74544 33.9064 3.23037 33.8571 3.72763 33.8078C4.32763 33.7503 4.68928 33.6969 4.80024 33.6475C5.02626 33.553 5.16599 33.3517 5.22763 33.0517C5.29339 32.6982 5.46188 32.0736 5.58517 31.716C5.729 31.2845 6.1975 30.3311 6.50161 29.8544C6.64134 29.6325 6.77284 29.3941 6.79339 29.3201C6.8386 29.164 6.80572 28.9421 6.71531 28.7982C6.65777 28.7037 5.76599 27.5982 5.44544 27.216L5.30572 27.0558L5.85229 26.5092C6.15229 26.2092 6.4112 25.9626 6.42353 25.9626C6.43997 25.9626 6.82627 26.2708 7.28654 26.6448C7.74682 27.0229 8.19066 27.3558 8.26874 27.3886C8.5071 27.4914 8.766 27.4421 9.08244 27.2284C10.04 26.5832 11.014 26.1722 12.2304 25.8969C12.7359 25.7859 12.8304 25.7366 12.9742 25.5188C13.0646 25.379 13.0852 25.264 13.1797 24.2777C13.2414 23.6777 13.2989 23.164 13.3071 23.1352C13.3153 23.0982 13.5126 23.0859 14.1044 23.0859C14.8194 23.0859 14.8852 23.09 14.8852 23.1558Z" fill="#2C365A"/>
<path d="M13.5496 28.6584C11.3879 28.8968 9.5879 30.1338 8.63858 32.0365C8.44954 32.4229 8.22351 33.0722 8.12488 33.5242C8.03447 33.9434 7.99749 35.0613 8.05913 35.501C8.13721 36.027 8.27283 36.5613 8.41667 36.8736C8.72078 37.5517 8.8605 37.8271 8.9468 37.9298C9.00434 37.9955 9.04954 38.0695 9.04954 38.0942C9.04954 38.1805 9.58379 38.8175 9.94133 39.1545C10.7468 39.923 11.766 40.4449 12.9537 40.6997C13.4838 40.8148 14.7578 40.8065 15.3085 40.6833C17.3386 40.2312 18.9414 38.9038 19.7181 37.0298C20.6181 34.8599 20.1455 32.279 18.5427 30.5941C17.6057 29.6077 16.5372 29.0077 15.2592 28.7529C14.8729 28.679 13.8865 28.6214 13.5496 28.6584ZM14.9222 30.1749C16.6318 30.4995 17.992 31.716 18.514 33.3804C18.7482 34.1243 18.7688 35.1065 18.5674 35.8791C18.1523 37.486 16.8537 38.7887 15.2633 39.1915C13.4633 39.6517 11.6591 39.0476 10.4674 37.5805C10.2989 37.375 10.1345 37.1736 10.1057 37.1407C10.0811 37.1079 10.0605 37.0668 10.0646 37.0503C10.0728 37.0339 10.0112 36.8901 9.929 36.7339C9.73174 36.3394 9.55503 35.7065 9.49749 35.1681C9.32489 33.5982 10.0358 31.9955 11.3222 31.0256C11.8276 30.6475 12.5715 30.3105 13.1591 30.1995C13.2824 30.1749 13.4222 30.1461 13.4674 30.1379C13.6893 30.0968 14.6181 30.1173 14.9222 30.1749Z" fill="#2C365A"/>
<path d="M42.1438 23.1927C41.926 23.3119 41.8973 23.3612 41.4863 24.2407L41.0795 25.1078L40.689 25.0914C40.1959 25.0667 39.3082 25.1201 38.8233 25.2023C38.6219 25.2393 38.4534 25.264 38.4452 25.2557C38.4411 25.2475 38.2397 24.9188 37.9932 24.5242C37.3973 23.5585 37.2986 23.4557 36.9288 23.4557C36.7233 23.4557 36.5712 23.5215 35.174 24.216C34.3274 24.6352 34.2123 24.7133 34.126 24.9229C34.0274 25.153 34.0603 25.3503 34.2904 25.9667C34.4096 26.2914 34.5534 26.6777 34.6027 26.8256L34.6973 27.0968L34.2534 27.5242C33.826 27.9393 33.2836 28.5763 33.0863 28.8927C33.0329 28.979 32.9589 29.0448 32.9178 29.0448C32.8479 29.0448 32.5027 28.9667 31.6192 28.7571C31.4343 28.7119 31.1959 28.6749 31.089 28.6749C30.8671 28.6749 30.6123 28.7982 30.5096 28.9544C30.4767 29.0078 30.2959 29.4804 30.1151 30.0023C29.5521 31.6297 29.5767 31.5434 29.6301 31.7859C29.6959 32.0982 29.8521 32.2133 30.7808 32.6407L31.5822 33.0105L31.5863 33.8119C31.5904 34.527 31.648 35.1516 31.7507 35.5585C31.7671 35.6324 31.6973 35.6941 31.2247 35.9818C30.0534 36.6968 29.9959 36.7503 29.9671 37.1283C29.9507 37.3626 29.9589 37.379 30.5425 38.5831C31.1795 39.8859 31.2164 39.9352 31.5575 40.0133C31.7712 40.0585 31.8329 40.0461 32.7863 39.6927L33.5795 39.405L34.1014 39.9311C34.3932 40.227 34.8247 40.605 35.0877 40.7982C35.3384 40.9831 35.548 41.1557 35.548 41.1763C35.548 41.1968 35.4534 41.616 35.3384 42.1133C35.1534 42.9105 35.137 43.0297 35.1781 43.1777C35.2356 43.4037 35.4247 43.605 35.6384 43.6872C36.4233 43.979 38.0137 44.4968 38.1247 44.4968C38.3219 44.4968 38.511 44.4064 38.6507 44.2461C38.7206 44.1681 38.9384 43.7448 39.1438 43.305L39.5096 42.5037H40.3356C41.0507 42.4996 41.6301 42.4503 42.0863 42.3516C42.1151 42.3434 42.3616 42.7009 42.637 43.1407C43.2206 44.0653 43.3069 44.1475 43.6808 44.1434C43.8904 44.1393 44.0096 44.09 45.0411 43.5804C45.6658 43.2722 46.2247 42.9804 46.2863 42.9352C46.426 42.8242 46.5206 42.6064 46.5206 42.3886C46.5206 42.2859 46.4055 41.9078 46.2082 41.3777L45.9 40.527L46.4466 39.9763C46.7507 39.6722 47.1452 39.2201 47.3219 38.9777C47.589 38.6078 47.6589 38.5379 47.7288 38.5544C47.7781 38.5667 48.1808 38.6612 48.6288 38.7681C49.5904 38.99 49.7096 38.99 49.9685 38.7516C50.1247 38.6119 50.1575 38.5338 50.4288 37.7571C50.9219 36.3187 51 36.0763 51 35.9571C51 35.8174 50.8726 35.5379 50.7699 35.4475C50.7247 35.4105 50.3096 35.2009 49.8493 34.9872L49.0069 34.5927L49.0192 34.0297C49.0315 33.5078 48.9781 32.8749 48.8671 32.2092C48.8466 32.0859 48.8384 31.9749 48.8507 31.9626C48.8589 31.9503 49.2206 31.7201 49.6521 31.4489C50.0836 31.1777 50.474 30.9064 50.5151 30.8489C50.6466 30.6763 50.6795 30.4503 50.6055 30.216C50.5726 30.1009 50.2973 29.5215 50.0014 28.9215C49.3726 27.6557 49.3151 27.59 48.9123 27.59C48.7233 27.5859 48.526 27.6434 47.8767 27.8859C47.437 28.0461 47.0589 28.1818 47.0384 28.1818C47.0137 28.1818 46.8082 27.9886 46.574 27.7503C46.1589 27.3311 45.5055 26.7763 45.1932 26.5831C45.111 26.5338 45.0411 26.4722 45.0411 26.4557C45.0411 26.4352 45.1356 26.016 45.2507 25.527C45.4685 24.59 45.4767 24.442 45.337 24.2283C45.2014 24.0187 45.037 23.9407 43.9027 23.5503C42.6658 23.1187 42.3863 23.0612 42.1438 23.1927ZM43.8329 25.1818C43.8206 25.2393 43.7425 25.5598 43.6603 25.9009C43.5781 26.2379 43.5 26.6366 43.4918 26.7845C43.4753 27.0311 43.4836 27.064 43.5904 27.216C43.6644 27.3146 43.8493 27.4667 44.0671 27.5982C44.7945 28.042 45.4397 28.6092 45.9904 29.2955C46.2986 29.6859 46.4795 29.805 46.7466 29.8009C46.9027 29.7968 47.2849 29.6735 48.1397 29.3448C48.3411 29.2708 48.5096 29.2133 48.5137 29.2174C48.5219 29.2256 48.6288 29.4352 48.7562 29.69L48.9822 30.1461L48.5959 30.3886C48.3822 30.5201 48.0411 30.7338 47.8356 30.8612C47.2726 31.2188 47.1904 31.4119 47.3384 32.0078C47.5603 32.9119 47.6178 33.7955 47.511 34.6667C47.4616 35.0407 47.4616 35.1105 47.5233 35.2667C47.5603 35.3612 47.6425 35.4886 47.7041 35.5503C47.7658 35.6078 48.1479 35.805 48.5548 35.9941C48.9616 36.179 49.3069 36.3434 49.3233 36.3557C49.3521 36.3804 49.0562 37.2886 49.0069 37.3379C48.9986 37.3461 48.6247 37.2681 48.1767 37.1653C47.7288 37.0626 47.3096 36.9763 47.2438 36.9763C47.0507 36.9763 46.7712 37.1325 46.6685 37.3009C45.9616 38.427 45.6082 38.8461 44.8356 39.4708C44.1904 39.9927 44.1781 40.0749 44.5644 41.1311C44.7082 41.5256 44.8397 41.8872 44.8521 41.9366C44.8767 42.0187 44.8397 42.0516 44.4288 42.2571C44.1781 42.3804 43.9685 42.4831 43.9603 42.4831C43.9521 42.4831 43.8575 42.3393 43.7507 42.1626C43.3479 41.5009 43.0767 41.0777 42.9863 40.9831C42.8589 40.8475 42.5671 40.7407 42.4027 40.7694C42.3288 40.7818 42.0658 40.8393 41.8151 40.8968C41.1411 41.0489 40.4671 41.0982 39.789 41.0366C39.0206 40.9708 38.8849 40.9749 38.7041 41.0818C38.511 41.1968 38.4658 41.2749 38.0753 42.1338C37.8986 42.516 37.7507 42.8407 37.7425 42.8489C37.7301 42.8653 36.863 42.5777 36.7932 42.5324C36.7603 42.5119 36.7973 42.2777 36.9288 41.727C37.0274 41.3037 37.1096 40.8722 37.1096 40.7735C37.1096 40.4571 36.9945 40.2968 36.5671 40.0338C35.7781 39.5489 35.1452 38.9982 34.6644 38.3859C34.3315 37.9585 34.1795 37.8352 33.937 37.8105C33.7562 37.79 33.6329 37.827 32.6507 38.1886C32.0301 38.4188 32.1082 38.4434 31.8493 37.9256C31.7301 37.6749 31.6397 37.4612 31.6521 37.4448C31.6685 37.4324 32.0096 37.2146 32.4123 36.964C33.3781 36.3557 33.4315 36.2653 33.2466 35.5338C33.0493 34.7612 32.9918 33.8201 33.0904 32.8914C33.1356 32.4557 33.1315 32.427 33.0493 32.2626C32.9343 32.0366 32.8603 31.9914 31.9932 31.5927C31.5863 31.4037 31.2493 31.2475 31.2452 31.2434C31.237 31.2393 31.3069 31.0338 31.3932 30.7872C31.4795 30.5407 31.5575 30.3188 31.5658 30.2941C31.5781 30.2612 31.8 30.2982 32.2603 30.4092C33.2466 30.6434 33.3164 30.6516 33.4973 30.6064C33.7274 30.5448 33.8589 30.4133 34.1425 29.9571C34.5904 29.2379 35.063 28.7078 35.7699 28.1324C36.4069 27.6105 36.4151 27.5283 35.9959 26.3859C35.8356 25.9461 35.7082 25.5845 35.7164 25.5763C35.7247 25.5681 35.9342 25.4653 36.1849 25.3503C36.6082 25.1448 36.637 25.1407 36.6904 25.2105C36.7192 25.2516 36.8753 25.4982 37.0356 25.7571C37.7712 26.9448 37.7384 26.9283 38.8767 26.6859C39.5548 26.5461 40.237 26.5092 41.0548 26.579L41.7041 26.6324L41.8932 26.5215C42.0904 26.4064 42.0534 26.4681 42.5836 25.3461C42.6945 25.1078 42.8055 24.8735 42.8219 24.8283C42.8589 24.742 42.8589 24.742 43.3562 24.9105C43.8329 25.0708 43.8534 25.0831 43.8329 25.1818Z" fill="#2C365A"/>
<path d="M39.8014 28.6996C39.4931 28.7324 38.8356 28.8845 38.5685 28.9872C37.8205 29.2667 37.2616 29.6283 36.6945 30.1914C35.9836 30.9023 35.5891 31.5927 35.3343 32.579C35.2192 33.0105 35.2069 33.1133 35.2028 33.7503C35.1986 34.7325 35.3055 35.2133 35.7329 36.0928C36.2178 37.0832 36.9945 37.8599 38.0055 38.3695C39.5877 39.1667 41.5644 39.0804 42.9657 38.1558C43.5 37.8023 43.6232 37.7078 43.9315 37.3873C44.3137 36.9969 44.5191 36.7297 44.7205 36.3722C44.9876 35.8873 45.0287 35.7886 45.2054 35.2297C45.526 34.227 45.4602 32.8955 45.0369 31.8681C44.3876 30.2941 42.9945 29.1352 41.3465 28.7982C40.9315 28.716 40.1466 28.6626 39.8014 28.6996ZM41.0013 30.216C42.452 30.5242 43.5246 31.5681 43.8739 33.0147C43.9767 33.4421 43.9685 34.19 43.8575 34.6462C43.5287 35.9818 42.5342 36.9928 41.1986 37.3503C40.7383 37.4736 39.8589 37.4777 39.4068 37.3544C38.1493 37.0133 37.2041 36.1174 36.7973 34.8804C36.6863 34.5516 36.6822 34.49 36.6822 33.8119C36.6822 33.1338 36.6863 33.0722 36.7973 32.7434C37.2329 31.416 38.2274 30.5119 39.5753 30.2119C39.8959 30.142 40.6644 30.142 41.0013 30.216Z" fill="#2C365A"/>
<path d="M21.9536 1.10372C21.7399 1.17358 21.1646 1.35852 20.6796 1.51468C20.1947 1.67495 19.7262 1.85167 19.644 1.9092C19.4796 2.02016 19.3646 2.2503 19.3646 2.46399C19.3646 2.53386 19.4467 2.97769 19.5495 3.4503C19.6522 3.9229 19.7344 4.34208 19.7303 4.37906C19.7303 4.42016 19.5988 4.53112 19.4344 4.64208C18.9824 4.93386 18.5015 5.3366 18.0495 5.79687L17.6426 6.21194L17.1988 6.03934C16.9563 5.94893 16.5618 5.79687 16.3317 5.70646C16.0974 5.61605 15.8509 5.52975 15.781 5.51742C15.6002 5.47632 15.3207 5.57084 15.181 5.71879C15.0577 5.84208 13.9481 7.95852 13.8536 8.23797C13.8002 8.40646 13.8372 8.64482 13.9399 8.81742C14.0098 8.93249 14.6344 9.3681 15.5098 9.91468C15.6372 9.99687 15.6988 10.0585 15.6865 10.0996C15.5673 10.4818 15.4605 11.4763 15.4605 12.2078V12.7996L15.1646 12.9352C15.0002 13.0092 14.5974 13.1859 14.2769 13.3297C13.9522 13.4695 13.6481 13.6215 13.6029 13.6626C13.4879 13.7613 13.3646 14.0366 13.3646 14.1928C13.3646 14.2626 13.5043 14.7558 13.6769 15.2818C13.8495 15.8119 14.0344 16.3914 14.092 16.5722C14.2152 16.9626 14.4002 17.1763 14.6755 17.2503C14.8399 17.2914 14.9426 17.2791 15.744 17.1065C16.2331 16.9996 16.6687 16.9051 16.718 16.8969C16.7878 16.8804 16.8331 16.9215 16.9687 17.1352C17.2194 17.5339 17.7536 18.175 18.1892 18.6024L18.5878 18.9887L18.5262 19.1571C18.4933 19.2517 18.3372 19.6667 18.1769 20.0777C18.0166 20.4928 17.8851 20.8955 17.8851 20.9736C17.8851 21.1626 17.9714 21.3558 18.1152 21.4873C18.181 21.5489 18.7728 21.8695 19.4262 22.1982C20.6098 22.8024 20.618 22.8065 20.8563 22.79C21.2262 22.7613 21.2878 22.6996 22.0563 21.5037C22.4426 20.8996 22.3687 20.9366 22.9604 21.0434C23.5481 21.1503 24.2796 21.2078 24.7481 21.1791L25.1796 21.1544L25.5371 21.9681C25.7303 22.4119 25.9111 22.7736 25.9358 22.7695C25.9604 22.7613 25.9687 22.7859 25.9522 22.8229C25.9276 22.8928 26.1084 23.1065 26.2687 23.1845C26.5276 23.3161 26.5933 23.3037 27.9125 22.8804C28.6111 22.6585 29.2358 22.4489 29.2974 22.416C29.5851 22.264 29.6919 21.9188 29.6015 21.4297C29.544 21.1544 29.3344 20.238 29.2686 20.0037C29.2358 19.8804 29.2399 19.8517 29.3221 19.7777C29.3714 19.7325 29.4618 19.6708 29.5234 19.638C29.5851 19.6051 29.6262 19.5599 29.6097 19.5393C29.5974 19.5147 29.6015 19.5106 29.6262 19.5229C29.7084 19.5763 30.1275 19.2517 30.6988 18.6969C30.8673 18.5366 31.0152 18.401 31.0317 18.401C31.0522 18.401 31.1714 18.2613 31.3029 18.0845C31.3399 18.0352 31.4015 18.0476 31.6727 18.1544C31.8536 18.2243 32.0385 18.2982 32.0837 18.3188C32.1289 18.3393 32.3878 18.4421 32.659 18.5489C33.2508 18.7791 33.444 18.7955 33.7152 18.6352C33.896 18.5325 33.9248 18.4832 34.5289 17.3078C34.87 16.6339 35.1618 16.0256 35.1741 15.9517C35.207 15.7462 35.1536 15.5407 35.0303 15.3928C34.9358 15.2818 34.5084 14.9859 33.5549 14.3736C33.4358 14.2996 33.3371 14.2092 33.3371 14.1722C33.3371 14.1352 33.3782 13.9133 33.4234 13.675C33.4892 13.3544 33.518 13.0133 33.5385 12.3476L33.5632 11.4517L34.4632 11.053C35.2234 10.7161 35.3837 10.6297 35.4864 10.5024C35.6262 10.3297 35.6755 10.0339 35.6056 9.80783C35.1823 8.45989 34.796 7.32975 34.7262 7.24345C34.6275 7.11605 34.3522 6.98043 34.2001 6.97632C34.1426 6.97632 33.6741 7.06674 33.1522 7.1818C32.6344 7.29276 32.2029 7.36673 32.1947 7.34619C32.1864 7.32564 32.059 7.1366 31.9111 6.92701C31.5741 6.4503 31.0234 5.81331 30.6823 5.50509L30.4193 5.27084L30.7686 4.37084C31.1549 3.3681 31.1837 3.21194 31.0234 2.93249C30.9125 2.73523 30.8262 2.6818 29.4618 1.9955C28.5289 1.52701 28.3728 1.46125 28.196 1.46125C27.9782 1.46536 27.8139 1.53523 27.6823 1.68317C27.6207 1.74893 26.7618 3.06399 26.618 3.31057C26.6139 3.31468 26.4166 3.2818 26.1823 3.2366C25.5782 3.12153 24.8878 3.06399 24.3207 3.08043L23.8358 3.09276L23.4495 2.2092C23.2358 1.72427 23.018 1.28454 22.9687 1.23112C22.7262 0.968104 22.4673 0.935228 21.9536 1.10372ZM22.3974 3.44619C22.8002 4.34619 22.8248 4.38728 23.0262 4.50646C23.1947 4.60509 23.1865 4.60509 24.1974 4.5681C25.0974 4.53523 25.533 4.57632 26.2933 4.76125C27.0084 4.93386 27.2221 4.91742 27.444 4.66673C27.4933 4.61742 27.7234 4.27632 27.9536 3.91468C28.1837 3.55304 28.4015 3.22838 28.4303 3.1955C28.4837 3.14208 28.5495 3.16262 28.9728 3.38043C29.2358 3.51605 29.4618 3.63112 29.47 3.63523C29.4782 3.64345 29.3344 4.03386 29.1495 4.50646C28.9522 5.01605 28.8166 5.42701 28.8166 5.51742C28.8166 5.75167 28.9522 5.96126 29.2974 6.24482C30.0906 6.91057 30.5673 7.46537 31.0974 8.36947C31.4714 8.99413 31.5412 9.01057 32.733 8.75989C33.2303 8.65715 33.6453 8.58728 33.6659 8.60372C33.6823 8.62427 33.7727 8.86674 33.8632 9.14619L34.0316 9.65167L33.8508 9.72975C33.1029 10.0503 32.396 10.375 32.3015 10.4366C32.244 10.4777 32.1536 10.5969 32.1043 10.6996C32.0138 10.8804 32.0138 10.8969 32.0632 11.427C32.1495 12.3106 32.0878 13.0421 31.8495 14.0325C31.6481 14.875 31.6604 14.8996 32.7618 15.6065C33.1317 15.8448 33.4522 16.0503 33.4727 16.0626C33.5138 16.0914 33.0248 17.0859 32.9673 17.0859C32.9467 17.0859 32.6262 16.9667 32.2604 16.8229C31.307 16.4489 31.2043 16.4202 31.0399 16.4489C30.7933 16.4941 30.6864 16.5763 30.3495 16.9708C29.6878 17.7434 29.096 18.2407 28.2823 18.7133C27.6782 19.0667 27.6207 19.2393 27.8303 20.127C28.081 21.1832 28.0933 21.3558 27.9289 21.3599C27.9043 21.3599 27.6865 21.4256 27.4399 21.5037C27.1974 21.5818 26.9919 21.6434 26.9878 21.6393C26.9796 21.6311 26.807 21.2489 26.6015 20.7845C26.1043 19.6585 26.0262 19.5928 25.2824 19.6832C24.4645 19.7777 23.3837 19.6832 22.4303 19.4325C22.081 19.3421 21.8837 19.3544 21.6824 19.49C21.6248 19.527 21.3454 19.9092 21.0659 20.3366C20.7865 20.764 20.5481 21.1133 20.5317 21.1133C20.5193 21.1133 20.2892 21.0024 20.0221 20.8626L19.533 20.616L19.6276 20.3613C19.681 20.2215 19.8289 19.8311 19.9604 19.4982C20.1618 18.9722 20.1947 18.8613 20.1782 18.6887C20.1536 18.4503 20.0056 18.2119 19.8084 18.0928C19.6029 17.9736 18.707 17.0654 18.4522 16.7161C18.3289 16.5476 18.1193 16.227 17.9878 16.0051C17.8563 15.7832 17.6837 15.5489 17.6015 15.4832C17.3714 15.29 17.2276 15.29 16.2618 15.4996C15.7892 15.6024 15.3865 15.6887 15.37 15.6887C15.3454 15.6887 15.0084 14.7188 15.0084 14.6407C15.0084 14.616 15.3536 14.4476 15.781 14.2585C16.7262 13.8434 16.792 13.8065 16.9029 13.5845C16.9933 13.4119 16.9933 13.3955 16.944 12.7256C16.907 12.2078 16.9029 11.9243 16.9399 11.5339C16.9892 10.9873 17.1084 10.3421 17.207 10.0585C17.3426 9.67632 17.2563 9.364 16.944 9.12564C16.8331 9.03934 16.4632 8.78865 16.1221 8.57084L15.5015 8.16811L15.7687 7.66674C15.9166 7.38728 16.0481 7.16537 16.0646 7.16948C16.0851 7.17358 16.4591 7.31742 16.8988 7.49002C18.0495 7.94208 18.1111 7.93386 18.6783 7.27221C19.2906 6.56126 19.8783 6.05989 20.6385 5.60372C21.0782 5.3366 21.1563 5.27495 21.2385 5.11879C21.3289 4.94208 21.3084 4.67906 21.1317 3.86536C21.0413 3.44208 20.9673 3.0681 20.9673 3.02701C20.9673 2.96947 21.07 2.92016 21.4728 2.78865C21.7481 2.70235 21.9906 2.63249 22.007 2.6366C22.0276 2.64071 22.2043 3.00235 22.3974 3.44619Z" stroke="#2C365A" stroke-width="0.9"/>
<path d="M23.9879 6.85714C23.0674 6.94344 22.0564 7.34207 21.2961 7.90919C21.0126 8.12289 20.5317 8.61193 20.2934 8.92837C19.8043 9.57769 19.455 10.3585 19.2947 11.1558C19.1961 11.6571 19.1961 12.627 19.2947 13.0996C19.6482 14.7763 20.6715 16.1325 22.1509 16.8763C22.5454 17.0736 23.203 17.2832 23.6797 17.3571C24.3331 17.4599 25.1961 17.4188 25.8167 17.2585C26.6057 17.0571 27.4153 16.6297 28.003 16.1119C29.992 14.3489 30.3783 11.4147 28.9194 9.19549C27.8592 7.58865 25.9276 6.67632 23.9879 6.85714ZM25.4674 8.41056C25.866 8.51741 26.4044 8.7681 26.7372 9.00645C28.1797 10.0421 28.7263 11.9489 28.0564 13.5969C27.9085 13.9626 27.6126 14.4229 27.3208 14.7311C25.4756 16.7078 22.2783 16.2393 21.0537 13.8106C20.8276 13.3544 20.7126 12.8941 20.692 12.3023C20.6632 11.6941 20.7126 11.3489 20.8893 10.864C21.3906 9.48728 22.5249 8.5544 23.9879 8.32015C24.2715 8.27084 25.1427 8.32837 25.4674 8.41056Z" stroke="#2C365A" stroke-width="0.9"/>
<path d="M12.2961 21.7421C11.9838 21.9064 11.9468 22.0256 11.8194 23.3325C11.7578 23.953 11.6961 24.4749 11.6838 24.4914C11.6715 24.5078 11.4372 24.5859 11.166 24.664C10.3687 24.89 9.47696 25.2763 8.83175 25.6626L8.58929 25.8064L8.46189 25.7119C8.38792 25.6585 7.98518 25.3338 7.56189 24.9886C6.78517 24.3475 6.60435 24.2366 6.37832 24.2366C6.10298 24.2366 5.95914 24.3516 4.82489 25.4818C3.8427 26.464 3.69886 26.6243 3.64955 26.7886C3.55092 27.1215 3.61256 27.2777 4.06873 27.8366C4.29064 28.1078 4.63174 28.5229 4.82489 28.7653L5.18243 29.2051L4.9975 29.5256C4.58243 30.2489 4.21256 31.1325 4.01119 31.8763C3.95366 32.0941 3.89201 32.2832 3.87968 32.2996C3.86325 32.316 3.39064 32.3736 2.82352 32.4311C1.49612 32.5667 1.41803 32.5832 1.2331 32.7763C1.15091 32.8585 1.06461 33.0023 1.03584 33.0927C1.00296 33.2078 0.994745 33.7256 1.00296 34.8229L1.01529 36.3845L1.13036 36.5612C1.31529 36.8407 1.43447 36.8736 2.73722 37.0051L3.87968 37.1201L4.01941 37.6133C4.24955 38.4106 4.64407 39.3352 5.05503 40.0379L5.17832 40.2434L4.62763 40.9215C3.90434 41.8051 3.73174 42.0311 3.6701 42.1462C3.60434 42.2695 3.60434 42.6106 3.66599 42.7338C3.73585 42.8695 5.91805 45.064 6.05777 45.138C6.18928 45.2078 6.55503 45.216 6.67832 45.1462C6.75641 45.1051 7.25778 44.7064 8.25641 43.8927L8.56874 43.638L8.77833 43.7612C9.43997 44.1558 10.5496 44.6201 11.3222 44.8297C11.6057 44.9078 11.6879 44.9448 11.7003 45.0106C11.7085 45.0558 11.766 45.5818 11.8277 46.1818C11.8934 46.8517 11.9592 47.3243 11.9961 47.4064C12.0783 47.579 12.2592 47.7311 12.4523 47.7845C12.6578 47.8379 15.5099 47.8379 15.7153 47.7845C15.9003 47.7311 16.0975 47.5708 16.1838 47.4023C16.229 47.3201 16.2907 46.8845 16.3688 46.1078C16.4345 45.4626 16.4921 44.9325 16.5003 44.9284C16.5044 44.9243 16.6934 44.8749 16.9194 44.8092C17.1455 44.7475 17.4866 44.6407 17.6797 44.5708C18.0825 44.4229 19.1181 43.938 19.414 43.7571L19.6112 43.6338L20.0962 44.0243C20.3592 44.2421 20.7167 44.5338 20.8852 44.6736C21.4071 45.1051 21.5674 45.1955 21.7893 45.1955C21.9003 45.1955 22.04 45.1749 22.1058 45.1503C22.2784 45.0886 24.4112 42.9516 24.5058 42.7503C24.6496 42.438 24.5797 42.138 24.2674 41.7845C24.1811 41.6818 23.8606 41.2955 23.5565 40.9256L23.0099 40.2516L23.1208 40.0626C23.5112 39.3927 23.9674 38.3242 24.1934 37.5311C24.251 37.3297 24.3126 37.1489 24.3291 37.1366C24.3455 37.1243 24.8674 37.0585 25.488 36.9969C26.1825 36.927 26.6674 36.8612 26.7496 36.8243C26.9304 36.7421 27.1236 36.516 27.1524 36.3516C27.1647 36.2777 27.1729 35.4927 27.1647 34.6092L27.1524 33.0023L27.0373 32.8544C26.8482 32.6037 26.7661 32.5832 25.5332 32.4517C24.9085 32.3859 24.3784 32.3325 24.3496 32.3325C24.3208 32.3325 24.2797 32.2544 24.2551 32.1558C24.1606 31.7777 23.84 30.8407 23.6756 30.479C23.5811 30.2653 23.3962 29.8955 23.2606 29.653C23.1167 29.3941 23.0304 29.1886 23.0469 29.1599C23.0633 29.1352 23.3838 28.7407 23.7537 28.2886C24.1236 27.8325 24.4647 27.3886 24.5058 27.2982C24.6044 27.0886 24.6044 26.8832 24.5058 26.7023C24.4071 26.5174 22.2373 24.3558 22.0852 24.29C21.9455 24.2284 21.7071 24.2243 21.5633 24.2777C21.4647 24.3147 20.9263 24.7338 20.0838 25.4243C19.903 25.5722 19.7222 25.7201 19.6852 25.7489C19.6277 25.7982 19.5537 25.7695 19.1674 25.5516C18.4605 25.1571 17.466 24.7667 16.6647 24.5653C16.566 24.5407 16.4879 24.4996 16.4879 24.4708C16.4879 24.4421 16.4345 23.9119 16.3688 23.2873C16.2373 22.0544 16.2167 21.9722 15.966 21.7832L15.8181 21.6681L12.477 21.6434L12.2961 21.7421ZM14.8852 23.1558C14.8852 23.1969 14.9386 23.7147 15.0044 24.3064C15.1523 25.716 15.1688 25.7366 16.0359 25.9215C16.9605 26.1147 18.1318 26.5955 18.8921 27.0886C19.0811 27.2119 19.2948 27.3434 19.3605 27.3804C19.5249 27.4626 19.8085 27.4585 19.9688 27.3681C20.0427 27.3311 20.4619 27.0023 20.9058 26.6407C21.3496 26.279 21.7236 25.979 21.74 25.9708C21.7564 25.9667 22.0154 26.2092 22.3154 26.5092L22.866 27.0599L22.6852 27.2818C22.5866 27.4051 22.3112 27.7421 22.0729 28.0297C21.4729 28.7736 21.4112 28.864 21.3866 29.0695C21.3619 29.316 21.3866 29.39 21.629 29.764C22.1633 30.5818 22.6112 31.601 22.8249 32.4886C22.8948 32.7763 22.9688 33.0804 22.9893 33.1667C23.0386 33.3763 23.2811 33.6352 23.4701 33.6845C23.5523 33.7051 24.0085 33.7626 24.4811 33.8078C24.9578 33.8571 25.4304 33.9064 25.5414 33.9188L25.7345 33.9434V34.7201C25.7345 35.4927 25.7345 35.4969 25.6441 35.5133C25.5907 35.5256 25.0811 35.579 24.5099 35.6366C23.4167 35.7475 23.314 35.7722 23.1332 35.99C23.0099 36.1338 23.0181 36.1133 22.8784 36.7503C22.6647 37.7119 22.2619 38.6653 21.6866 39.5859C21.4523 39.9599 21.403 40.0708 21.3866 40.2516C21.3619 40.5517 21.3578 40.5434 22.5578 42.0023C22.7222 42.2037 22.8578 42.3804 22.8578 42.3969C22.8578 42.4092 22.6154 42.664 22.3236 42.9558C21.8181 43.453 21.7811 43.4859 21.6989 43.4325C21.6126 43.379 21.1318 42.9927 20.3797 42.3722C19.8044 41.8996 19.6112 41.8873 18.9866 42.2941C18.0373 42.9064 17.0304 43.3215 15.9167 43.5558C15.4688 43.6462 15.2838 43.7612 15.1729 44.0201C15.1236 44.1352 15.066 44.5256 14.992 45.2366C14.9345 45.8119 14.8852 46.2969 14.8852 46.3174C14.8852 46.3338 14.5277 46.3421 14.0962 46.3379L13.303 46.3256L13.192 45.2243C13.04 43.7201 13.0441 43.7284 12.1564 43.5311C11.1824 43.3133 10.0811 42.8612 9.30847 42.364C8.70436 41.9695 8.5523 41.9284 8.24819 42.0681C8.15778 42.1133 7.71805 42.4421 7.27421 42.8078C6.83038 43.1736 6.44818 43.4695 6.43175 43.4695C6.35777 43.4695 5.33859 42.4051 5.36325 42.3516C5.37558 42.3229 5.67147 41.9448 6.0249 41.5174C6.38243 41.0859 6.69887 40.679 6.73586 40.6133C6.83038 40.4407 6.82627 40.1078 6.72764 39.9475C5.93038 38.6777 5.60572 37.9667 5.35503 36.9147C5.15777 36.0927 5.14955 36.0804 5.00161 35.9325C4.82489 35.7558 4.6975 35.727 3.5427 35.6201C3.05776 35.5708 2.61804 35.5256 2.56872 35.5133C2.4742 35.4969 2.4742 35.4927 2.4742 34.7201V33.9434L2.65091 33.9229C2.74544 33.9064 3.23037 33.8571 3.72763 33.8078C4.32763 33.7503 4.68928 33.6969 4.80024 33.6475C5.02626 33.553 5.16599 33.3517 5.22763 33.0517C5.29339 32.6982 5.46188 32.0736 5.58517 31.716C5.729 31.2845 6.1975 30.3311 6.50161 29.8544C6.64134 29.6325 6.77284 29.3941 6.79339 29.3201C6.8386 29.164 6.80572 28.9421 6.71531 28.7982C6.65777 28.7037 5.76599 27.5982 5.44544 27.216L5.30572 27.0558L5.85229 26.5092C6.15229 26.2092 6.4112 25.9626 6.42353 25.9626C6.43997 25.9626 6.82627 26.2708 7.28654 26.6448C7.74682 27.0229 8.19066 27.3558 8.26874 27.3886C8.5071 27.4914 8.766 27.4421 9.08244 27.2284C10.04 26.5832 11.014 26.1722 12.2304 25.8969C12.7359 25.7859 12.8304 25.7366 12.9742 25.5188C13.0646 25.379 13.0852 25.264 13.1797 24.2777C13.2414 23.6777 13.2989 23.164 13.3071 23.1352C13.3153 23.0982 13.5126 23.0859 14.1044 23.0859C14.8194 23.0859 14.8852 23.09 14.8852 23.1558Z" stroke="#2C365A" stroke-width="0.9"/>
<path d="M13.5496 28.6584C11.3879 28.8968 9.5879 30.1338 8.63858 32.0365C8.44954 32.4229 8.22351 33.0722 8.12488 33.5242C8.03447 33.9434 7.99749 35.0613 8.05913 35.501C8.13721 36.027 8.27283 36.5613 8.41667 36.8736C8.72078 37.5517 8.8605 37.8271 8.9468 37.9298C9.00434 37.9955 9.04954 38.0695 9.04954 38.0942C9.04954 38.1805 9.58379 38.8175 9.94133 39.1545C10.7468 39.923 11.766 40.4449 12.9537 40.6997C13.4838 40.8148 14.7578 40.8065 15.3085 40.6833C17.3386 40.2312 18.9414 38.9038 19.7181 37.0298C20.6181 34.8599 20.1455 32.279 18.5427 30.5941C17.6057 29.6077 16.5372 29.0077 15.2592 28.7529C14.8729 28.679 13.8865 28.6214 13.5496 28.6584ZM14.9222 30.1749C16.6318 30.4995 17.992 31.716 18.514 33.3804C18.7482 34.1243 18.7688 35.1065 18.5674 35.8791C18.1523 37.486 16.8537 38.7887 15.2633 39.1915C13.4633 39.6517 11.6591 39.0476 10.4674 37.5805C10.2989 37.375 10.1345 37.1736 10.1057 37.1407C10.0811 37.1079 10.0605 37.0668 10.0646 37.0503C10.0728 37.0339 10.0112 36.8901 9.929 36.7339C9.73174 36.3394 9.55503 35.7065 9.49749 35.1681C9.32489 33.5982 10.0358 31.9955 11.3222 31.0256C11.8276 30.6475 12.5715 30.3105 13.1591 30.1995C13.2824 30.1749 13.4222 30.1461 13.4674 30.1379C13.6893 30.0968 14.6181 30.1173 14.9222 30.1749Z" stroke="#2C365A" stroke-width="0.9"/>
<path d="M42.1438 23.1927C41.926 23.3119 41.8973 23.3612 41.4863 24.2407L41.0795 25.1078L40.689 25.0914C40.1959 25.0667 39.3082 25.1201 38.8233 25.2023C38.6219 25.2393 38.4534 25.264 38.4452 25.2557C38.4411 25.2475 38.2397 24.9188 37.9932 24.5242C37.3973 23.5585 37.2986 23.4557 36.9288 23.4557C36.7233 23.4557 36.5712 23.5215 35.174 24.216C34.3274 24.6352 34.2123 24.7133 34.126 24.9229C34.0274 25.153 34.0603 25.3503 34.2904 25.9667C34.4096 26.2914 34.5534 26.6777 34.6027 26.8256L34.6973 27.0968L34.2534 27.5242C33.826 27.9393 33.2836 28.5763 33.0863 28.8927C33.0329 28.979 32.9589 29.0448 32.9178 29.0448C32.8479 29.0448 32.5027 28.9667 31.6192 28.7571C31.4343 28.7119 31.1959 28.6749 31.089 28.6749C30.8671 28.6749 30.6123 28.7982 30.5096 28.9544C30.4767 29.0078 30.2959 29.4804 30.1151 30.0023C29.5521 31.6297 29.5767 31.5434 29.6301 31.7859C29.6959 32.0982 29.8521 32.2133 30.7808 32.6407L31.5822 33.0105L31.5863 33.8119C31.5904 34.527 31.648 35.1516 31.7507 35.5585C31.7671 35.6324 31.6973 35.6941 31.2247 35.9818C30.0534 36.6968 29.9959 36.7503 29.9671 37.1283C29.9507 37.3626 29.9589 37.379 30.5425 38.5831C31.1795 39.8859 31.2164 39.9352 31.5575 40.0133C31.7712 40.0585 31.8329 40.0461 32.7863 39.6927L33.5795 39.405L34.1014 39.9311C34.3932 40.227 34.8247 40.605 35.0877 40.7982C35.3384 40.9831 35.548 41.1557 35.548 41.1763C35.548 41.1968 35.4534 41.616 35.3384 42.1133C35.1534 42.9105 35.137 43.0297 35.1781 43.1777C35.2356 43.4037 35.4247 43.605 35.6384 43.6872C36.4233 43.979 38.0137 44.4968 38.1247 44.4968C38.3219 44.4968 38.511 44.4064 38.6507 44.2461C38.7206 44.1681 38.9384 43.7448 39.1438 43.305L39.5096 42.5037H40.3356C41.0507 42.4996 41.6301 42.4503 42.0863 42.3516C42.1151 42.3434 42.3616 42.7009 42.637 43.1407C43.2206 44.0653 43.3069 44.1475 43.6808 44.1434C43.8904 44.1393 44.0096 44.09 45.0411 43.5804C45.6658 43.2722 46.2247 42.9804 46.2863 42.9352C46.426 42.8242 46.5206 42.6064 46.5206 42.3886C46.5206 42.2859 46.4055 41.9078 46.2082 41.3777L45.9 40.527L46.4466 39.9763C46.7507 39.6722 47.1452 39.2201 47.3219 38.9777C47.589 38.6078 47.6589 38.5379 47.7288 38.5544C47.7781 38.5667 48.1808 38.6612 48.6288 38.7681C49.5904 38.99 49.7096 38.99 49.9685 38.7516C50.1247 38.6119 50.1575 38.5338 50.4288 37.7571C50.9219 36.3187 51 36.0763 51 35.9571C51 35.8174 50.8726 35.5379 50.7699 35.4475C50.7247 35.4105 50.3096 35.2009 49.8493 34.9872L49.0069 34.5927L49.0192 34.0297C49.0315 33.5078 48.9781 32.8749 48.8671 32.2092C48.8466 32.0859 48.8384 31.9749 48.8507 31.9626C48.8589 31.9503 49.2206 31.7201 49.6521 31.4489C50.0836 31.1777 50.474 30.9064 50.5151 30.8489C50.6466 30.6763 50.6795 30.4503 50.6055 30.216C50.5726 30.1009 50.2973 29.5215 50.0014 28.9215C49.3726 27.6557 49.3151 27.59 48.9123 27.59C48.7233 27.5859 48.526 27.6434 47.8767 27.8859C47.437 28.0461 47.0589 28.1818 47.0384 28.1818C47.0137 28.1818 46.8082 27.9886 46.574 27.7503C46.1589 27.3311 45.5055 26.7763 45.1932 26.5831C45.111 26.5338 45.0411 26.4722 45.0411 26.4557C45.0411 26.4352 45.1356 26.016 45.2507 25.527C45.4685 24.59 45.4767 24.442 45.337 24.2283C45.2014 24.0187 45.037 23.9407 43.9027 23.5503C42.6658 23.1187 42.3863 23.0612 42.1438 23.1927ZM43.8329 25.1818C43.8206 25.2393 43.7425 25.5598 43.6603 25.9009C43.5781 26.2379 43.5 26.6366 43.4918 26.7845C43.4753 27.0311 43.4836 27.064 43.5904 27.216C43.6644 27.3146 43.8493 27.4667 44.0671 27.5982C44.7945 28.042 45.4397 28.6092 45.9904 29.2955C46.2986 29.6859 46.4795 29.805 46.7466 29.8009C46.9027 29.7968 47.2849 29.6735 48.1397 29.3448C48.3411 29.2708 48.5096 29.2133 48.5137 29.2174C48.5219 29.2256 48.6288 29.4352 48.7562 29.69L48.9822 30.1461L48.5959 30.3886C48.3822 30.5201 48.0411 30.7338 47.8356 30.8612C47.2726 31.2188 47.1904 31.4119 47.3384 32.0078C47.5603 32.9119 47.6178 33.7955 47.511 34.6667C47.4616 35.0407 47.4616 35.1105 47.5233 35.2667C47.5603 35.3612 47.6425 35.4886 47.7041 35.5503C47.7658 35.6078 48.1479 35.805 48.5548 35.9941C48.9616 36.179 49.3069 36.3434 49.3233 36.3557C49.3521 36.3804 49.0562 37.2886 49.0069 37.3379C48.9986 37.3461 48.6247 37.2681 48.1767 37.1653C47.7288 37.0626 47.3096 36.9763 47.2438 36.9763C47.0507 36.9763 46.7712 37.1325 46.6685 37.3009C45.9616 38.427 45.6082 38.8461 44.8356 39.4708C44.1904 39.9927 44.1781 40.0749 44.5644 41.1311C44.7082 41.5256 44.8397 41.8872 44.8521 41.9366C44.8767 42.0187 44.8397 42.0516 44.4288 42.2571C44.1781 42.3804 43.9685 42.4831 43.9603 42.4831C43.9521 42.4831 43.8575 42.3393 43.7507 42.1626C43.3479 41.5009 43.0767 41.0777 42.9863 40.9831C42.8589 40.8475 42.5671 40.7407 42.4027 40.7694C42.3288 40.7818 42.0658 40.8393 41.8151 40.8968C41.1411 41.0489 40.4671 41.0982 39.789 41.0366C39.0206 40.9708 38.8849 40.9749 38.7041 41.0818C38.511 41.1968 38.4658 41.2749 38.0753 42.1338C37.8986 42.516 37.7507 42.8407 37.7425 42.8489C37.7301 42.8653 36.863 42.5777 36.7932 42.5324C36.7603 42.5119 36.7973 42.2777 36.9288 41.727C37.0274 41.3037 37.1096 40.8722 37.1096 40.7735C37.1096 40.4571 36.9945 40.2968 36.5671 40.0338C35.7781 39.5489 35.1452 38.9982 34.6644 38.3859C34.3315 37.9585 34.1795 37.8352 33.937 37.8105C33.7562 37.79 33.6329 37.827 32.6507 38.1886C32.0301 38.4188 32.1082 38.4434 31.8493 37.9256C31.7301 37.6749 31.6397 37.4612 31.6521 37.4448C31.6685 37.4324 32.0096 37.2146 32.4123 36.964C33.3781 36.3557 33.4315 36.2653 33.2466 35.5338C33.0493 34.7612 32.9918 33.8201 33.0904 32.8914C33.1356 32.4557 33.1315 32.427 33.0493 32.2626C32.9343 32.0366 32.8603 31.9914 31.9932 31.5927C31.5863 31.4037 31.2493 31.2475 31.2452 31.2434C31.237 31.2393 31.3069 31.0338 31.3932 30.7872C31.4795 30.5407 31.5575 30.3188 31.5658 30.2941C31.5781 30.2612 31.8 30.2982 32.2603 30.4092C33.2466 30.6434 33.3164 30.6516 33.4973 30.6064C33.7274 30.5448 33.8589 30.4133 34.1425 29.9571C34.5904 29.2379 35.063 28.7078 35.7699 28.1324C36.4069 27.6105 36.4151 27.5283 35.9959 26.3859C35.8356 25.9461 35.7082 25.5845 35.7164 25.5763C35.7247 25.5681 35.9342 25.4653 36.1849 25.3503C36.6082 25.1448 36.637 25.1407 36.6904 25.2105C36.7192 25.2516 36.8753 25.4982 37.0356 25.7571C37.7712 26.9448 37.7384 26.9283 38.8767 26.6859C39.5548 26.5461 40.237 26.5092 41.0548 26.579L41.7041 26.6324L41.8932 26.5215C42.0904 26.4064 42.0534 26.4681 42.5836 25.3461C42.6945 25.1078 42.8055 24.8735 42.8219 24.8283C42.8589 24.742 42.8589 24.742 43.3562 24.9105C43.8329 25.0708 43.8534 25.0831 43.8329 25.1818Z" stroke="#2C365A" stroke-width="0.9"/>
<path d="M39.8014 28.6996C39.4931 28.7324 38.8356 28.8845 38.5685 28.9872C37.8205 29.2667 37.2616 29.6283 36.6945 30.1914C35.9836 30.9023 35.5891 31.5927 35.3343 32.579C35.2192 33.0105 35.2069 33.1133 35.2028 33.7503C35.1986 34.7325 35.3055 35.2133 35.7329 36.0928C36.2178 37.0832 36.9945 37.8599 38.0055 38.3695C39.5877 39.1667 41.5644 39.0804 42.9657 38.1558C43.5 37.8023 43.6232 37.7078 43.9315 37.3873C44.3137 36.9969 44.5191 36.7297 44.7205 36.3722C44.9876 35.8873 45.0287 35.7886 45.2054 35.2297C45.526 34.227 45.4602 32.8955 45.0369 31.8681C44.3876 30.2941 42.9945 29.1352 41.3465 28.7982C40.9315 28.716 40.1466 28.6626 39.8014 28.6996ZM41.0013 30.216C42.452 30.5242 43.5246 31.5681 43.8739 33.0147C43.9767 33.4421 43.9685 34.19 43.8575 34.6462C43.5287 35.9818 42.5342 36.9928 41.1986 37.3503C40.7383 37.4736 39.8589 37.4777 39.4068 37.3544C38.1493 37.0133 37.2041 36.1174 36.7973 34.8804C36.6863 34.5516 36.6822 34.49 36.6822 33.8119C36.6822 33.1338 36.6863 33.0722 36.7973 32.7434C37.2329 31.416 38.2274 30.5119 39.5753 30.2119C39.8959 30.142 40.6644 30.142 41.0013 30.216Z" stroke="#2C365A" stroke-width="0.9"/>
</svg>
