<svg width="27" height="29" viewBox="0 0 27 29" fill="none" xmlns="http://www.w3.org/2000/svg">
<path d="M13.5 2C10.9814 2.00295 8.56672 2.99726 6.78577 4.76482C5.00482 6.53238 4.00298 8.92886 4.00001 11.4286C3.99699 13.4713 4.66931 15.4587 5.91383 17.0857C5.91383 17.0857 6.17292 17.4243 6.21524 17.4731L13.5 26L20.7882 17.4689C20.8262 17.4234 21.0862 17.0857 21.0862 17.0857L21.087 17.0831C22.3309 15.4568 23.0029 13.4704 23 11.4286C22.997 8.92886 21.9952 6.53238 20.2142 4.76482C18.4333 2.99726 16.0186 2.00295 13.5 2ZM13.5 14.8571C12.8168 14.8571 12.1489 14.6561 11.5808 14.2793C11.0127 13.9026 10.5699 13.3671 10.3084 12.7406C10.047 12.1141 9.97854 11.4248 10.1118 10.7597C10.2451 10.0946 10.5741 9.4837 11.0573 9.00421C11.5404 8.52471 12.1559 8.19817 12.8261 8.06588C13.4962 7.93359 14.1908 8.00148 14.822 8.26098C15.4532 8.52048 15.9928 8.95993 16.3723 9.52376C16.7519 10.0876 16.9545 10.7505 16.9545 11.4286C16.9534 12.3375 16.5891 13.2089 15.9415 13.8517C15.2939 14.4944 14.4159 14.856 13.5 14.8571Z" fill="#2C365A"/>
</svg>
