<svg width="102" height="78" viewBox="0 0 102 78" fill="none" xmlns="http://www.w3.org/2000/svg">
<g clip-path="url(#clip0_201_92)">
<path d="M50.7898 31.1482H36.7131C35.461 31.1478 34.2212 30.9003 33.0645 30.42C31.9079 29.9396 30.857 29.2358 29.9719 28.3487C29.0868 27.4616 28.3849 26.4086 27.9061 25.2498C27.4274 24.091 27.1812 22.8491 27.1816 21.595V0H50.7898L50.7657 10.3298L37.5608 10.354L37.5918 18.6855C37.5918 20.0004 38.5774 20.7287 39.8903 20.7287H50.7829L50.7898 31.1482Z" fill="#05CEAA"/>
<path d="M50.7692 10.3298H64.8459C67.3744 10.3317 69.7988 11.339 71.5861 13.1304C73.3734 14.9218 74.3773 17.3506 74.3773 19.8831V41.4643H50.7692L50.7933 31.1344H63.9878L63.9568 22.8029C63.9568 21.488 62.9713 20.7632 61.6584 20.7597H50.7692V10.3298Z" fill="white"/>
<path d="M0 53.5612H1.77466V65.6408H0V53.5612Z" fill="white"/>
<path d="M15.5067 66.048L6.21992 56.8192L6.73681 56.9849L6.78506 65.6339H4.99316V53.178H5.07587L14.2352 62.4241L13.8217 62.3068L13.7838 53.5611H15.5412V66.048H15.5067Z" fill="white"/>
<path d="M17.9189 53.5612H25.948V55.2868H22.7639V65.6408H20.9858V55.2868H17.9189V53.5612Z" fill="white"/>
<path d="M28.2567 53.5612H36.1824V55.2868H30.0452V58.7381H35.4932V60.4638H30.0452V63.9566H36.4167V65.6822H28.2567V53.5612Z" fill="white"/>
<path d="M42.2714 53.5611C42.8645 53.556 43.4549 53.6421 44.0219 53.8165C44.5253 53.9715 44.9935 54.2236 45.4003 54.5586C45.7835 54.8825 46.0896 55.2882 46.2962 55.7458C46.5217 56.2623 46.6323 56.8217 46.6202 57.3852C46.6197 57.8652 46.5465 58.3423 46.4031 58.8002C46.2625 59.2643 46.0279 59.6943 45.7139 60.0634C45.369 60.4585 44.9372 60.768 44.4527 60.9677C43.8364 61.2147 43.1761 61.3322 42.5126 61.3128H40.7552V65.6373H38.9771V53.5577L42.2714 53.5611ZM42.4712 59.6148C42.8617 59.6276 43.2501 59.5533 43.6084 59.3973C43.8679 59.2827 44.0991 59.1123 44.2855 58.8981C44.4719 58.684 44.609 58.4314 44.687 58.1583C44.7569 57.923 44.7928 57.679 44.7938 57.4335C44.7913 57.1995 44.7553 56.9671 44.687 56.7433C44.6101 56.492 44.4861 56.2578 44.3217 56.053C44.1371 55.8195 43.9013 55.6317 43.6325 55.5042C43.3006 55.3496 42.9371 55.2751 42.5712 55.2868H40.7483V59.6286L42.4712 59.6148ZM44.5112 60.6502L47.6333 65.6408H45.5657L42.3954 60.7019L44.5112 60.6502Z" fill="white"/>
<path d="M48.7773 53.5612H56.8064V55.2868H53.6396V65.6408H51.8615V55.2868H48.7773V53.5612Z" fill="white"/>
<path d="M62.4474 53.5611C63.0405 53.5563 63.6309 53.6424 64.1979 53.8165C64.7013 53.9715 65.1696 54.2236 65.5763 54.5586C65.9585 54.8835 66.2644 55.2889 66.4723 55.7458C66.6949 56.263 66.8042 56.8221 66.7927 57.3852C66.7935 57.865 66.7214 58.3421 66.5791 58.8002C66.4371 59.2637 66.2027 59.6935 65.8899 60.0634C65.545 60.4585 65.1133 60.768 64.6287 60.9677C64.0112 61.2146 63.3498 61.3321 62.6852 61.3128H60.9277V65.6373H59.1531V53.5577L62.4474 53.5611ZM62.6473 59.6148C63.0377 59.6269 63.4259 59.5526 63.7844 59.3973C64.0605 59.2738 64.3045 59.0884 64.4977 58.8555C64.6621 58.6507 64.7861 58.4164 64.863 58.1652C64.9312 57.9296 64.9672 57.6857 64.9698 57.4404C64.9657 57.2065 64.9297 56.9743 64.863 56.7502C64.7844 56.4997 64.6606 56.2657 64.4977 56.0599C64.3123 55.8272 64.0767 55.6396 63.8085 55.5111C63.4765 55.3569 63.1131 55.2824 62.7472 55.2937H60.9208V59.6355L62.6473 59.6148ZM64.6873 60.6502L67.8058 65.6408H65.7383L62.5715 60.7019L64.6873 60.6502Z" fill="white"/>
<path d="M68.7845 65.6339L74.0879 53.0779H74.1878L79.4808 65.6339H77.4545L73.6054 55.8563L74.8839 55.0072L70.5385 65.6339H68.7845ZM72.0203 61.1092H76.3002L76.917 62.6416H71.4724L72.0203 61.1092Z" fill="white"/>
<path d="M81.4622 65.6339V53.5543H84.8116C85.8561 53.5262 86.8952 53.7129 87.8647 54.103C88.6432 54.4243 89.3385 54.9188 89.8978 55.5491C90.4029 56.1319 90.7861 56.8102 91.0247 57.544C91.2554 58.2586 91.3717 59.0053 91.3693 59.7563C91.3802 60.5867 91.2158 61.41 90.8868 62.1722C90.5797 62.8732 90.1343 63.5048 89.5774 64.0291C89.0238 64.5433 88.3753 64.9442 87.6683 65.2094C86.9367 65.4836 86.1613 65.6216 85.3802 65.6167L81.4622 65.6339ZM83.2368 63.9083H85.0597C85.6719 63.9138 86.2808 63.8182 86.862 63.6252C87.3891 63.4482 87.8745 63.1651 88.2886 62.7935C88.6982 62.4198 89.0185 61.9586 89.2259 61.444C89.4607 60.8632 89.5778 60.2414 89.5705 59.6148C89.5857 58.9502 89.4589 58.29 89.1983 57.6786C88.9706 57.1581 88.6333 56.693 88.2093 56.3153C87.8074 55.9604 87.3388 55.6894 86.8309 55.5181C86.3377 55.3471 85.8195 55.2596 85.2975 55.2592H83.2299L83.2368 63.9083Z" fill="white"/>
<path d="M93.8538 53.5612H101.779V55.2868H95.6284V58.7381H101.087V60.4638H95.6284V63.9566H102V65.6822H93.8538V53.5612Z" fill="white"/>
<path d="M26.5752 73.6651C26.9137 73.6572 27.2493 73.7306 27.5538 73.8791C27.8321 74.0278 28.069 74.2437 28.243 74.5073L27.7847 74.9456C27.6508 74.7252 27.4636 74.5424 27.2402 74.4141C27.0196 74.3016 26.7744 74.2458 26.5269 74.2519C26.3554 74.2463 26.1845 74.2744 26.0238 74.3347C25.9075 74.3779 25.8068 74.4548 25.7343 74.5556C25.6723 74.6458 25.6397 74.7532 25.6413 74.8627C25.6404 74.9265 25.6521 74.9899 25.6758 75.0491C25.6994 75.1083 25.7345 75.1623 25.7791 75.2079C25.9247 75.3305 26.1011 75.4105 26.2891 75.4391L27.1437 75.6289C27.4659 75.6761 27.7669 75.8178 28.0087 76.0362C28.1796 76.2246 28.2711 76.472 28.2637 76.7265C28.2717 76.9735 28.1978 77.2162 28.0535 77.4167C27.9042 77.6154 27.7025 77.7684 27.4711 77.8585C27.1917 77.9647 26.8946 78.0163 26.5958 78.0103C26.3239 78.014 26.0531 77.9756 25.7929 77.8965C25.5705 77.8263 25.3609 77.7202 25.1727 77.5824C25.0013 77.4576 24.8522 77.3047 24.7316 77.1303L25.2037 76.6574C25.2949 76.8096 25.4114 76.945 25.5483 77.0578C25.6868 77.1772 25.8471 77.2686 26.0204 77.327C26.2142 77.3942 26.4183 77.4269 26.6234 77.4236C26.7936 77.4264 26.9633 77.4031 27.1265 77.3546C27.2519 77.3177 27.3642 77.2459 27.4504 77.1475C27.5262 77.0553 27.5665 76.939 27.5641 76.8196C27.5693 76.6928 27.5248 76.5689 27.4401 76.4745C27.3104 76.3639 27.1509 76.2942 26.9818 76.2743L26.0583 76.0638C25.8371 76.0212 25.6249 75.9406 25.4311 75.8257C25.2791 75.7386 25.1532 75.6123 25.0665 75.46C24.9799 75.3076 24.9356 75.1347 24.9383 74.9594C24.9361 74.7291 25.0047 74.5038 25.1347 74.314C25.2773 74.114 25.4715 73.9565 25.6964 73.8584C25.9711 73.7286 26.2715 73.6625 26.5752 73.6651Z" fill="white"/>
<path d="M31.8612 73.7272C32.1298 73.7212 32.3961 73.7767 32.64 73.8895C32.85 73.9878 33.0271 74.1448 33.15 74.3416C33.272 74.5567 33.3362 74.7999 33.3362 75.0474C33.3362 75.2948 33.272 75.538 33.15 75.7532C33.0262 75.9501 32.8495 76.108 32.64 76.2088C32.3959 76.3203 32.1295 76.3746 31.8612 76.3675H30.9239V77.9379H30.2347V73.7272H31.8612ZM31.751 75.7808C31.9877 75.8001 32.2236 75.734 32.416 75.5944C32.5533 75.4448 32.6295 75.2489 32.6295 75.0457C32.6295 74.8424 32.5533 74.6466 32.416 74.4969C32.2236 74.3573 31.9877 74.2912 31.751 74.3105H30.9239V75.7808H31.751Z" fill="white"/>
<path d="M38.3912 77.9379H37.671L37.2713 76.8335H35.5104L35.1107 77.9379H34.4215L36.0032 73.7273H36.8164L38.3912 77.9379ZM35.7 76.2744H37.0783L36.3891 74.3106L35.7 76.2744Z" fill="white"/>
<path d="M41.8648 73.7272C42.2519 73.7093 42.6324 73.8319 42.9365 74.0724C43.0673 74.1849 43.1709 74.3257 43.2396 74.4841C43.3082 74.6425 43.3401 74.8145 43.3328 74.987C43.3424 75.1598 43.3116 75.3325 43.2428 75.4913C43.174 75.6501 43.0691 75.7906 42.9365 75.9016C42.6271 76.1295 42.2484 76.2429 41.8648 76.2226L41.7994 76.2605H40.8276V77.9448H40.1384V73.7342L41.8648 73.7272ZM41.8132 75.6841C42.0305 75.701 42.2471 75.6425 42.4265 75.5185C42.4969 75.4523 42.5514 75.3711 42.586 75.2808C42.6206 75.1906 42.6344 75.0937 42.6264 74.9973C42.6334 74.9016 42.6191 74.8055 42.5845 74.716C42.55 74.6265 42.496 74.5458 42.4265 74.4796C42.2483 74.3528 42.0311 74.293 41.8132 74.3105H40.8276V75.6911L41.8132 75.6841ZM42.2129 75.8257L43.5913 77.9379H42.7987L41.6271 76.0949L42.2129 75.8257Z" fill="white"/>
<path d="M45.4452 77.9379V73.7273H48.4845V74.314H46.124V75.5254H47.9676V76.1018H46.124V77.3512H48.5879V77.9379H45.4452Z" fill="white"/>
<path d="M55.08 73.7272C55.3485 73.7212 55.6149 73.7767 55.8588 73.8895C56.0694 73.9868 56.2467 74.144 56.3688 74.3416C56.4908 74.5567 56.555 74.7999 56.555 75.0474C56.555 75.2948 56.4908 75.538 56.3688 75.7532C56.2459 75.9509 56.0688 76.109 55.8588 76.2088C55.6146 76.3203 55.3482 76.3746 55.08 76.3675H54.1427V77.9379H53.4535V73.7272H55.08ZM54.9697 75.7808C55.2066 75.8007 55.4426 75.7346 55.6348 75.5944C55.7721 75.4448 55.8483 75.2489 55.8483 75.0457C55.8483 74.8424 55.7721 74.6466 55.6348 74.4969C55.4426 74.3567 55.2066 74.2906 54.9697 74.3105H54.1427V75.7808H54.9697Z" fill="white"/>
<path d="M61.6101 77.9379H60.8934L60.4902 76.8335H58.7293L58.3296 77.9379H57.6404L59.2221 73.7273H60.0388L61.6101 77.9379ZM58.9257 76.2744H60.3041L59.6149 74.3106L58.9257 76.2744Z" fill="white"/>
<path d="M65.0835 73.7272C65.4706 73.7093 65.8511 73.8319 66.1552 74.0724C66.286 74.1849 66.3896 74.3257 66.4582 74.4841C66.5269 74.6425 66.5588 74.8145 66.5515 74.987C66.5609 75.1581 66.5306 75.3291 66.4631 75.4866C66.3955 75.644 66.2925 75.7837 66.1621 75.8947C65.8527 76.1226 65.474 76.236 65.0904 76.2157L65.025 76.2536H64.0532V77.9379H63.364V73.7272H65.0835ZM65.0319 75.6841C65.2492 75.701 65.4658 75.6425 65.6452 75.5185C65.7156 75.4523 65.7701 75.3711 65.8047 75.2808C65.8393 75.1906 65.8531 75.0937 65.8451 74.9973C65.8521 74.9016 65.8378 74.8055 65.8032 74.716C65.7687 74.6265 65.7147 74.5458 65.6452 74.4796C65.467 74.3528 65.2498 74.293 65.0319 74.3105H64.0463V75.6911L65.0319 75.6841ZM65.4316 75.8257L66.81 77.9379H66.0277L64.8596 76.0949L65.4316 75.8257Z" fill="white"/>
<path d="M71.6757 73.7273V74.314H70.2353V77.9379H69.5461V74.314H68.1091V73.7273H71.6757Z" fill="white"/>
<path d="M74.777 73.6651C75.1157 73.6568 75.4513 73.7302 75.7557 73.8791C76.034 74.0278 76.2709 74.2437 76.4449 74.5073L75.99 74.9456C75.8551 74.7261 75.6681 74.5435 75.4455 74.4141C75.2235 74.302 74.9774 74.2462 74.7288 74.2519C74.5573 74.2463 74.3864 74.2744 74.2257 74.3347C74.1094 74.3779 74.0086 74.4548 73.9362 74.5556C73.8767 74.6469 73.8456 74.7537 73.8466 74.8627C73.845 74.9909 73.8932 75.1147 73.981 75.2079C74.1275 75.331 74.3052 75.4111 74.4945 75.4391L75.3456 75.6289C75.6678 75.6761 75.9688 75.8178 76.2105 76.0362C76.3815 76.2246 76.4729 76.472 76.4655 76.7265C76.4752 76.9737 76.4011 77.2169 76.2553 77.4167C76.1061 77.6154 75.9044 77.7684 75.673 77.8585C75.3937 77.965 75.0965 78.0165 74.7977 78.0103C74.5269 78.014 74.2572 77.9756 73.9982 77.8965C73.7747 77.8263 73.5641 77.7202 73.3745 77.5824C73.2034 77.4584 73.0553 77.3054 72.9369 77.1303L73.4055 76.6574C73.4979 76.8088 73.6143 76.944 73.7501 77.0578C73.8894 77.1779 74.051 77.2694 74.2257 77.327C74.4182 77.3945 74.6213 77.4272 74.8253 77.4236C74.9966 77.4263 75.1674 77.4031 75.3318 77.3546C75.4567 77.3166 75.5687 77.2449 75.6557 77.1475C75.7292 77.0543 75.7682 76.9384 75.766 76.8196C75.7712 76.6928 75.7267 76.5689 75.642 76.4745C75.5135 76.3575 75.3524 76.2828 75.1802 76.2605L74.2601 76.05C74.0379 76.0073 73.8246 75.9268 73.6295 75.8119C73.4751 75.7235 73.3476 75.5946 73.2608 75.4391C73.1795 75.2875 73.138 75.1177 73.1402 74.9456C73.1385 74.7159 73.2057 74.4911 73.3332 74.3002C73.4762 74.0967 73.6714 73.9357 73.8983 73.8342C74.1748 73.7125 74.4752 73.6547 74.777 73.6651Z" fill="white"/>
</g>
<defs>
<clipPath id="clip0_201_92">
<rect width="102" height="78" fill="white"/>
</clipPath>
</defs>
</svg>
