<svg width="153" height="117" viewBox="0 0 153 117" fill="none" xmlns="http://www.w3.org/2000/svg">
<g clip-path="url(#clip0_1079_631)">
<path d="M76.1847 46.7223H55.0697C53.1915 46.7217 51.3318 46.3505 49.5968 45.63C47.8618 44.9094 46.2855 43.8537 44.9579 42.5231C43.6303 41.1924 42.5773 39.6129 41.8592 37.8747C41.1411 36.1365 40.7718 34.2736 40.7725 32.3924V0H76.1847L76.1485 15.4947L56.3412 15.531L56.3878 28.0282C56.3878 30.0007 57.8661 31.093 59.8354 31.093H76.1744L76.1847 46.7223Z" fill="#05CEAA"/>
<path d="M76.1533 15.4948H97.2683C101.061 15.4975 104.698 17.0085 107.379 19.6955C110.06 22.3826 111.566 26.0259 111.566 29.8247V62.1964H76.1533L76.1895 46.7017H95.9813L95.9348 34.2044C95.9348 32.232 94.4565 31.1448 92.4871 31.1396H76.1533V15.4948Z" fill="#2C365A"/>
<path d="M0 80.3417H2.66199V98.4612H0V80.3417Z" fill="#2C365A"/>
<path d="M23.2606 99.0721L9.33037 85.2288L10.1057 85.4773L10.1781 98.4509H7.49023V79.7671H7.61429L21.3533 93.6362L20.733 93.4602L20.6761 80.3417H23.3123V99.0721H23.2606Z" fill="#2C365A"/>
<path d="M26.8779 80.3417H38.9215V82.9302H34.1454V98.4612H31.4783V82.9302H26.8779V80.3417Z" fill="#2C365A"/>
<path d="M42.3848 80.3417H54.2733V82.9302H45.0674V88.1072H53.2395V90.6957H45.0674V95.9348H54.6248V98.5233H42.3848V80.3417Z" fill="#2C365A"/>
<path d="M63.4071 80.3417C64.2968 80.334 65.1824 80.4632 66.0329 80.7248C66.788 80.9573 67.4904 81.3354 68.1005 81.8379C68.6753 82.3239 69.1345 82.9323 69.4444 83.6188C69.7827 84.3934 69.9485 85.2325 69.9303 86.0778C69.9296 86.7978 69.8198 87.5135 69.6047 88.2004C69.3938 88.8964 69.0419 89.5415 68.5709 90.0952C68.0535 90.6878 67.4059 91.1521 66.6791 91.4515C65.7547 91.8221 64.7642 91.9983 63.7689 91.9692H61.1328V98.456H58.4656V80.3365L63.4071 80.3417ZM63.7069 89.4222C64.2926 89.4414 64.8752 89.33 65.4127 89.096C65.802 88.9241 66.1487 88.6684 66.4283 88.3472C66.7079 88.0261 66.9135 87.6472 67.0305 87.2375C67.1353 86.8846 67.1893 86.5185 67.1908 86.1503C67.187 85.7993 67.133 85.4506 67.0305 85.1149C66.9151 84.7381 66.7292 84.3867 66.4826 84.0795C66.2057 83.7293 65.852 83.4476 65.4488 83.2564C64.951 83.0244 64.4057 82.9127 63.8568 82.9302H61.1225V89.4429L63.7069 89.4222ZM66.7669 90.9753L71.45 98.4612H68.3486L63.5932 91.0529L66.7669 90.9753Z" fill="#2C365A"/>
<path d="M73.1661 80.3417H85.2097V82.9302H80.4594V98.4612H77.7923V82.9302H73.1661V80.3417Z" fill="#2C365A"/>
<path d="M93.6712 80.3417C94.5608 80.3344 95.4464 80.4636 96.297 80.7248C97.052 80.9573 97.7544 81.3354 98.3645 81.8379C98.9378 82.3253 99.3967 82.9334 99.7085 83.6188C100.042 84.3946 100.206 85.2331 100.189 86.0778C100.19 86.7975 100.082 87.5132 99.8687 88.2004C99.6558 88.8956 99.3041 89.5402 98.8349 90.0952C98.3175 90.6878 97.67 91.1521 96.9431 91.4515C96.0169 91.8219 95.0247 91.9981 94.0278 91.9692H91.3917V98.456H88.7297V80.3365L93.6712 80.3417ZM93.971 89.4222C94.5566 89.4404 95.139 89.329 95.6767 89.096C96.0908 88.9107 96.4568 88.6326 96.7467 88.2832C96.9932 87.976 97.1792 87.6247 97.2946 87.2478C97.3969 86.8944 97.4508 86.5286 97.4548 86.1607C97.4485 85.8098 97.3946 85.4615 97.2946 85.1253C97.1766 84.7495 96.9909 84.3986 96.7467 84.0899C96.4686 83.7408 96.1151 83.4594 95.7129 83.2667C95.2148 83.0353 94.6696 82.9236 94.1209 82.9406H91.3813V89.4532L93.971 89.4222ZM97.031 90.9753L101.709 98.4612H98.6075L93.8572 91.0529L97.031 90.9753Z" fill="#2C365A"/>
<path d="M103.177 98.4508L111.132 79.6169H111.282L119.221 98.4508H116.182L110.408 83.7844L112.326 82.5109L105.808 98.4508H103.177ZM108.03 91.6638H114.45L115.375 93.9624H107.209L108.03 91.6638Z" fill="#2C365A"/>
<path d="M122.193 98.4508V80.3314H127.217C128.784 80.2892 130.343 80.5693 131.797 81.1545C132.965 81.6364 134.008 82.3782 134.847 83.3237C135.604 84.1978 136.179 85.2153 136.537 86.316C136.883 87.3879 137.057 88.5079 137.054 89.6344C137.07 90.8799 136.824 92.1149 136.33 93.2583C135.87 94.3098 135.201 95.2571 134.366 96.0435C133.536 96.8149 132.563 97.4163 131.502 97.8141C130.405 98.2253 129.242 98.4324 128.07 98.4249L122.193 98.4508ZM124.855 95.8623H127.59C128.508 95.8706 129.421 95.7272 130.293 95.4378C131.084 95.1722 131.812 94.7476 132.433 94.1902C133.047 93.6297 133.528 92.9378 133.839 92.166C134.191 91.2947 134.367 90.362 134.356 89.4221C134.379 88.4252 134.188 87.435 133.797 86.5179C133.456 85.7371 132.95 85.0395 132.314 84.4729C131.711 83.9406 131.008 83.534 130.246 83.2771C129.507 83.0205 128.729 82.8893 127.946 82.8888H124.845L124.855 95.8623Z" fill="#2C365A"/>
<path d="M140.78 80.3417H152.669V82.9302H143.442V88.1072H151.63V90.6957H143.442V95.9348H153V98.5233H140.78V80.3417Z" fill="#2C365A"/>
<path d="M39.863 110.498C40.3709 110.486 40.8743 110.596 41.331 110.819C41.7485 111.042 42.1038 111.366 42.3648 111.761L41.6773 112.418C41.4766 112.088 41.1956 111.814 40.8606 111.621C40.5297 111.452 40.162 111.369 39.7907 111.378C39.5334 111.369 39.277 111.412 39.036 111.502C38.8616 111.567 38.7104 111.682 38.6018 111.833C38.5087 111.969 38.4599 112.13 38.4623 112.294C38.4609 112.39 38.4784 112.485 38.5139 112.574C38.5494 112.663 38.6021 112.743 38.669 112.812C38.8873 112.996 39.152 113.116 39.434 113.159L40.7159 113.443C41.1991 113.514 41.6506 113.727 42.0133 114.054C42.2698 114.337 42.4069 114.708 42.3958 115.09C42.4078 115.46 42.297 115.824 42.0805 116.125C41.8566 116.423 41.554 116.653 41.2069 116.788C40.7879 116.947 40.3422 117.024 39.894 117.016C39.4862 117.021 39.08 116.963 38.6897 116.845C38.356 116.739 38.0417 116.58 37.7593 116.374C37.5023 116.186 37.2786 115.957 37.0977 115.695L37.8058 114.986C37.9427 115.214 38.1175 115.417 38.3227 115.587C38.5305 115.766 38.771 115.903 39.0308 115.99C39.3216 116.091 39.6277 116.14 39.9354 116.135C40.1907 116.14 40.4452 116.105 40.6901 116.032C40.8781 115.977 41.0467 115.869 41.1759 115.721C41.2896 115.583 41.3501 115.409 41.3465 115.229C41.3543 115.039 41.2875 114.853 41.1604 114.712C40.9659 114.546 40.7267 114.441 40.473 114.411L39.0877 114.096C38.7559 114.032 38.4376 113.911 38.147 113.738C37.919 113.608 37.7301 113.418 37.6001 113.19C37.4701 112.961 37.4037 112.702 37.4078 112.439C37.4045 112.094 37.5073 111.756 37.7024 111.471C37.9163 111.171 38.2075 110.935 38.545 110.788C38.957 110.593 39.4075 110.494 39.863 110.498Z" fill="#2C365A"/>
<path d="M47.7923 110.591C48.1951 110.582 48.5946 110.665 48.9604 110.834C49.2754 110.982 49.541 111.217 49.7254 111.512C49.9085 111.835 50.0047 112.2 50.0047 112.571C50.0047 112.942 49.9085 113.307 49.7254 113.63C49.5398 113.925 49.2746 114.162 48.9604 114.313C48.5942 114.48 48.1947 114.562 47.7923 114.551H46.3863V116.907H45.3525V110.591H47.7923ZM47.6269 113.671C47.982 113.7 48.3359 113.601 48.6245 113.392C48.8304 113.167 48.9447 112.873 48.9447 112.568C48.9447 112.264 48.8304 111.97 48.6245 111.745C48.3359 111.536 47.982 111.437 47.6269 111.466H46.3863V113.671H47.6269Z" fill="#2C365A"/>
<path d="M57.5874 116.907H56.5071L55.9075 115.25H53.2662L52.6666 116.907H51.6328L54.0053 110.591H55.2252L57.5874 116.907ZM53.5505 114.412H55.618L54.5843 111.466L53.5505 114.412Z" fill="#2C365A"/>
<path d="M62.7976 110.591C63.3782 110.564 63.949 110.748 64.4052 111.109C64.6013 111.277 64.7567 111.489 64.8597 111.726C64.9627 111.964 65.0105 112.222 64.9996 112.481C65.014 112.74 64.9678 112.999 64.8646 113.237C64.7614 113.475 64.6041 113.686 64.4052 113.852C63.941 114.194 63.3729 114.364 62.7976 114.334L62.6994 114.391H61.2418V116.917H60.208V110.601L62.7976 110.591ZM62.7201 113.526C63.0462 113.551 63.371 113.464 63.6402 113.278C63.7457 113.178 63.8274 113.057 63.8794 112.921C63.9313 112.786 63.952 112.641 63.94 112.496C63.9505 112.352 63.929 112.208 63.8772 112.074C63.8253 111.94 63.7444 111.819 63.6402 111.719C63.3728 111.529 63.047 111.439 62.7201 111.466H61.2418V113.537L62.7201 113.526ZM63.3197 113.739L65.3873 116.907H64.1984L62.441 114.142L63.3197 113.739Z" fill="#2C365A"/>
<path d="M68.168 116.907V110.591H72.727V111.471H69.1862V113.288H71.9516V114.153H69.1862V116.027H72.882V116.907H68.168Z" fill="#2C365A"/>
<path d="M82.6204 110.591C83.0232 110.582 83.4228 110.665 83.7886 110.834C84.1045 110.98 84.3705 111.216 84.5536 111.512C84.7366 111.835 84.8329 112.2 84.8329 112.571C84.8329 112.942 84.7366 113.307 84.5536 113.63C84.3692 113.926 84.1037 114.163 83.7886 114.313C83.4223 114.48 83.0228 114.562 82.6204 114.551H81.2144V116.907H80.1807V110.591H82.6204ZM82.455 113.671C82.8103 113.701 83.1644 113.602 83.4526 113.392C83.6585 113.167 83.7728 112.873 83.7728 112.568C83.7728 112.264 83.6585 111.97 83.4526 111.745C83.1644 111.535 82.8103 111.436 82.455 111.466H81.2144V113.671H82.455Z" fill="#2C365A"/>
<path d="M92.4155 116.907H91.3404L90.7356 115.25H88.0943L87.4947 116.907H86.4609L88.8335 110.591H90.0585L92.4155 116.907ZM88.3889 114.412H90.4565L89.4227 111.466L88.3889 114.412Z" fill="#2C365A"/>
<path d="M97.6254 110.591C98.206 110.564 98.7768 110.748 99.2329 111.109C99.4291 111.277 99.5845 111.489 99.6874 111.726C99.7904 111.964 99.8382 112.222 99.8273 112.481C99.8414 112.737 99.796 112.994 99.6947 113.23C99.5933 113.466 99.4388 113.676 99.2432 113.842C98.7791 114.184 98.211 114.354 97.6357 114.324L97.5375 114.38H96.0799V116.907H95.0461V110.591H97.6254ZM97.5478 113.526C97.8739 113.551 98.1987 113.464 98.4679 113.278C98.5734 113.178 98.6552 113.057 98.7071 112.921C98.759 112.786 98.7797 112.641 98.7677 112.496C98.7782 112.352 98.7567 112.208 98.7049 112.074C98.6531 111.94 98.5721 111.819 98.4679 111.719C98.2005 111.529 97.8748 111.439 97.5478 111.466H96.0695V113.537L97.5478 113.526ZM98.1474 113.739L100.215 116.907H99.0417L97.2894 114.142L98.1474 113.739Z" fill="#2C365A"/>
<path d="M107.514 110.591V111.471H105.353V116.907H104.32V111.471H102.164V110.591H107.514Z" fill="#2C365A"/>
<path d="M112.166 110.498C112.674 110.485 113.177 110.595 113.634 110.819C114.051 111.042 114.406 111.366 114.667 111.761L113.985 112.418C113.783 112.089 113.502 111.815 113.168 111.621C112.835 111.453 112.466 111.369 112.093 111.378C111.836 111.369 111.58 111.412 111.339 111.502C111.164 111.567 111.013 111.682 110.904 111.833C110.815 111.97 110.768 112.131 110.77 112.294C110.768 112.486 110.84 112.672 110.972 112.812C111.191 112.997 111.458 113.117 111.742 113.159L113.018 113.443C113.502 113.514 113.953 113.727 114.316 114.054C114.572 114.337 114.709 114.708 114.698 115.09C114.713 115.461 114.602 115.825 114.383 116.125C114.159 116.423 113.857 116.653 113.51 116.788C113.091 116.947 112.645 117.025 112.197 117.016C111.79 117.021 111.386 116.963 110.997 116.845C110.662 116.739 110.346 116.58 110.062 116.374C109.805 116.188 109.583 115.958 109.405 115.695L110.108 114.986C110.247 115.213 110.421 115.416 110.625 115.587C110.834 115.767 111.077 115.904 111.339 115.99C111.627 116.092 111.932 116.141 112.238 116.135C112.495 116.14 112.751 116.105 112.998 116.032C113.185 115.975 113.353 115.867 113.484 115.721C113.594 115.581 113.652 115.408 113.649 115.229C113.657 115.039 113.59 114.853 113.463 114.712C113.27 114.536 113.029 114.424 112.77 114.391L111.39 114.075C111.057 114.011 110.737 113.89 110.444 113.718C110.213 113.585 110.021 113.392 109.891 113.159C109.769 112.931 109.707 112.676 109.71 112.418C109.708 112.074 109.809 111.737 110 111.45C110.214 111.145 110.507 110.904 110.848 110.751C111.262 110.569 111.713 110.482 112.166 110.498Z" fill="#2C365A"/>
</g>
<defs>
<clipPath id="clip0_1079_631">
<rect width="153" height="117" fill="white"/>
</clipPath>
</defs>
</svg>
